<svg xmlns="http://www.w3.org/2000/svg" xmlns:xlink="http://www.w3.org/1999/xlink" width="50" zoomAndPan="magnify" viewBox="0 0 37.5 37.499999" height="50" preserveAspectRatio="xMidYMid meet" version="1.0"><defs><clipPath id="242b747b76"><path d="M 12 14 L 36.453125 14 L 36.453125 31 L 12 31 Z M 12 14 " clip-rule="nonzero"/></clipPath><clipPath id="2432dbf8b2"><path d="M 0.949219 21.875 L 13.570312 21.875 L 13.570312 34.332031 L 0.949219 34.332031 Z M 0.949219 21.875 " clip-rule="nonzero"/></clipPath><clipPath id="569364568f"><path d="M 11 2.507812 L 26 2.507812 L 26 17 L 11 17 Z M 11 2.507812 " clip-rule="nonzero"/></clipPath></defs><g clip-path="url(#242b747b76)"><path fill="#0676ce" d="M 13.082031 30.691406 C 12.957031 30.691406 12.835938 30.644531 12.742188 30.550781 C 12.554688 30.363281 12.554688 30.058594 12.742188 29.867188 L 14.144531 28.464844 C 14.609375 28 15.152344 27.636719 15.761719 27.382812 C 16.371094 27.132812 17.011719 27.003906 17.667969 27.003906 L 24.96875 27.003906 C 26.089844 27.003906 27.257812 26.472656 28.085938 25.578125 L 34.679688 17.980469 C 34.945312 17.671875 35.09375 17.277344 35.09375 16.871094 C 35.09375 16.382812 34.882812 15.917969 34.511719 15.59375 C 33.808594 14.984375 32.738281 15.0625 32.128906 15.765625 L 27.3125 21.3125 C 27.136719 21.515625 26.832031 21.535156 26.632812 21.363281 C 26.429688 21.1875 26.410156 20.882812 26.582031 20.683594 L 31.398438 15.132812 C 32.359375 14.027344 34.039062 13.910156 35.144531 14.867188 C 35.722656 15.371094 36.058594 16.101562 36.058594 16.871094 C 36.058594 17.511719 35.828125 18.128906 35.40625 18.609375 L 28.808594 26.214844 C 28.804688 26.21875 28.800781 26.222656 28.796875 26.226562 C 28.3125 26.753906 27.714844 27.191406 27.070312 27.488281 C 26.390625 27.808594 25.683594 27.96875 24.96875 27.96875 L 17.667969 27.96875 C 16.59375 27.96875 15.585938 28.386719 14.824219 29.144531 L 13.421875 30.550781 C 13.328125 30.644531 13.207031 30.691406 13.082031 30.691406 " fill-opacity="1" fill-rule="nonzero"/></g><g clip-path="url(#2432dbf8b2)"><path fill="#0676ce" d="M 9.277344 34.496094 C 9.15625 34.496094 9.03125 34.449219 8.9375 34.351562 L 1.089844 26.507812 C 0.902344 26.316406 0.902344 26.011719 1.089844 25.824219 L 4.894531 22.019531 C 4.984375 21.929688 5.105469 21.878906 5.234375 21.878906 C 5.363281 21.878906 5.484375 21.929688 5.574219 22.019531 L 13.421875 29.867188 C 13.511719 29.957031 13.5625 30.082031 13.5625 30.210938 C 13.5625 30.335938 13.511719 30.460938 13.421875 30.550781 L 9.617188 34.351562 C 9.523438 34.449219 9.402344 34.496094 9.277344 34.496094 Z M 2.113281 26.164062 L 9.277344 33.332031 L 12.398438 30.210938 L 5.234375 23.042969 L 2.113281 26.164062 " fill-opacity="1" fill-rule="nonzero"/></g><path fill="#0676ce" d="M 24.859375 23.769531 L 17.113281 23.769531 C 16.847656 23.769531 16.632812 23.554688 16.632812 23.289062 C 16.632812 23.023438 16.847656 22.808594 17.113281 22.808594 L 24.859375 22.808594 C 25.75 22.808594 26.476562 22.082031 26.476562 21.191406 C 26.476562 21.140625 26.472656 21.089844 26.46875 21.042969 C 26.433594 20.667969 26.269531 20.3125 26 20.046875 C 25.695312 19.742188 25.289062 19.574219 24.859375 19.574219 L 10.371094 19.574219 C 9.296875 19.574219 8.285156 19.992188 7.527344 20.75 L 5.574219 22.703125 C 5.386719 22.890625 5.082031 22.890625 4.894531 22.703125 C 4.707031 22.515625 4.707031 22.210938 4.894531 22.019531 L 6.84375 20.070312 C 7.3125 19.605469 7.855469 19.242188 8.460938 18.988281 C 9.070312 18.738281 9.710938 18.609375 10.371094 18.609375 L 24.859375 18.609375 C 25.546875 18.609375 26.195312 18.878906 26.683594 19.363281 C 27.109375 19.792969 27.375 20.355469 27.425781 20.953125 C 27.433594 21.03125 27.4375 21.109375 27.4375 21.191406 C 27.4375 22.613281 26.28125 23.769531 24.859375 23.769531 " fill-opacity="1" fill-rule="nonzero"/><g clip-path="url(#569364568f)"><path fill="#0676ce" d="M 18.503906 16.273438 C 16.636719 16.273438 14.953125 15.578125 13.636719 14.257812 C 12.316406 12.941406 11.621094 11.257812 11.621094 9.390625 C 11.621094 7.527344 12.316406 5.84375 13.636719 4.523438 C 14.953125 3.203125 16.636719 2.507812 18.503906 2.507812 C 20.367188 2.507812 22.050781 3.203125 23.371094 4.523438 C 24.691406 5.84375 25.386719 7.527344 25.386719 9.390625 C 25.386719 11.257812 24.691406 12.941406 23.371094 14.257812 C 22.050781 15.578125 20.367188 16.273438 18.503906 16.273438 Z M 18.503906 3.472656 C 16.898438 3.472656 15.453125 4.070312 14.316406 5.203125 C 13.183594 6.339844 12.582031 7.785156 12.582031 9.390625 C 12.582031 10.996094 13.183594 12.441406 14.316406 13.578125 C 15.453125 14.710938 16.898438 15.3125 18.503906 15.3125 C 20.109375 15.3125 21.554688 14.710938 22.691406 13.578125 C 23.824219 12.441406 24.421875 10.996094 24.421875 9.390625 C 24.421875 7.785156 23.824219 6.339844 22.691406 5.203125 C 21.554688 4.070312 20.109375 3.472656 18.503906 3.472656 " fill-opacity="1" fill-rule="nonzero"/></g><path fill="#0676ce" d="M 20.378906 9.703125 C 20.242188 9.480469 20.046875 9.300781 19.804688 9.171875 C 19.554688 9.042969 19.160156 8.910156 18.628906 8.785156 C 18.082031 8.65625 17.730469 8.53125 17.582031 8.40625 C 17.453125 8.296875 17.390625 8.167969 17.390625 8.011719 C 17.390625 7.84375 17.460938 7.710938 17.597656 7.609375 C 17.792969 7.46875 18.0625 7.394531 18.398438 7.394531 C 18.726562 7.394531 18.980469 7.464844 19.148438 7.597656 C 19.242188 7.671875 19.320312 7.773438 19.378906 7.898438 C 19.453125 8.070312 19.628906 8.175781 19.820312 8.167969 L 19.847656 8.167969 C 20.007812 8.160156 20.15625 8.070312 20.234375 7.929688 C 20.3125 7.789062 20.316406 7.621094 20.238281 7.480469 C 20.15625 7.328125 20.046875 7.191406 19.910156 7.070312 C 19.578125 6.785156 19.074219 6.640625 18.410156 6.640625 C 18.003906 6.640625 17.652344 6.703125 17.363281 6.824219 C 17.082031 6.945312 16.867188 7.121094 16.71875 7.347656 C 16.570312 7.578125 16.492188 7.824219 16.492188 8.085938 C 16.492188 8.5 16.648438 8.839844 16.96875 9.128906 C 17.199219 9.332031 17.605469 9.507812 18.183594 9.652344 C 18.648438 9.769531 18.941406 9.847656 19.074219 9.894531 C 19.277344 9.964844 19.421875 10.050781 19.507812 10.152344 C 19.59375 10.257812 19.636719 10.386719 19.636719 10.535156 C 19.636719 10.757812 19.539062 10.957031 19.339844 11.125 C 19.144531 11.285156 18.859375 11.367188 18.484375 11.367188 C 18.132812 11.367188 17.84375 11.273438 17.632812 11.09375 C 17.503906 10.984375 17.398438 10.832031 17.324219 10.648438 C 17.253906 10.472656 17.082031 10.359375 16.890625 10.359375 C 16.878906 10.359375 16.863281 10.359375 16.847656 10.363281 C 16.699219 10.375 16.566406 10.457031 16.492188 10.585938 C 16.414062 10.710938 16.402344 10.859375 16.453125 10.996094 C 16.5625 11.273438 16.722656 11.503906 16.933594 11.683594 C 17.285156 11.988281 17.804688 12.140625 18.472656 12.140625 C 18.9375 12.140625 19.324219 12.078125 19.632812 11.949219 C 19.933594 11.824219 20.171875 11.628906 20.335938 11.367188 C 20.5 11.109375 20.585938 10.828125 20.585938 10.53125 C 20.585938 10.203125 20.515625 9.921875 20.378906 9.703125 " fill-opacity="1" fill-rule="nonzero"/><path fill="#0676ce" d="M 18.503906 7.21875 C 18.238281 7.21875 18.023438 7.003906 18.023438 6.734375 L 18.023438 6.339844 C 18.023438 6.074219 18.238281 5.855469 18.503906 5.855469 C 18.769531 5.855469 18.984375 6.074219 18.984375 6.339844 L 18.984375 6.734375 C 18.984375 7.003906 18.769531 7.21875 18.503906 7.21875 " fill-opacity="1" fill-rule="nonzero"/><path fill="#0676ce" d="M 18.503906 12.925781 C 18.238281 12.925781 18.023438 12.710938 18.023438 12.441406 L 18.023438 12.046875 C 18.023438 11.78125 18.238281 11.5625 18.503906 11.5625 C 18.769531 11.5625 18.984375 11.78125 18.984375 12.046875 L 18.984375 12.441406 C 18.984375 12.710938 18.769531 12.925781 18.503906 12.925781 " fill-opacity="1" fill-rule="nonzero"/></svg>