<svg xmlns="http://www.w3.org/2000/svg" xmlns:xlink="http://www.w3.org/1999/xlink" width="50" zoomAndPan="magnify" viewBox="0 0 37.5 37.499999" height="50" preserveAspectRatio="xMidYMid meet" version="1.0"><defs><clipPath id="a70468231f"><path d="M 1.183594 1.183594 L 35.96875 1.183594 L 35.96875 35.96875 L 1.183594 35.96875 Z M 1.183594 1.183594 " clip-rule="nonzero"/></clipPath></defs><g clip-path="url(#a70468231f)"><path fill="#0676ce" d="M 18.503906 35.820312 C 16.164062 35.820312 13.898438 35.363281 11.761719 34.457031 C 9.699219 33.585938 7.847656 32.339844 6.257812 30.746094 C 4.667969 29.15625 3.417969 27.304688 2.546875 25.242188 C 1.640625 23.109375 1.183594 20.839844 1.183594 18.503906 C 1.183594 16.164062 1.640625 13.898438 2.546875 11.761719 C 3.417969 9.699219 4.667969 7.847656 6.257812 6.257812 C 7.847656 4.667969 9.699219 3.417969 11.761719 2.546875 C 13.898438 1.640625 16.164062 1.183594 18.503906 1.183594 C 20.839844 1.183594 23.109375 1.640625 25.242188 2.546875 C 27.304688 3.417969 29.15625 4.667969 30.746094 6.257812 C 32.339844 7.847656 33.585938 9.699219 34.457031 11.761719 C 35.363281 13.898438 35.820312 16.164062 35.820312 18.503906 C 35.820312 20.839844 35.363281 23.109375 34.457031 25.242188 C 33.585938 27.304688 32.339844 29.15625 30.746094 30.746094 C 29.15625 32.339844 27.304688 33.585938 25.242188 34.457031 C 23.109375 35.363281 20.839844 35.820312 18.503906 35.820312 Z M 18.503906 2.144531 C 9.484375 2.144531 2.144531 9.484375 2.144531 18.503906 C 2.144531 27.519531 9.484375 34.859375 18.503906 34.859375 C 27.519531 34.859375 34.859375 27.519531 34.859375 18.503906 C 34.859375 9.484375 27.519531 2.144531 18.503906 2.144531 Z M 18.503906 2.144531 " fill-opacity="1" fill-rule="nonzero"/></g><path fill="#0676ce" d="M 26.171875 14.453125 C 26.171875 14.449219 26.171875 14.449219 26.171875 14.445312 C 26.125 14.089844 26.03125 13.738281 25.894531 13.402344 C 25.894531 13.398438 25.894531 13.394531 25.890625 13.394531 C 25.109375 11.46875 23.058594 10.386719 21.027344 10.824219 C 20.917969 10.851562 20.808594 10.875 20.699219 10.910156 C 20.011719 11.121094 19.386719 11.5 18.886719 12.011719 C 19.566406 12.101562 20.078125 12.675781 20.089844 13.363281 L 20.089844 13.460938 C 20.101562 14.226562 19.496094 14.859375 18.730469 14.871094 L 17.664062 14.890625 C 17.664062 14.925781 17.664062 14.964844 17.664062 15.003906 C 17.664062 17.363281 19.574219 19.273438 21.933594 19.273438 C 24.292969 19.273438 26.207031 17.363281 26.207031 15.003906 C 26.207031 14.816406 26.195312 14.632812 26.171875 14.453125 Z M 22.183594 17.433594 L 22.183594 18.03125 C 22.183594 18.167969 22.074219 18.277344 21.9375 18.277344 C 21.800781 18.277344 21.6875 18.167969 21.6875 18.03125 L 21.6875 17.433594 C 21.242188 17.351562 20.867188 17.050781 20.691406 16.632812 C 20.636719 16.503906 20.695312 16.359375 20.824219 16.304688 C 20.949219 16.253906 21.09375 16.3125 21.148438 16.4375 C 21.332031 16.875 21.832031 17.082031 22.269531 16.898438 C 22.707031 16.714844 22.910156 16.210938 22.726562 15.777344 C 22.59375 15.457031 22.285156 15.25 21.9375 15.25 C 21.191406 15.25 20.589844 14.644531 20.589844 13.898438 C 20.589844 13.246094 21.054688 12.691406 21.691406 12.570312 L 21.691406 11.96875 C 21.691406 11.832031 21.804688 11.722656 21.941406 11.722656 C 22.078125 11.722656 22.1875 11.832031 22.1875 11.96875 L 22.1875 12.566406 C 22.601562 12.644531 22.957031 12.910156 23.144531 13.285156 C 23.207031 13.40625 23.15625 13.554688 23.035156 13.617188 C 22.914062 13.679688 22.765625 13.628906 22.703125 13.507812 C 22.488281 13.085938 21.972656 12.917969 21.550781 13.132812 C 21.132812 13.347656 20.960938 13.863281 21.175781 14.285156 C 21.324219 14.570312 21.617188 14.753906 21.941406 14.753906 C 22.6875 14.753906 23.292969 15.359375 23.292969 16.105469 C 23.292969 16.753906 22.828125 17.3125 22.1875 17.433594 Z M 22.183594 17.433594 " fill-opacity="1" fill-rule="nonzero"/><path fill="#0676ce" d="M 19.597656 13.371094 L 19.597656 13.472656 C 19.605469 13.964844 19.214844 14.371094 18.722656 14.378906 L 16.324219 14.421875 C 15.996094 14.425781 14.050781 14.613281 13.410156 14.925781 C 12.742188 15.253906 12.007812 15.429688 11.265625 15.429688 L 10.707031 15.429688 L 10.707031 11.011719 C 11.148438 10.980469 12.058594 10.90625 12.375 10.78125 C 13.011719 10.53125 14.28125 10.074219 15.632812 9.851562 C 17.222656 9.59375 18.457031 9.730469 19.300781 10.253906 C 19.316406 10.261719 19.347656 10.285156 20.023438 10.632812 C 19.324219 10.941406 18.707031 11.410156 18.226562 12.007812 L 15.59375 12.054688 C 15.457031 12.054688 15.347656 12.167969 15.347656 12.304688 C 15.347656 12.441406 15.460938 12.550781 15.597656 12.550781 L 15.601562 12.550781 L 18.34375 12.5 C 18.347656 12.5 18.355469 12.5 18.363281 12.5 L 18.691406 12.496094 L 18.707031 12.496094 C 19.191406 12.496094 19.589844 12.886719 19.597656 13.371094 Z M 19.597656 13.371094 " fill-opacity="1" fill-rule="nonzero"/><path fill="#0676ce" d="M 7.617188 9.46875 L 7.617188 16.984375 L 10.210938 16.984375 L 10.210938 9.46875 Z M 9.160156 15.957031 C 9.160156 16.09375 9.050781 16.207031 8.914062 16.207031 C 8.777344 16.207031 8.667969 16.09375 8.667969 15.957031 L 8.667969 14.152344 C 8.667969 14.015625 8.777344 13.902344 8.914062 13.902344 C 9.050781 13.902344 9.160156 14.015625 9.160156 14.152344 Z M 9.160156 15.957031 " fill-opacity="1" fill-rule="nonzero"/><path fill="#0676ce" d="M 26.296875 21.574219 L 26.296875 25.992188 C 25.855469 26.023438 24.945312 26.09375 24.628906 26.21875 C 23.992188 26.472656 22.722656 26.929688 21.371094 27.148438 C 19.78125 27.410156 18.546875 27.273438 17.703125 26.75 C 17.53125 26.640625 12.390625 24.011719 11.804688 23.710938 C 11.339844 23.472656 11.15625 22.90625 11.394531 22.445312 C 11.628906 21.980469 12.195312 21.796875 12.660156 22.035156 L 17.085938 24.289062 C 17.328125 24.730469 17.792969 25.003906 18.296875 25.003906 L 18.320312 25.003906 L 21.410156 24.949219 C 21.546875 24.949219 21.65625 24.835938 21.652344 24.699219 C 21.652344 24.5625 21.539062 24.453125 21.402344 24.457031 L 18.3125 24.507812 L 18.296875 24.507812 C 17.8125 24.507812 17.414062 24.117188 17.40625 23.632812 L 17.40625 23.535156 C 17.398438 23.042969 17.789062 22.636719 18.28125 22.625 L 20.679688 22.585938 C 21.007812 22.578125 22.957031 22.390625 23.59375 22.078125 C 24.261719 21.75 24.996094 21.578125 25.742188 21.574219 Z M 26.296875 21.574219 " fill-opacity="1" fill-rule="nonzero"/><path fill="#0676ce" d="M 26.792969 20.019531 L 26.792969 27.535156 L 29.386719 27.535156 L 29.386719 20.019531 Z M 28.335938 22.851562 C 28.335938 22.988281 28.226562 23.101562 28.089844 23.101562 C 27.953125 23.101562 27.84375 22.988281 27.84375 22.851562 L 27.84375 21.046875 C 27.84375 20.910156 27.953125 20.796875 28.089844 20.796875 C 28.226562 20.796875 28.335938 20.910156 28.335938 21.046875 Z M 28.335938 22.851562 " fill-opacity="1" fill-rule="nonzero"/></svg>