<svg xmlns="http://www.w3.org/2000/svg" xmlns:xlink="http://www.w3.org/1999/xlink" width="50" zoomAndPan="magnify" viewBox="0 0 37.5 37.499999" height="50" preserveAspectRatio="xMidYMid meet" version="1.0"><defs><clipPath id="2a7a843200"><path d="M 0.878906 6 L 36.40625 6 L 36.40625 31 L 0.878906 31 Z M 0.878906 6 " clip-rule="nonzero"/></clipPath><clipPath id="e12746d1dc"><path d="M 11 5.96875 L 33 5.96875 L 33 19 L 11 19 Z M 11 5.96875 " clip-rule="nonzero"/></clipPath><clipPath id="31b32aa3f4"><path d="M 12 29 L 17 29 L 17 31.132812 L 12 31.132812 Z M 12 29 " clip-rule="nonzero"/></clipPath><clipPath id="ea4744ad1e"><path d="M 17 29 L 20 29 L 20 31.132812 L 17 31.132812 Z M 17 29 " clip-rule="nonzero"/></clipPath><clipPath id="234b1b252b"><path d="M 20 29 L 29 29 L 29 31.132812 L 20 31.132812 Z M 20 29 " clip-rule="nonzero"/></clipPath></defs><g clip-path="url(#2a7a843200)"><path fill="#0676ce" d="M 35.414062 27.464844 L 32.039062 27.464844 L 32.039062 14.75 C 32.039062 14.433594 31.785156 14.179688 31.46875 14.179688 L 29.0625 14.179688 C 28.746094 14.179688 28.492188 14.433594 28.492188 14.75 L 28.492188 27.464844 L 27.15625 27.464844 L 27.15625 20.308594 C 27.15625 19.996094 26.902344 19.738281 26.585938 19.738281 L 24.179688 19.738281 C 23.863281 19.738281 23.609375 19.996094 23.609375 20.308594 L 23.609375 27.464844 L 22.273438 27.464844 L 22.273438 17.105469 C 22.273438 16.792969 22.019531 16.535156 21.703125 16.535156 L 19.296875 16.535156 C 18.980469 16.535156 18.726562 16.792969 18.726562 17.105469 L 18.726562 27.464844 L 17.394531 27.464844 L 17.394531 22.539062 C 17.394531 22.226562 17.136719 21.96875 16.824219 21.96875 L 14.414062 21.96875 C 14.101562 21.96875 13.84375 22.226562 13.84375 22.539062 L 13.84375 27.464844 L 11.929688 27.464844 C 12.375 26.636719 12.628906 25.691406 12.628906 24.6875 C 12.628906 21.707031 10.394531 19.238281 7.511719 18.863281 L 7.511719 6.867188 C 7.511719 6.472656 7.195312 6.15625 6.800781 6.15625 C 6.40625 6.15625 6.085938 6.472656 6.085938 6.867188 L 6.085938 18.851562 C 3.160156 19.183594 0.878906 21.671875 0.878906 24.6875 C 0.878906 27.925781 3.511719 30.5625 6.753906 30.5625 C 8.347656 30.5625 9.792969 29.925781 10.851562 28.890625 L 35.414062 28.890625 C 35.808594 28.890625 36.128906 28.570312 36.128906 28.179688 C 36.128906 27.785156 35.808594 27.464844 35.414062 27.464844 Z M 29.632812 15.320312 L 30.898438 15.320312 L 30.898438 27.464844 L 29.632812 27.464844 Z M 24.75 20.878906 L 26.015625 20.878906 L 26.015625 27.464844 L 24.75 27.464844 Z M 19.867188 17.679688 L 21.132812 17.679688 L 21.132812 27.464844 L 19.867188 27.464844 Z M 14.984375 23.109375 L 16.253906 23.109375 L 16.253906 27.464844 L 14.984375 27.464844 Z M 5.503906 27.113281 C 5.261719 26.96875 5.066406 26.78125 4.914062 26.542969 C 4.765625 26.304688 4.691406 26.074219 4.691406 25.847656 C 4.691406 25.71875 4.734375 25.605469 4.824219 25.515625 C 4.914062 25.421875 5.03125 25.375 5.171875 25.375 C 5.285156 25.375 5.378906 25.410156 5.460938 25.484375 C 5.539062 25.554688 5.605469 25.664062 5.660156 25.804688 C 5.726562 25.972656 5.800781 26.117188 5.878906 26.230469 C 5.957031 26.34375 6.066406 26.4375 6.210938 26.507812 C 6.351562 26.582031 6.539062 26.621094 6.773438 26.621094 C 7.089844 26.621094 7.347656 26.546875 7.546875 26.398438 C 7.746094 26.25 7.847656 26.0625 7.847656 25.839844 C 7.847656 25.664062 7.792969 25.523438 7.6875 25.414062 C 7.578125 25.300781 7.441406 25.21875 7.269531 25.160156 C 7.097656 25.101562 6.871094 25.042969 6.585938 24.976562 C 6.207031 24.886719 5.886719 24.78125 5.628906 24.664062 C 5.371094 24.542969 5.167969 24.378906 5.015625 24.175781 C 4.867188 23.96875 4.792969 23.710938 4.792969 23.40625 C 4.792969 23.113281 4.871094 22.851562 5.03125 22.625 C 5.1875 22.398438 5.421875 22.226562 5.722656 22.101562 C 5.921875 22.023438 6.140625 21.96875 6.386719 21.941406 L 6.386719 21.492188 C 6.386719 21.265625 6.574219 21.082031 6.800781 21.082031 C 7.027344 21.082031 7.210938 21.265625 7.210938 21.492188 L 7.210938 21.945312 C 7.363281 21.96875 7.503906 21.996094 7.632812 22.042969 C 7.871094 22.121094 8.066406 22.230469 8.222656 22.363281 C 8.378906 22.496094 8.496094 22.636719 8.566406 22.785156 C 8.640625 22.933594 8.675781 23.074219 8.675781 23.214844 C 8.675781 23.34375 8.632812 23.460938 8.539062 23.5625 C 8.449219 23.664062 8.335938 23.714844 8.203125 23.714844 C 8.078125 23.714844 7.984375 23.683594 7.921875 23.625 C 7.855469 23.5625 7.789062 23.460938 7.714844 23.320312 C 7.617188 23.121094 7.5 22.964844 7.367188 22.851562 C 7.230469 22.738281 7.011719 22.683594 6.714844 22.683594 C 6.4375 22.683594 6.210938 22.746094 6.042969 22.867188 C 5.871094 22.988281 5.785156 23.136719 5.785156 23.308594 C 5.785156 23.414062 5.816406 23.503906 5.875 23.582031 C 5.929688 23.660156 6.011719 23.726562 6.113281 23.78125 C 6.214844 23.835938 6.316406 23.878906 6.421875 23.910156 C 6.523438 23.941406 6.695312 23.988281 6.933594 24.050781 C 7.234375 24.117188 7.503906 24.195312 7.746094 24.28125 C 7.992188 24.363281 8.195312 24.46875 8.367188 24.589844 C 8.535156 24.710938 8.667969 24.863281 8.765625 25.046875 C 8.859375 25.230469 8.90625 25.457031 8.90625 25.726562 C 8.90625 26.046875 8.824219 26.335938 8.660156 26.589844 C 8.496094 26.847656 8.253906 27.046875 7.933594 27.191406 C 7.71875 27.289062 7.476562 27.351562 7.210938 27.386719 C 7.210938 27.390625 7.210938 27.398438 7.210938 27.402344 L 7.210938 27.863281 C 7.210938 28.089844 7.027344 28.273438 6.796875 28.273438 C 6.570312 28.273438 6.386719 28.089844 6.386719 27.863281 L 6.386719 27.402344 C 6.386719 27.398438 6.386719 27.390625 6.386719 27.386719 C 6.046875 27.347656 5.75 27.253906 5.503906 27.113281 Z M 5.503906 27.113281 " fill-opacity="1" fill-rule="nonzero"/></g><g clip-path="url(#e12746d1dc)"><path fill="#0676ce" d="M 12.105469 18.738281 C 12.289062 18.738281 12.46875 18.667969 12.609375 18.527344 L 19.660156 11.476562 L 23.351562 15.171875 C 23.484375 15.304688 23.667969 15.378906 23.855469 15.378906 C 24.046875 15.378906 24.226562 15.304688 24.359375 15.171875 L 30.035156 9.496094 L 30.917969 10.382812 C 31.007812 10.472656 31.132812 10.523438 31.253906 10.523438 C 31.300781 10.523438 31.34375 10.515625 31.390625 10.503906 C 31.558594 10.453125 31.683594 10.316406 31.71875 10.148438 L 32.488281 6.5625 C 32.523438 6.402344 32.472656 6.238281 32.359375 6.125 C 32.246094 6.011719 32.082031 5.964844 31.921875 5.996094 L 28.339844 6.765625 C 28.167969 6.800781 28.03125 6.929688 27.980469 7.09375 C 27.933594 7.261719 27.980469 7.441406 28.101562 7.566406 L 29.023438 8.488281 L 23.855469 13.65625 L 20.164062 9.964844 C 19.886719 9.6875 19.433594 9.6875 19.15625 9.964844 L 11.601562 17.519531 C 11.324219 17.796875 11.324219 18.25 11.601562 18.527344 C 11.738281 18.667969 11.921875 18.738281 12.105469 18.738281 Z M 12.105469 18.738281 " fill-opacity="1" fill-rule="nonzero"/></g><g clip-path="url(#31b32aa3f4)"><path fill="#0676ce" d="M 15.773438 29.882812 L 13.21875 29.882812 C 12.902344 29.882812 12.648438 30.136719 12.648438 30.453125 C 12.648438 30.769531 12.902344 31.023438 13.21875 31.023438 L 15.773438 31.023438 C 16.089844 31.023438 16.34375 30.769531 16.34375 30.453125 C 16.34375 30.136719 16.089844 29.882812 15.773438 29.882812 Z M 15.773438 29.882812 " fill-opacity="1" fill-rule="nonzero"/></g><g clip-path="url(#ea4744ad1e)"><path fill="#0676ce" d="M 18.664062 29.882812 L 17.726562 29.882812 C 17.410156 29.882812 17.15625 30.136719 17.15625 30.453125 C 17.15625 30.769531 17.410156 31.023438 17.726562 31.023438 L 18.664062 31.023438 C 18.980469 31.023438 19.234375 30.769531 19.234375 30.453125 C 19.234375 30.136719 18.980469 29.882812 18.664062 29.882812 Z M 18.664062 29.882812 " fill-opacity="1" fill-rule="nonzero"/></g><g clip-path="url(#234b1b252b)"><path fill="#0676ce" d="M 28.09375 29.882812 L 20.726562 29.882812 C 20.410156 29.882812 20.15625 30.136719 20.15625 30.453125 C 20.15625 30.769531 20.410156 31.023438 20.726562 31.023438 L 28.09375 31.023438 C 28.40625 31.023438 28.664062 30.769531 28.664062 30.453125 C 28.664062 30.136719 28.40625 29.882812 28.09375 29.882812 Z M 28.09375 29.882812 " fill-opacity="1" fill-rule="nonzero"/></g></svg>