<svg xmlns="http://www.w3.org/2000/svg" xmlns:xlink="http://www.w3.org/1999/xlink" width="50" zoomAndPan="magnify" viewBox="0 0 37.5 37.499999" height="50" preserveAspectRatio="xMidYMid meet" version="1.0"><defs><clipPath id="d74278daf4"><path d="M 4.882812 0.789062 L 32.269531 0.789062 L 32.269531 36.3125 L 4.882812 36.3125 Z M 4.882812 0.789062 " clip-rule="nonzero"/></clipPath></defs><g clip-path="url(#d74278daf4)"><path fill="#0676ce" d="M 22.917969 31.546875 L 21.445312 31.546875 L 21.445312 27.597656 C 21.445312 27.320312 21.222656 27.09375 20.945312 27.09375 L 15.800781 27.09375 C 15.523438 27.09375 15.300781 27.320312 15.300781 27.597656 L 15.300781 31.546875 L 13.828125 31.546875 C 13.613281 31.546875 13.425781 31.683594 13.355469 31.882812 C 13.285156 32.082031 13.347656 32.308594 13.511719 32.441406 L 18.058594 36.097656 C 18.148438 36.171875 18.261719 36.210938 18.375 36.210938 C 18.484375 36.210938 18.597656 36.171875 18.6875 36.097656 L 23.234375 32.441406 C 23.398438 32.308594 23.460938 32.082031 23.390625 31.882812 C 23.320312 31.683594 23.132812 31.546875 22.917969 31.546875 Z M 18.375 35.0625 L 15.253906 32.550781 L 15.800781 32.550781 C 16.078125 32.550781 16.304688 32.328125 16.304688 32.050781 L 16.304688 28.097656 L 20.441406 28.097656 L 20.441406 32.050781 C 20.441406 32.328125 20.667969 32.550781 20.945312 32.550781 L 21.496094 32.550781 Z M 31.601562 0.789062 L 5.394531 0.789062 C 5.117188 0.789062 4.890625 1.011719 4.890625 1.289062 L 4.890625 11.503906 C 4.890625 11.78125 5.117188 12.007812 5.394531 12.007812 L 9.777344 12.007812 L 9.777344 23.542969 C 9.777344 24.390625 10.464844 25.078125 11.3125 25.078125 L 25.4375 25.078125 C 26.28125 25.078125 26.96875 24.390625 26.96875 23.542969 L 26.96875 12.007812 L 31.601562 12.007812 C 31.878906 12.007812 32.101562 11.78125 32.101562 11.503906 L 32.101562 1.289062 C 32.101562 1.011719 31.878906 0.789062 31.601562 0.789062 Z M 9.777344 8.652344 L 8.25 8.652344 L 8.25 4.144531 L 9.777344 4.144531 Z M 25.964844 23.542969 C 25.964844 23.835938 25.726562 24.074219 25.4375 24.074219 L 11.3125 24.074219 C 11.019531 24.074219 10.78125 23.835938 10.78125 23.542969 L 10.78125 4.144531 L 11.867188 4.144531 L 11.867188 20.039062 C 11.867188 20.316406 12.09375 20.542969 12.371094 20.542969 L 12.722656 20.542969 C 13.601562 20.542969 14.3125 21.253906 14.3125 22.132812 L 14.3125 22.484375 C 14.3125 22.761719 14.539062 22.988281 14.816406 22.988281 L 21.929688 22.988281 C 22.207031 22.988281 22.433594 22.761719 22.433594 22.484375 L 22.433594 22.132812 C 22.433594 21.253906 23.144531 20.542969 24.023438 20.542969 L 24.375 20.542969 C 24.652344 20.542969 24.878906 20.316406 24.878906 20.039062 L 24.878906 4.144531 L 25.964844 4.144531 Z M 12.871094 4.144531 L 23.875 4.144531 L 23.875 19.542969 C 22.5625 19.617188 21.507812 20.671875 21.433594 21.984375 L 15.3125 21.984375 C 15.238281 20.671875 14.183594 19.617188 12.871094 19.542969 Z M 26.96875 4.144531 L 28.746094 4.144531 L 28.746094 8.652344 L 26.96875 8.652344 Z M 31.101562 11.003906 L 26.96875 11.003906 L 26.96875 9.65625 L 29.25 9.65625 C 29.527344 9.65625 29.75 9.429688 29.75 9.152344 L 29.75 3.640625 C 29.75 3.363281 29.527344 3.140625 29.25 3.140625 L 7.746094 3.140625 C 7.46875 3.140625 7.246094 3.363281 7.246094 3.640625 L 7.246094 9.152344 C 7.246094 9.429688 7.46875 9.65625 7.746094 9.65625 L 9.777344 9.65625 L 9.777344 11.003906 L 5.894531 11.003906 L 5.894531 1.792969 L 31.097656 1.792969 L 31.097656 11.003906 Z M 18.375 15.886719 C 21.039062 15.886719 23.207031 13.71875 23.207031 11.050781 C 23.207031 8.386719 21.039062 6.214844 18.375 6.214844 C 15.707031 6.214844 13.539062 8.386719 13.539062 11.050781 C 13.539062 13.71875 15.707031 15.886719 18.375 15.886719 Z M 18.375 7.21875 C 20.484375 7.21875 22.203125 8.9375 22.203125 11.050781 C 22.203125 13.164062 20.484375 14.882812 18.375 14.882812 C 16.261719 14.882812 14.542969 13.164062 14.542969 11.050781 C 14.542969 8.9375 16.261719 7.21875 18.375 7.21875 Z M 15.945312 11.566406 C 15.671875 11.566406 15.449219 11.347656 15.445312 11.074219 C 15.4375 10.796875 15.65625 10.570312 15.933594 10.5625 L 16.054688 10.558594 C 16.152344 10.246094 16.335938 10.03125 16.523438 9.832031 C 16.714844 9.628906 17.03125 9.621094 17.234375 9.808594 C 17.433594 10 17.445312 10.320312 17.253906 10.519531 C 17.035156 10.75 16.988281 10.84375 16.988281 11.050781 C 16.988281 11.347656 17.1875 11.59375 17.421875 11.59375 C 17.65625 11.59375 17.855469 11.347656 17.855469 11.050781 C 17.855469 10.199219 18.5 9.503906 19.289062 9.503906 C 19.917969 9.503906 20.449219 9.9375 20.644531 10.539062 L 20.789062 10.535156 C 21.066406 10.527344 21.296875 10.75 21.304688 11.027344 C 21.308594 11.304688 21.089844 11.535156 20.8125 11.539062 L 20.652344 11.542969 C 20.585938 11.757812 20.476562 11.957031 20.324219 12.125 C 20.140625 12.332031 19.824219 12.351562 19.617188 12.164062 C 19.410156 11.980469 19.390625 11.664062 19.578125 11.457031 C 19.671875 11.351562 19.722656 11.207031 19.722656 11.050781 C 19.722656 10.757812 19.523438 10.507812 19.289062 10.507812 C 19.054688 10.507812 18.859375 10.757812 18.859375 11.050781 C 18.859375 11.90625 18.214844 12.597656 17.421875 12.597656 C 16.796875 12.597656 16.265625 12.164062 16.066406 11.5625 L 15.957031 11.566406 C 15.953125 11.566406 15.949219 11.566406 15.945312 11.566406 Z M 15.945312 11.566406 " fill-opacity="1" fill-rule="nonzero"/></g></svg>