<svg xmlns="http://www.w3.org/2000/svg" xmlns:xlink="http://www.w3.org/1999/xlink" width="60" zoomAndPan="magnify" viewBox="0 0 45 44.999999" height="60" preserveAspectRatio="xMidYMid meet" version="1.0"><path fill="#ff8e26" d="M 177.800781 120.863281 L 35.5625 213.308594 C 35.5625 166.179688 42.675781 -0.0273438 64.011719 -0.0273438 C 85.347656 -0.0273438 177.800781 73.734375 177.800781 120.863281 Z M 177.800781 120.863281 " fill-opacity="1" fill-rule="nonzero"/><path fill="#bfbdbc" d="M 45 22.5 C 45 34.925781 34.925781 45 22.5 45 C 10.074219 45 0 34.925781 0 22.5 C 0 10.074219 10.074219 0 22.5 0 C 34.925781 0 45 10.074219 45 22.5 " fill-opacity="1" fill-rule="nonzero"/><path fill="#ffffff" d="M 30.492188 15.386719 C 30.492188 19.816406 26.902344 23.410156 22.472656 23.410156 C 18.042969 23.410156 14.449219 19.816406 14.449219 15.386719 C 14.449219 10.957031 18.042969 7.367188 22.472656 7.367188 C 26.902344 7.367188 30.492188 10.957031 30.492188 15.386719 " fill-opacity="1" fill-rule="nonzero"/><path fill="#ffffff" d="M 22.472656 43.933594 C 28.148438 43.933594 33.332031 41.828125 37.289062 38.359375 C 36.0625 30.335938 32.441406 24.769531 22.472656 24.769531 C 12.78125 24.769531 9.027344 30.363281 7.710938 38.414062 C 11.660156 41.851562 16.824219 43.933594 22.472656 43.933594 " fill-opacity="1" fill-rule="nonzero"/></svg>