<svg xmlns="http://www.w3.org/2000/svg" xmlns:xlink="http://www.w3.org/1999/xlink" width="145" zoomAndPan="magnify" viewBox="0 0 108.75 30.000001" height="40" preserveAspectRatio="xMidYMid meet" version="1.0"><defs><g/><clipPath id="0c8f00134f"><path d="M 9.464844 3 L 34 3 L 34 27.933594 L 9.464844 27.933594 Z M 9.464844 3 " clip-rule="nonzero"/></clipPath><clipPath id="2016a0bc56"><path d="M 31 1.105469 L 55.917969 1.105469 L 55.917969 26 L 31 26 Z M 31 1.105469 " clip-rule="nonzero"/></clipPath></defs><g clip-path="url(#0c8f00134f)"><path fill="#ffffff" d="M 33.914062 8.417969 L 33.925781 3.535156 L 21.722656 3.511719 C 14.976562 3.496094 9.5 8.949219 9.484375 15.691406 C 9.46875 22.433594 14.921875 27.914062 21.667969 27.925781 C 26.667969 27.933594 30.976562 24.933594 32.867188 20.628906 L 27.128906 20.617188 C 25.78125 22.105469 23.84375 23.046875 21.675781 23.042969 C 17.632812 23.035156 14.359375 19.746094 14.367188 15.703125 C 14.375 11.65625 17.664062 8.386719 21.707031 8.394531 Z M 33.914062 8.417969 " fill-opacity="1" fill-rule="nonzero"/></g><g clip-path="url(#2016a0bc56)"><path fill="#ffffff" d="M 35.382812 20.613281 C 34.535156 22.542969 33.199219 24.207031 31.535156 25.453125 L 31.535156 25.488281 L 43.746094 25.515625 C 50.488281 25.527344 55.964844 20.074219 55.980469 13.332031 C 55.992188 6.589844 50.539062 1.113281 43.796875 1.097656 C 41.035156 1.089844 38.492188 2.007812 36.441406 3.550781 L 36.433594 8.402344 L 38.335938 8.40625 C 39.679688 6.914062 41.621094 5.976562 43.785156 5.980469 C 47.832031 5.992188 51.105469 9.277344 51.09375 13.320312 C 51.085938 17.367188 47.800781 20.640625 43.753906 20.628906 Z M 35.382812 20.613281 " fill-opacity="1" fill-rule="nonzero"/></g><g fill="#ffffff" fill-opacity="1"><g transform="translate(57.924539, 18.239128)"><g><path d="M 7.03125 -8.007812 L 7.03125 -9.925781 L 1.058594 -9.925781 L 1.058594 0 L 3.242188 0 L 3.242188 -4.003906 L 6.484375 -4.003906 L 6.484375 -5.921875 L 3.242188 -5.921875 L 3.242188 -8.007812 Z M 7.03125 -8.007812 "/></g></g></g><g fill="#ffffff" fill-opacity="1"><g transform="translate(64.856587, 18.239128)"><g><path d="M 2.066406 -7.726562 C 2.695312 -7.726562 3.226562 -8.257812 3.226562 -8.882812 C 3.226562 -9.53125 2.695312 -10.042969 2.066406 -10.042969 C 1.4375 -10.042969 0.910156 -9.53125 0.910156 -8.882812 C 0.910156 -8.257812 1.4375 -7.726562 2.066406 -7.726562 Z M 1.007812 0 L 3.109375 0 L 3.109375 -6.617188 L 1.007812 -6.617188 Z M 1.007812 0 "/></g></g></g><g fill="#ffffff" fill-opacity="1"><g transform="translate(68.727927, 18.239128)"><g><path d="M 4.980469 -6.75 C 4.21875 -6.75 3.558594 -6.386719 3.09375 -5.808594 L 3.09375 -6.617188 L 0.976562 -6.617188 L 0.976562 0 L 3.09375 0 L 3.09375 -3.839844 C 3.09375 -4.433594 3.589844 -4.878906 4.203125 -4.878906 C 4.816406 -4.878906 5.246094 -4.433594 5.246094 -3.839844 L 5.246094 0 L 7.347656 0 L 7.347656 -4.1875 C 7.347656 -5.640625 6.289062 -6.75 4.980469 -6.75 Z M 4.980469 -6.75 "/></g></g></g><g fill="#ffffff" fill-opacity="1"><g transform="translate(76.652635, 18.239128)"><g><path d="M 7.097656 -9.925781 L -0.0820312 -9.925781 L -0.0820312 -7.992188 L 2.433594 -7.992188 L 2.433594 0 L 4.597656 0 L 4.597656 -7.992188 L 7.097656 -7.992188 Z M 7.097656 -9.925781 "/></g></g></g><g fill="#ffffff" fill-opacity="1"><g transform="translate(83.402696, 18.239128)"><g><path d="M 3.9375 0.132812 C 5.941406 0.132812 7.046875 -0.910156 7.046875 -2.53125 L 7.046875 -6.617188 L 4.945312 -6.617188 L 4.945312 -2.8125 C 4.945312 -2.183594 4.515625 -1.738281 3.9375 -1.738281 C 3.375 -1.738281 2.945312 -2.183594 2.945312 -2.8125 L 2.945312 -6.617188 L 0.828125 -6.617188 L 0.828125 -2.53125 C 0.828125 -0.910156 1.9375 0.132812 3.9375 0.132812 Z M 3.9375 0.132812 "/></g></g></g><g fill="#ffffff" fill-opacity="1"><g transform="translate(91.029609, 18.239128)"><g><path d="M 7.097656 -9.925781 L -0.0820312 -9.925781 L -0.0820312 -7.992188 L 2.433594 -7.992188 L 2.433594 0 L 4.597656 0 L 4.597656 -7.992188 L 7.097656 -7.992188 Z M 7.097656 -9.925781 "/></g></g></g></svg>