<svg xmlns="http://www.w3.org/2000/svg" xmlns:xlink="http://www.w3.org/1999/xlink" width="50" zoomAndPan="magnify"
     viewBox="0 0 37.5 37.499999" height="50" preserveAspectRatio="xMidYMid meet" version="1.0">
    <defs>
        <clipPath id="bf66db3112">
            <path d="M 16.839844 17.941406 L 29.425781 17.941406 L 29.425781 25.992188 L 16.839844 25.992188 Z M 16.839844 17.941406 "
                  clip-rule="nonzero"/>
        </clipPath>
        <clipPath id="efa77ae389">
            <path d="M 0.421875 15 L 7 15 L 7 25 L 0.421875 25 Z M 0.421875 15 " clip-rule="nonzero"/>
        </clipPath>
        <clipPath id="49294c4d4e">
            <path d="M 9 6.257812 L 19 6.257812 L 19 13 L 9 13 Z M 9 6.257812 " clip-rule="nonzero"/>
        </clipPath>
        <clipPath id="8ec9299f99">
            <path d="M 18 6.257812 L 28 6.257812 L 28 13 L 18 13 Z M 18 6.257812 " clip-rule="nonzero"/>
        </clipPath>
        <clipPath id="47d65b0c4e">
            <path d="M 30.007812 15.109375 L 36.585938 15.109375 L 36.585938 24.691406 L 30.007812 24.691406 Z M 30.007812 15.109375 "
                  clip-rule="nonzero"/>
        </clipPath>
    </defs>
    <g clip-path="url(#bf66db3112)">
        <path fill="#1899e4"
              d="M 18.507812 23.28125 C 18.320312 23.28125 18.132812 23.328125 17.96875 23.425781 C 17.453125 23.722656 17.277344 24.382812 17.574219 24.898438 C 17.871094 25.410156 18.53125 25.585938 19.046875 25.289062 C 19.359375 25.109375 19.558594 24.785156 19.582031 24.425781 C 19.585938 24.339844 19.632812 24.261719 19.703125 24.210938 L 25.503906 20.320312 L 19.230469 23.394531 C 19.15625 23.433594 19.0625 23.433594 18.988281 23.394531 C 18.835938 23.316406 18.671875 23.28125 18.507812 23.28125 Z M 18.507812 25.992188 C 17.945312 25.992188 17.394531 25.699219 17.09375 25.175781 C 16.640625 24.394531 16.910156 23.394531 17.691406 22.941406 C 18.125 22.691406 18.640625 22.65625 19.105469 22.835938 L 28.945312 18.011719 C 29.074219 17.945312 29.234375 17.996094 29.308594 18.121094 C 29.382812 18.25 29.34375 18.410156 29.222656 18.492188 L 20.121094 24.601562 C 20.046875 25.089844 19.757812 25.523438 19.324219 25.773438 C 19.066406 25.921875 18.785156 25.992188 18.507812 25.992188 "
              fill-opacity="1" fill-rule="evenodd"/>
    </g>
    <g clip-path="url(#efa77ae389)">
        <path fill="#1899e4"
              d="M 4.851562 24.632812 L 0.699219 24.632812 C 0.546875 24.632812 0.421875 24.507812 0.421875 24.355469 C 0.421875 21.175781 1.257812 18.050781 2.839844 15.3125 C 2.917969 15.179688 3.089844 15.136719 3.222656 15.210938 C 3.355469 15.289062 3.398438 15.457031 3.324219 15.59375 C 1.835938 18.164062 1.027344 21.09375 0.980469 24.078125 L 4.578125 24.078125 C 4.625 21.726562 5.265625 19.417969 6.4375 17.390625 C 6.515625 17.257812 6.6875 17.210938 6.820312 17.289062 C 6.953125 17.367188 6.996094 17.535156 6.921875 17.667969 C 5.75 19.691406 5.132812 22.003906 5.132812 24.355469 C 5.132812 24.507812 5.007812 24.632812 4.851562 24.632812 "
              fill-opacity="1" fill-rule="evenodd"/>
    </g>
    <path fill="#1899e4"
          d="M 3.464844 15.351562 L 6.582031 17.152344 C 7.75 15.222656 9.371094 13.601562 11.296875 12.433594 L 9.5 9.316406 C 7.027344 10.800781 4.949219 12.878906 3.464844 15.351562 Z M 6.679688 17.808594 C 6.632812 17.808594 6.585938 17.796875 6.539062 17.769531 L 2.945312 15.695312 C 2.878906 15.65625 2.832031 15.59375 2.8125 15.523438 C 2.792969 15.453125 2.804688 15.375 2.839844 15.3125 C 4.429688 12.570312 6.71875 10.28125 9.460938 8.695312 C 9.523438 8.65625 9.601562 8.648438 9.671875 8.664062 C 9.742188 8.683594 9.804688 8.730469 9.839844 8.796875 L 11.917969 12.394531 C 11.996094 12.527344 11.949219 12.695312 11.816406 12.773438 C 9.789062 13.949219 8.09375 15.640625 6.921875 17.667969 C 6.867188 17.757812 6.773438 17.808594 6.679688 17.808594 "
          fill-opacity="1" fill-rule="evenodd"/>
    <g clip-path="url(#49294c4d4e)">
        <path fill="#1899e4"
              d="M 11.675781 12.8125 C 11.582031 12.8125 11.488281 12.761719 11.4375 12.671875 C 11.359375 12.539062 11.402344 12.371094 11.539062 12.292969 C 11.816406 12.132812 12.101562 11.976562 12.390625 11.835938 C 14.21875 10.941406 16.179688 10.46875 18.226562 10.429688 L 18.226562 6.832031 C 15.628906 6.871094 13.136719 7.46875 10.8125 8.601562 C 10.449219 8.78125 10.089844 8.972656 9.738281 9.175781 C 9.605469 9.253906 9.4375 9.207031 9.359375 9.074219 C 9.28125 8.941406 9.328125 8.769531 9.460938 8.695312 C 9.820312 8.484375 10.195312 8.285156 10.570312 8.101562 C 13.050781 6.890625 15.71875 6.273438 18.503906 6.273438 C 18.65625 6.273438 18.78125 6.398438 18.78125 6.550781 L 18.78125 10.707031 C 18.78125 10.859375 18.65625 10.984375 18.503906 10.984375 C 16.445312 10.984375 14.46875 11.4375 12.636719 12.335938 C 12.359375 12.472656 12.082031 12.617188 11.816406 12.773438 C 11.773438 12.796875 11.726562 12.8125 11.675781 12.8125 "
              fill-opacity="1" fill-rule="evenodd"/>
    </g>
    <g clip-path="url(#8ec9299f99)">
        <path fill="#1899e4"
              d="M 25.328125 12.8125 C 25.28125 12.8125 25.230469 12.796875 25.1875 12.773438 C 24.921875 12.617188 24.648438 12.472656 24.371094 12.335938 C 22.535156 11.4375 20.5625 10.984375 18.503906 10.984375 C 18.351562 10.984375 18.226562 10.859375 18.226562 10.707031 C 18.226562 10.550781 18.351562 10.425781 18.503906 10.425781 C 20.648438 10.425781 22.703125 10.902344 24.613281 11.835938 C 24.820312 11.9375 25.023438 12.042969 25.226562 12.15625 L 27.023438 9.039062 C 26.75 8.886719 26.472656 8.738281 26.191406 8.601562 C 23.789062 7.425781 21.199219 6.832031 18.503906 6.832031 C 18.351562 6.832031 18.226562 6.707031 18.226562 6.550781 C 18.226562 6.398438 18.351562 6.273438 18.503906 6.273438 C 21.285156 6.273438 23.957031 6.890625 26.4375 8.101562 C 26.8125 8.285156 27.183594 8.484375 27.546875 8.695312 C 27.679688 8.769531 27.722656 8.941406 27.648438 9.074219 L 25.570312 12.671875 C 25.53125 12.734375 25.472656 12.78125 25.402344 12.800781 C 25.378906 12.808594 25.351562 12.8125 25.328125 12.8125 "
              fill-opacity="1" fill-rule="evenodd"/>
    </g>
    <path fill="#1899e4"
          d="M 30.328125 17.808594 C 30.230469 17.808594 30.136719 17.757812 30.085938 17.667969 C 28.910156 15.640625 27.21875 13.949219 25.191406 12.773438 C 25.058594 12.695312 25.011719 12.527344 25.089844 12.394531 C 25.164062 12.261719 25.335938 12.214844 25.46875 12.292969 C 27.5 13.46875 29.210938 15.144531 30.425781 17.152344 L 33.542969 15.351562 C 32.011719 12.800781 29.847656 10.667969 27.265625 9.175781 C 27.132812 9.097656 27.089844 8.929688 27.164062 8.796875 C 27.242188 8.664062 27.414062 8.617188 27.546875 8.695312 C 30.289062 10.28125 32.578125 12.570312 34.164062 15.3125 C 34.203125 15.375 34.210938 15.453125 34.191406 15.523438 C 34.171875 15.59375 34.128906 15.65625 34.0625 15.695312 L 30.464844 17.769531 C 30.421875 17.796875 30.375 17.808594 30.328125 17.808594 "
          fill-opacity="1" fill-rule="evenodd"/>
    <g clip-path="url(#47d65b0c4e)">
        <path fill="#1899e4"
              d="M 36.308594 24.632812 L 32.152344 24.632812 C 32 24.632812 31.875 24.507812 31.875 24.355469 C 31.875 22.003906 31.257812 19.691406 30.085938 17.667969 C 30.007812 17.535156 30.054688 17.367188 30.1875 17.289062 C 30.320312 17.210938 30.488281 17.257812 30.566406 17.390625 C 31.738281 19.417969 32.382812 21.726562 32.429688 24.078125 L 36.027344 24.078125 C 35.980469 21.09375 35.171875 18.164062 33.683594 15.59375 C 33.605469 15.457031 33.652344 15.289062 33.785156 15.210938 C 33.917969 15.136719 34.089844 15.179688 34.164062 15.3125 C 35.75 18.050781 36.585938 21.175781 36.585938 24.355469 C 36.585938 24.507812 36.460938 24.632812 36.308594 24.632812 "
              fill-opacity="1" fill-rule="evenodd"/>
    </g>
</svg>