<svg xmlns="http://www.w3.org/2000/svg" xmlns:xlink="http://www.w3.org/1999/xlink" width="50" zoomAndPan="magnify"
     viewBox="0 0 37.5 37.499999" height="50" preserveAspectRatio="xMidYMid meet" version="1.0">
    <defs>
        <clipPath id="6020bc3276">
            <path d="M 0.738281 1.257812 L 35.527344 1.257812 L 35.527344 36.042969 L 0.738281 36.042969 Z M 0.738281 1.257812 "
                  clip-rule="nonzero"/>
        </clipPath>
        <clipPath id="c4774abd12">
            <path d="M 19 1.257812 L 35.527344 1.257812 L 35.527344 18 L 19 18 Z M 19 1.257812 " clip-rule="nonzero"/>
        </clipPath>
    </defs>
    <g clip-path="url(#6020bc3276)">
        <path fill="#3d9dbd"
              d="M 18.242188 36.261719 C 8.589844 36.261719 0.738281 28.410156 0.738281 18.757812 C 0.738281 9.109375 8.589844 1.253906 18.242188 1.253906 C 27.890625 1.253906 35.742188 9.109375 35.742188 18.757812 C 35.742188 28.410156 27.890625 36.261719 18.242188 36.261719 Z M 18.242188 2.921875 C 9.507812 2.921875 2.402344 10.027344 2.402344 18.757812 C 2.402344 27.492188 9.507812 34.59375 18.242188 34.59375 C 26.972656 34.59375 34.078125 27.492188 34.078125 18.757812 C 34.078125 10.027344 26.972656 2.921875 18.242188 2.921875 Z M 18.242188 2.921875 "
              fill-opacity="1" fill-rule="nonzero"/>
    </g>
    <path fill="#3d9dbd"
          d="M 34.910156 19.59375 L 17.40625 19.59375 L 17.40625 2.089844 L 19.074219 2.089844 L 19.074219 17.925781 L 34.910156 17.925781 Z M 34.910156 19.59375 "
          fill-opacity="1" fill-rule="nonzero"/>
    <g clip-path="url(#c4774abd12)">
        <path fill="#3d9dbd"
              d="M 19.410156 2.769531 L 20.589844 1.589844 L 35.410156 16.410156 L 34.230469 17.589844 Z M 19.410156 2.769531 "
              fill-opacity="1" fill-rule="nonzero"/>
    </g>
    <path fill="#3d9dbd"
          d="M 17.652344 6.84375 L 18.828125 5.667969 L 31.332031 18.167969 L 30.152344 19.347656 Z M 17.652344 6.84375 "
          fill-opacity="1" fill-rule="nonzero"/>
    <path fill="#3d9dbd"
          d="M 17.652344 12.679688 L 18.828125 11.5 L 25.496094 18.167969 L 24.320312 19.347656 Z M 17.652344 12.679688 "
          fill-opacity="1" fill-rule="nonzero"/>
</svg>