<svg xmlns="http://www.w3.org/2000/svg" xmlns:xlink="http://www.w3.org/1999/xlink" width="50" zoomAndPan="magnify"
     viewBox="0 0 37.5 37.499999" height="50" preserveAspectRatio="xMidYMid meet" version="1.0">
    <defs>
        <clipPath id="16303de374">
            <path d="M 3.441406 0.191406 L 33.785156 0.191406 L 33.785156 36.457031 L 3.441406 36.457031 Z M 3.441406 0.191406 "
                  clip-rule="nonzero"/>
        </clipPath>
    </defs>
    <g clip-path="url(#16303de374)">
        <path fill="#af6588"
              d="M 7.132812 36.808594 L 28.726562 36.808594 C 30.753906 36.808594 32.417969 35.144531 32.417969 33.113281 L 32.417969 30.273438 C 33.109375 29.785156 33.554688 28.972656 33.554688 28.082031 L 33.554688 25.242188 C 33.554688 24.347656 33.109375 23.535156 32.417969 23.046875 L 32.417969 16.148438 C 32.417969 15.785156 32.378906 15.417969 32.257812 15.054688 C 32.011719 13.714844 30.957031 12.699219 29.617188 12.539062 C 29.335938 12.457031 29.050781 12.414062 28.726562 12.414062 L 28.199219 12.414062 L 31.121094 10.183594 C 31.402344 9.980469 31.445312 9.574219 31.242188 9.332031 L 24.585938 0.523438 C 24.382812 0.238281 23.976562 0.199219 23.734375 0.402344 L 7.824219 12.457031 L 7.132812 12.457031 C 6.851562 12.457031 6.527344 12.496094 6.242188 12.578125 C 4.902344 12.738281 3.804688 13.753906 3.601562 15.09375 C 3.480469 15.417969 3.441406 15.785156 3.441406 16.148438 L 3.441406 33.113281 C 3.441406 35.144531 5.105469 36.808594 7.132812 36.808594 Z M 30.917969 33.113281 C 30.917969 34.332031 29.941406 35.304688 28.726562 35.304688 L 7.132812 35.304688 C 5.917969 35.304688 4.941406 34.332031 4.941406 33.113281 L 4.941406 18.136719 C 5.429688 18.421875 5.957031 18.625 6.566406 18.625 L 29.253906 18.625 C 29.863281 18.625 30.429688 18.460938 30.875 18.136719 L 30.875 22.5625 C 30.875 22.5625 30.835938 22.5625 30.835938 22.5625 L 23.691406 22.5625 C 21.421875 22.5625 19.59375 24.386719 19.59375 26.660156 C 19.59375 28.933594 21.421875 30.761719 23.691406 30.761719 L 30.875 30.761719 C 30.875 30.761719 30.917969 30.761719 30.917969 30.761719 Z M 32.257812 25.242188 L 32.257812 28.082031 C 32.257812 28.8125 31.648438 29.421875 30.917969 29.421875 L 23.691406 29.421875 C 22.152344 29.421875 20.933594 28.164062 20.933594 26.660156 C 20.933594 25.117188 22.191406 23.902344 23.691406 23.902344 L 30.875 23.902344 C 31.648438 23.902344 32.257812 24.507812 32.257812 25.242188 Z M 23.976562 1.78125 L 29.902344 9.613281 L 26.128906 12.457031 C 26.128906 12.457031 26.085938 12.496094 26.085938 12.496094 L 22.839844 14.972656 L 19.757812 14.972656 C 20.324219 14.890625 20.851562 14.6875 21.339844 14.324219 C 22.109375 13.753906 22.558594 13.023438 22.71875 12.089844 C 22.882812 11.15625 22.679688 10.304688 22.109375 9.535156 C 21.542969 8.761719 20.8125 8.316406 19.878906 8.152344 C 18.945312 7.992188 18.09375 8.195312 17.320312 8.761719 C 16.550781 9.332031 16.105469 10.0625 15.941406 10.996094 C 15.777344 11.929688 15.980469 12.78125 16.550781 13.550781 C 17.117188 14.324219 17.847656 14.769531 18.78125 14.933594 C 18.824219 14.933594 18.863281 14.933594 18.902344 14.933594 L 12.53125 14.933594 L 11.4375 13.511719 L 12.980469 12.335938 L 12.371094 11.523438 L 9.976562 13.308594 L 11.191406 14.933594 L 9.570312 14.933594 C 9.570312 14.890625 9.570312 14.890625 9.570312 14.851562 C 9.570312 14.6875 9.527344 14.566406 9.449219 14.445312 L 8.636719 13.347656 Z M 18.945312 13.917969 C 18.296875 13.796875 17.769531 13.511719 17.363281 12.941406 C 16.957031 12.414062 16.835938 11.804688 16.914062 11.15625 C 17.039062 10.507812 17.320312 9.980469 17.890625 9.574219 C 18.335938 9.25 18.78125 9.128906 19.269531 9.128906 C 19.390625 9.128906 19.554688 9.128906 19.675781 9.167969 C 20.324219 9.289062 20.851562 9.574219 21.257812 10.144531 C 21.664062 10.671875 21.785156 11.277344 21.703125 11.929688 C 21.582031 12.578125 21.296875 13.105469 20.730469 13.511719 C 20.203125 13.875 19.59375 14.039062 18.945312 13.917969 Z M 6.605469 13.875 L 7.5 13.875 L 8.3125 14.972656 L 7.09375 14.972656 C 6.769531 14.972656 6.484375 15.257812 6.484375 15.582031 C 6.484375 15.90625 6.769531 16.191406 7.09375 16.191406 L 28.726562 16.191406 C 29.050781 16.191406 29.335938 15.90625 29.335938 15.582031 C 29.335938 15.257812 29.050781 14.972656 28.726562 14.972656 L 24.828125 14.972656 L 26.25 13.875 L 29.210938 13.875 C 30.144531 13.875 30.917969 14.648438 30.917969 15.582031 C 30.917969 16.515625 30.144531 17.285156 29.210938 17.285156 L 6.605469 17.285156 C 5.671875 17.285156 4.902344 16.515625 4.902344 15.582031 C 4.902344 14.648438 5.671875 13.875 6.605469 13.875 Z M 6.605469 13.875 "
              fill-opacity="1" fill-rule="nonzero"/>
    </g>
    <path fill="#af6588"
          d="M 23.894531 24.671875 C 22.800781 24.671875 21.90625 25.566406 21.90625 26.660156 C 21.90625 27.757812 22.800781 28.648438 23.894531 28.648438 C 24.992188 28.648438 25.882812 27.757812 25.882812 26.660156 C 25.882812 25.566406 24.992188 24.671875 23.894531 24.671875 Z M 23.894531 27.636719 C 23.367188 27.636719 22.921875 27.1875 22.921875 26.660156 C 22.921875 26.132812 23.367188 25.6875 23.894531 25.6875 C 24.421875 25.6875 24.871094 26.132812 24.871094 26.660156 C 24.871094 27.1875 24.464844 27.636719 23.894531 27.636719 Z M 23.894531 27.636719 "
          fill-opacity="1" fill-rule="nonzero"/>
    <path fill="#af6588"
          d="M 23.367188 4.460938 L 24.546875 6.003906 L 25.355469 5.355469 L 23.570312 3.039062 L 21.21875 4.824219 L 21.828125 5.636719 Z M 23.367188 4.460938 "
          fill-opacity="1" fill-rule="nonzero"/>
    <path fill="#af6588"
          d="M 26.210938 11.441406 L 28.5625 9.613281 L 26.816406 7.300781 L 26.007812 7.910156 L 27.144531 9.453125 L 25.601562 10.628906 Z M 26.210938 11.441406 "
          fill-opacity="1" fill-rule="nonzero"/>
</svg>