<svg xmlns="http://www.w3.org/2000/svg" xmlns:xlink="http://www.w3.org/1999/xlink" width="290" zoomAndPan="magnify" viewBox="0 0 217.5 187.499995" height="250" preserveAspectRatio="xMidYMid meet" version="1.0"><defs><g/><clipPath id="31c8f0a3b8"><path d="M 2.8125 22 L 114 22 L 114 133.832031 L 2.8125 133.832031 Z M 2.8125 22 " clip-rule="nonzero"/></clipPath><clipPath id="e75c462d75"><path d="M 103 12.035156 L 214.496094 12.035156 L 214.496094 123 L 103 123 Z M 103 12.035156 " clip-rule="nonzero"/></clipPath></defs><g clip-path="url(#31c8f0a3b8)"><path fill="#ffffff" d="M 113.902344 45.253906 L 113.953125 23.070312 L 58.492188 22.957031 C 27.84375 22.898438 2.957031 47.671875 2.898438 78.304688 C 2.824219 108.941406 27.605469 133.832031 58.25 133.890625 C 80.976562 133.933594 100.550781 120.300781 109.144531 100.738281 L 83.054688 100.679688 C 76.949219 107.449219 68.132812 111.726562 58.292969 111.707031 C 39.917969 111.667969 25.046875 96.730469 25.089844 78.355469 C 25.117188 59.964844 40.0625 45.105469 58.4375 45.144531 Z M 113.902344 45.253906 " fill-opacity="1" fill-rule="nonzero"/></g><g clip-path="url(#e75c462d75)"><path fill="#ffffff" d="M 120.574219 100.664062 C 116.722656 109.433594 110.644531 116.996094 103.09375 122.664062 L 103.09375 122.816406 L 158.566406 122.933594 C 189.195312 123 214.078125 98.210938 214.152344 67.582031 C 214.210938 36.949219 189.441406 12.066406 158.804688 12 C 146.246094 11.964844 134.6875 16.121094 125.375 23.132812 L 125.339844 45.179688 L 133.980469 45.191406 C 140.097656 38.425781 148.910156 34.164062 158.75 34.179688 C 177.125 34.226562 192 49.15625 191.957031 67.53125 C 191.914062 85.921875 176.984375 100.789062 158.605469 100.738281 Z M 120.574219 100.664062 " fill-opacity="1" fill-rule="nonzero"/></g><g fill="#ffffff" fill-opacity="1"><g transform="translate(67.151994, 159.774821)"><g><path d="M 14.492188 -16.503906 L 14.492188 -20.460938 L 2.183594 -20.460938 L 2.183594 0 L 6.683594 0 L 6.683594 -8.253906 L 13.367188 -8.253906 L 13.367188 -12.207031 L 6.683594 -12.207031 L 6.683594 -16.503906 Z M 14.492188 -16.503906 "/></g></g></g><g fill="#ffffff" fill-opacity="1"><g transform="translate(81.440124, 159.774821)"><g><path d="M 4.261719 -15.925781 C 5.558594 -15.925781 6.648438 -17.015625 6.648438 -18.3125 C 6.648438 -19.644531 5.558594 -20.699219 4.261719 -20.699219 C 2.96875 -20.699219 1.875 -19.644531 1.875 -18.3125 C 1.875 -17.015625 2.96875 -15.925781 4.261719 -15.925781 Z M 2.082031 0 L 6.410156 0 L 6.410156 -13.640625 L 2.082031 -13.640625 Z M 2.082031 0 "/></g></g></g><g fill="#ffffff" fill-opacity="1"><g transform="translate(89.419614, 159.774821)"><g><path d="M 10.265625 -13.914062 C 8.695312 -13.914062 7.332031 -13.164062 6.378906 -11.96875 L 6.378906 -13.640625 L 2.011719 -13.640625 L 2.011719 0 L 6.378906 0 L 6.378906 -7.910156 C 6.378906 -9.140625 7.398438 -10.058594 8.660156 -10.058594 C 9.921875 -10.058594 10.808594 -9.140625 10.808594 -7.910156 L 10.808594 0 L 15.140625 0 L 15.140625 -8.628906 C 15.140625 -11.628906 12.957031 -13.914062 10.265625 -13.914062 Z M 10.265625 -13.914062 "/></g></g></g><g fill="#ffffff" fill-opacity="1"><g transform="translate(105.753785, 159.774821)"><g><path d="M 14.628906 -20.460938 L -0.171875 -20.460938 L -0.171875 -16.472656 L 5.011719 -16.472656 L 5.011719 0 L 9.480469 0 L 9.480469 -16.472656 L 14.628906 -16.472656 Z M 14.628906 -20.460938 "/></g></g></g><g fill="#ffffff" fill-opacity="1"><g transform="translate(119.666809, 159.774821)"><g><path d="M 8.117188 0.273438 C 12.242188 0.273438 14.527344 -1.875 14.527344 -5.21875 L 14.527344 -13.640625 L 10.195312 -13.640625 L 10.195312 -5.796875 C 10.195312 -4.5 9.308594 -3.582031 8.117188 -3.582031 C 6.957031 -3.582031 6.070312 -4.5 6.070312 -5.796875 L 6.070312 -13.640625 L 1.707031 -13.640625 L 1.707031 -5.21875 C 1.707031 -1.875 3.988281 0.273438 8.117188 0.273438 Z M 8.117188 0.273438 "/></g></g></g><g fill="#ffffff" fill-opacity="1"><g transform="translate(135.387172, 159.774821)"><g><path d="M 14.628906 -20.460938 L -0.171875 -20.460938 L -0.171875 -16.472656 L 5.011719 -16.472656 L 5.011719 0 L 9.480469 0 L 9.480469 -16.472656 L 14.628906 -16.472656 Z M 14.628906 -20.460938 "/></g></g></g></svg>