<svg xmlns="http://www.w3.org/2000/svg" xmlns:xlink="http://www.w3.org/1999/xlink" width="500" zoomAndPan="magnify" viewBox="0 0 375 374.999991" height="500" preserveAspectRatio="xMidYMid meet" version="1.0"><defs><g/><clipPath id="d97446c118"><path d="M 95.847656 115 L 193 115 L 193 212.007812 L 95.847656 212.007812 Z M 95.847656 115 " clip-rule="nonzero"/></clipPath><clipPath id="cb3d36a93a"><path d="M 182 106.367188 L 278.847656 106.367188 L 278.847656 203 L 182 203 Z M 182 106.367188 " clip-rule="nonzero"/></clipPath></defs><g clip-path="url(#d97446c118)"><path fill="#ffffff" d="M 192.179688 135.171875 L 192.226562 115.9375 L 144.132812 115.835938 C 117.554688 115.785156 95.976562 137.265625 95.921875 163.832031 C 95.859375 190.398438 117.347656 211.984375 143.921875 212.03125 C 163.628906 212.070312 180.605469 200.25 188.058594 183.285156 L 165.433594 183.234375 C 160.136719 189.101562 152.496094 192.8125 143.960938 192.796875 C 128.027344 192.765625 115.128906 179.808594 115.167969 163.875 C 115.191406 147.925781 128.152344 135.042969 144.085938 135.078125 Z M 192.179688 135.171875 " fill-opacity="1" fill-rule="nonzero"/></g><g clip-path="url(#cb3d36a93a)"><path fill="#ffffff" d="M 197.96875 183.21875 C 194.628906 190.824219 189.359375 197.382812 182.808594 202.296875 L 182.808594 202.433594 L 230.914062 202.53125 C 257.472656 202.589844 279.050781 181.09375 279.117188 154.535156 C 279.167969 127.96875 257.6875 106.390625 231.121094 106.335938 C 220.230469 106.304688 210.207031 109.910156 202.128906 115.988281 L 202.101562 135.105469 L 209.59375 135.117188 C 214.898438 129.25 222.539062 125.554688 231.074219 125.566406 C 247.007812 125.609375 259.90625 138.554688 259.871094 154.488281 C 259.832031 170.4375 246.886719 183.328125 230.949219 183.285156 Z M 197.96875 183.21875 " fill-opacity="1" fill-rule="nonzero"/></g><g fill="#ffffff" fill-opacity="1"><g transform="translate(133.816819, 248.033305)"><g><path d="M 14.875 -16.9375 L 14.875 -21 L 2.238281 -21 L 2.238281 0 L 6.859375 0 L 6.859375 -8.46875 L 13.71875 -8.46875 L 13.71875 -12.527344 L 6.859375 -12.527344 L 6.859375 -16.9375 Z M 14.875 -16.9375 "/></g></g></g><g fill="#ffffff" fill-opacity="1"><g transform="translate(148.479703, 248.033305)"><g><path d="M 4.375 -16.34375 C 5.703125 -16.34375 6.824219 -17.464844 6.824219 -18.792969 C 6.824219 -20.15625 5.703125 -21.242188 4.375 -21.242188 C 3.042969 -21.242188 1.925781 -20.15625 1.925781 -18.792969 C 1.925781 -17.464844 3.042969 -16.34375 4.375 -16.34375 Z M 2.136719 0 L 6.578125 0 L 6.578125 -14 L 2.136719 -14 Z M 2.136719 0 "/></g></g></g><g fill="#ffffff" fill-opacity="1"><g transform="translate(156.668482, 248.033305)"><g><path d="M 10.535156 -14.277344 C 8.925781 -14.277344 7.523438 -13.507812 6.542969 -12.285156 L 6.542969 -14 L 2.066406 -14 L 2.066406 0 L 6.542969 0 L 6.542969 -8.121094 C 6.542969 -9.378906 7.59375 -10.324219 8.890625 -10.324219 C 10.183594 -10.324219 11.09375 -9.378906 11.09375 -8.121094 L 11.09375 0 L 15.539062 0 L 15.539062 -8.855469 C 15.539062 -11.933594 13.296875 -14.277344 10.535156 -14.277344 Z M 10.535156 -14.277344 "/></g></g></g><g fill="#ffffff" fill-opacity="1"><g transform="translate(173.431072, 248.033305)"><g><path d="M 14.699219 -21 L 9.695312 -5.984375 L 4.691406 -21 L -0.453125 -21 L 7.105469 0 L 12.285156 0 L 19.84375 -21 Z M 14.699219 -21 "/></g></g></g><g fill="#ffffff" fill-opacity="1"><g transform="translate(192.258382, 248.033305)"><g><path d="M 4.375 -16.34375 C 5.703125 -16.34375 6.824219 -17.464844 6.824219 -18.792969 C 6.824219 -20.15625 5.703125 -21.242188 4.375 -21.242188 C 3.042969 -21.242188 1.925781 -20.15625 1.925781 -18.792969 C 1.925781 -17.464844 3.042969 -16.34375 4.375 -16.34375 Z M 2.136719 0 L 6.578125 0 L 6.578125 -14 L 2.136719 -14 Z M 2.136719 0 "/></g></g></g><g fill="#ffffff" fill-opacity="1"><g transform="translate(200.447161, 248.033305)"><g><path d="M 16.308594 -7.035156 C 16.308594 -11.410156 13.296875 -14.3125 8.785156 -14.3125 C 4.269531 -14.3125 1.085938 -11.375 1.085938 -7 C 1.085938 -2.625 4.234375 0.28125 8.925781 0.28125 C 12.808594 0.28125 15.398438 -1.785156 16.097656 -4.828125 L 11.792969 -4.828125 C 11.410156 -3.710938 10.394531 -3.042969 8.855469 -3.042969 C 6.824219 -3.042969 5.773438 -4.269531 5.597656 -6.265625 L 16.308594 -6.265625 Z M 8.855469 -10.882812 C 10.359375 -10.882812 11.234375 -10.183594 11.6875 -8.960938 L 5.878906 -8.960938 C 6.335938 -10.148438 7.28125 -10.882812 8.855469 -10.882812 Z M 8.855469 -10.882812 "/></g></g></g><g fill="#ffffff" fill-opacity="1"><g transform="translate(217.244746, 248.033305)"><g><path d="M 19.109375 -14 L 16.726562 -4.691406 L 13.71875 -14 L 10.21875 -14 L 7.246094 -4.722656 L 4.898438 -14 L -0.175781 -14 L 4.65625 0 L 9.34375 0 L 11.96875 -7.910156 L 14.59375 0 L 19.316406 0 L 24.078125 -14 Z M 19.109375 -14 "/></g></g></g><g fill="#ffffff" fill-opacity="1"><g transform="translate(100.56771, 265.758146)"><g/></g></g><g fill="#ffffff" fill-opacity="1"><g transform="translate(103.708334, 265.758146)"><g><path d="M 4.625 -2.078125 L 2.3125 -2.078125 L 1.625 0 L 0.15625 0 L 2.640625 -6.90625 L 4.375 -6.90625 L 6.8125 0 L 5.3125 0 Z M 3.484375 -5.71875 L 2.65625 -3.171875 L 4.28125 -3.171875 Z M 3.484375 -5.71875 "/></g></g></g><g fill="#ffffff" fill-opacity="1"><g transform="translate(111.665666, 265.758146)"><g><path d="M 6.953125 0 L 5.0625 0 L 2.21875 -5.234375 C 2.25 -4.609375 2.265625 -3.90625 2.265625 -3.125 L 2.265625 0 L 0.890625 0 L 0.890625 -6.90625 L 2.71875 -6.90625 L 5.625 -1.5625 C 5.582031 -2.175781 5.5625 -2.898438 5.5625 -3.734375 L 5.5625 -6.90625 L 6.9375 -6.90625 Z M 6.953125 0 "/></g></g></g><g fill="#ffffff" fill-opacity="1"><g transform="translate(120.462663, 265.758146)"><g><path d="M 4.625 -2.078125 L 2.3125 -2.078125 L 1.625 0 L 0.15625 0 L 2.640625 -6.90625 L 4.375 -6.90625 L 6.8125 0 L 5.3125 0 Z M 3.484375 -5.71875 L 2.65625 -3.171875 L 4.28125 -3.171875 Z M 3.484375 -5.71875 "/></g></g></g><g fill="#ffffff" fill-opacity="1"><g transform="translate(128.419995, 265.758146)"><g><path d="M 5.875 -1.15625 L 5.875 0 L 0.890625 0 L 0.890625 -6.90625 L 2.265625 -6.90625 L 2.265625 -1.15625 Z M 5.875 -1.15625 "/></g></g></g><g fill="#ffffff" fill-opacity="1"><g transform="translate(135.657607, 265.758146)"><g><path d="M 3.96875 -2.671875 L 3.96875 0 L 2.59375 0 L 2.59375 -2.671875 L 0.15625 -6.90625 L 1.71875 -6.90625 L 3.328125 -3.890625 L 4.890625 -6.90625 L 6.40625 -6.90625 Z M 3.96875 -2.671875 "/></g></g></g><g fill="#ffffff" fill-opacity="1"><g transform="translate(143.115129, 265.758146)"><g><path d="M 5.953125 -1.09375 L 5.953125 0 L 0.5 0 L 0.5 -1.046875 L 4.265625 -5.8125 L 0.78125 -5.8125 L 0.78125 -6.90625 L 5.90625 -6.90625 L 5.90625 -5.828125 L 2.171875 -1.09375 Z M 5.953125 -1.09375 "/></g></g></g><g fill="#ffffff" fill-opacity="1"><g transform="translate(150.532677, 265.758146)"><g><path d="M 5.875 -1.09375 L 5.875 0 L 0.890625 0 L 0.890625 -6.90625 L 5.765625 -6.90625 L 5.765625 -5.8125 L 2.265625 -5.8125 L 2.265625 -4 L 5.515625 -4 L 5.515625 -2.90625 L 2.265625 -2.90625 L 2.265625 -1.09375 Z M 5.875 -1.09375 "/></g></g></g><g fill="#ffffff" fill-opacity="1"><g transform="translate(157.890246, 265.758146)"><g><path d="M 1.84375 -1.296875 L 0.84375 1.21875 L -0.28125 1.21875 L 0.515625 -1.40625 L 1.84375 -1.40625 Z M 1.84375 -1.296875 "/></g></g></g><g fill="#ffffff" fill-opacity="1"><g transform="translate(161.53928, 265.758146)"><g/></g></g><g fill="#ffffff" fill-opacity="1"><g transform="translate(164.678515, 265.758146)"><g><path d="M 3.921875 -7.046875 C 4.972656 -7.046875 5.800781 -6.71875 6.40625 -6.0625 C 7.019531 -5.414062 7.328125 -4.546875 7.328125 -3.453125 C 7.328125 -2.359375 7.019531 -1.484375 6.40625 -0.828125 C 5.800781 -0.179688 4.972656 0.140625 3.921875 0.140625 C 2.867188 0.140625 2.035156 -0.179688 1.421875 -0.828125 C 0.816406 -1.484375 0.515625 -2.359375 0.515625 -3.453125 C 0.515625 -4.546875 0.816406 -5.414062 1.421875 -6.0625 C 2.023438 -6.71875 2.859375 -7.046875 3.921875 -7.046875 Z M 2.46875 -1.5625 C 2.820312 -1.113281 3.304688 -0.890625 3.921875 -0.890625 C 4.535156 -0.890625 5.015625 -1.113281 5.359375 -1.5625 C 5.703125 -2.019531 5.875 -2.648438 5.875 -3.453125 C 5.875 -4.253906 5.703125 -4.878906 5.359375 -5.328125 C 5.015625 -5.785156 4.535156 -6.015625 3.921875 -6.015625 C 3.296875 -6.015625 2.8125 -5.785156 2.46875 -5.328125 C 2.125 -4.878906 1.953125 -4.25 1.953125 -3.4375 C 1.953125 -2.632812 2.125 -2.007812 2.46875 -1.5625 Z M 2.46875 -1.5625 "/></g></g></g><g fill="#ffffff" fill-opacity="1"><g transform="translate(173.525501, 265.758146)"><g><path d="M 4.28125 -6.84375 C 4.832031 -6.789062 5.28125 -6.582031 5.625 -6.21875 C 5.96875 -5.851562 6.140625 -5.363281 6.140625 -4.75 C 6.140625 -4.144531 5.960938 -3.660156 5.609375 -3.296875 C 5.253906 -2.929688 4.8125 -2.71875 4.28125 -2.65625 C 3.988281 -2.613281 3.65625 -2.59375 3.28125 -2.59375 L 2.265625 -2.59375 L 2.265625 0 L 0.890625 0 L 0.890625 -6.90625 L 3.28125 -6.90625 C 3.664062 -6.90625 4 -6.882812 4.28125 -6.84375 Z M 3.875 -3.71875 C 4.414062 -3.800781 4.6875 -4.144531 4.6875 -4.75 C 4.6875 -5.351562 4.414062 -5.695312 3.875 -5.78125 C 3.71875 -5.800781 3.515625 -5.8125 3.265625 -5.8125 L 2.265625 -5.8125 L 2.265625 -3.6875 L 3.265625 -3.6875 C 3.515625 -3.6875 3.71875 -3.695312 3.875 -3.71875 Z M 3.875 -3.71875 "/></g></g></g><g fill="#ffffff" fill-opacity="1"><g transform="translate(180.953042, 265.758146)"><g><path d="M 6.296875 -5.8125 L 3.953125 -5.8125 L 3.953125 0 L 2.5625 0 L 2.5625 -5.8125 L 0.234375 -5.8125 L 0.234375 -6.90625 L 6.296875 -6.90625 Z M 6.296875 -5.8125 "/></g></g></g><g fill="#ffffff" fill-opacity="1"><g transform="translate(188.380584, 265.758146)"><g><path d="M 2.265625 0 L 0.890625 0 L 0.890625 -6.90625 L 2.265625 -6.90625 Z M 2.265625 0 "/></g></g></g><g fill="#ffffff" fill-opacity="1"><g transform="translate(192.499432, 265.758146)"><g><path d="M 8.328125 -6.90625 L 8.328125 0 L 6.953125 0 L 6.953125 -3.1875 C 6.953125 -4.28125 6.957031 -5.066406 6.96875 -5.546875 C 6.78125 -4.742188 6.566406 -3.960938 6.328125 -3.203125 L 5.359375 0 L 3.859375 0 L 2.875 -3.203125 C 2.613281 -4.054688 2.40625 -4.835938 2.25 -5.546875 C 2.257812 -5.054688 2.265625 -4.269531 2.265625 -3.1875 L 2.265625 0 L 0.890625 0 L 0.890625 -6.90625 L 3.0625 -6.90625 L 4.625 -1.265625 L 6.1875 -6.90625 Z M 8.328125 -6.90625 "/></g></g></g><g fill="#ffffff" fill-opacity="1"><g transform="translate(202.665882, 265.758146)"><g><path d="M 2.265625 0 L 0.890625 0 L 0.890625 -6.90625 L 2.265625 -6.90625 Z M 2.265625 0 "/></g></g></g><g fill="#ffffff" fill-opacity="1"><g transform="translate(206.784725, 265.758146)"><g><path d="M 5.953125 -1.09375 L 5.953125 0 L 0.5 0 L 0.5 -1.046875 L 4.265625 -5.8125 L 0.78125 -5.8125 L 0.78125 -6.90625 L 5.90625 -6.90625 L 5.90625 -5.828125 L 2.171875 -1.09375 Z M 5.953125 -1.09375 "/></g></g></g><g fill="#ffffff" fill-opacity="1"><g transform="translate(214.20227, 265.758146)"><g><path d="M 5.875 -1.09375 L 5.875 0 L 0.890625 0 L 0.890625 -6.90625 L 5.765625 -6.90625 L 5.765625 -5.8125 L 2.265625 -5.8125 L 2.265625 -4 L 5.515625 -4 L 5.515625 -2.90625 L 2.265625 -2.90625 L 2.265625 -1.09375 Z M 5.875 -1.09375 "/></g></g></g><g fill="#ffffff" fill-opacity="1"><g transform="translate(221.559836, 265.758146)"><g><path d="M 1.84375 -1.296875 L 0.84375 1.21875 L -0.28125 1.21875 L 0.515625 -1.40625 L 1.84375 -1.40625 Z M 1.84375 -1.296875 "/></g></g></g><g fill="#ffffff" fill-opacity="1"><g transform="translate(225.208864, 265.758146)"><g/></g></g><g fill="#ffffff" fill-opacity="1"><g transform="translate(228.348093, 265.758146)"><g><path d="M 6.296875 -5.8125 L 3.953125 -5.8125 L 3.953125 0 L 2.5625 0 L 2.5625 -5.8125 L 0.234375 -5.8125 L 0.234375 -6.90625 L 6.296875 -6.90625 Z M 6.296875 -5.8125 "/></g></g></g><g fill="#ffffff" fill-opacity="1"><g transform="translate(235.775628, 265.758146)"><g><path d="M 6.875 -6.90625 L 6.875 0 L 5.5 0 L 5.5 -2.828125 L 2.265625 -2.828125 L 2.265625 0 L 0.890625 0 L 0.890625 -6.90625 L 2.265625 -6.90625 L 2.265625 -3.9375 L 5.5 -3.9375 L 5.5 -6.90625 Z M 6.875 -6.90625 "/></g></g></g><g fill="#ffffff" fill-opacity="1"><g transform="translate(244.492661, 265.758146)"><g><path d="M 5.890625 -1.734375 C 5.972656 -0.921875 6.140625 -0.34375 6.390625 0 L 4.875 0 C 4.707031 -0.457031 4.597656 -0.972656 4.546875 -1.546875 C 4.453125 -2.316406 4.140625 -2.722656 3.609375 -2.765625 C 3.484375 -2.773438 3.300781 -2.78125 3.0625 -2.78125 L 2.265625 -2.78125 L 2.265625 0 L 0.890625 0 L 0.890625 -6.90625 L 3.40625 -6.90625 C 3.789062 -6.90625 4.125 -6.882812 4.40625 -6.84375 C 4.957031 -6.78125 5.394531 -6.597656 5.71875 -6.296875 C 6.050781 -6.003906 6.21875 -5.578125 6.21875 -5.015625 C 6.21875 -4.585938 6.097656 -4.226562 5.859375 -3.9375 C 5.617188 -3.65625 5.289062 -3.457031 4.875 -3.34375 C 5.46875 -3.113281 5.804688 -2.578125 5.890625 -1.734375 Z M 2.265625 -3.8125 L 3.21875 -3.8125 C 3.488281 -3.8125 3.675781 -3.8125 3.78125 -3.8125 C 4.4375 -3.875 4.765625 -4.207031 4.765625 -4.8125 C 4.765625 -5.125 4.6875 -5.351562 4.53125 -5.5 C 4.375 -5.65625 4.148438 -5.753906 3.859375 -5.796875 C 3.703125 -5.804688 3.507812 -5.8125 3.28125 -5.8125 L 2.265625 -5.8125 Z M 2.265625 -3.8125 "/></g></g></g><g fill="#ffffff" fill-opacity="1"><g transform="translate(252.23008, 265.758146)"><g><path d="M 2.265625 0 L 0.890625 0 L 0.890625 -6.90625 L 2.265625 -6.90625 Z M 2.265625 0 "/></g></g></g><g fill="#ffffff" fill-opacity="1"><g transform="translate(256.348923, 265.758146)"><g><path d="M 4.484375 0 L 2.765625 0 L 0.3125 -6.90625 L 1.8125 -6.90625 L 3.65625 -1.0625 L 5.515625 -6.90625 L 6.984375 -6.90625 Z M 4.484375 0 "/></g></g></g><g fill="#ffffff" fill-opacity="1"><g transform="translate(264.426208, 265.758146)"><g><path d="M 5.875 -1.09375 L 5.875 0 L 0.890625 0 L 0.890625 -6.90625 L 5.765625 -6.90625 L 5.765625 -5.8125 L 2.265625 -5.8125 L 2.265625 -4 L 5.515625 -4 L 5.515625 -2.90625 L 2.265625 -2.90625 L 2.265625 -1.09375 Z M 5.875 -1.09375 "/></g></g></g><g fill="#ffffff" fill-opacity="1"><g transform="translate(271.783774, 265.758146)"><g><path d="M 1.875 -1.96875 L 0.765625 -1.96875 L 0.640625 -6.90625 L 1.984375 -6.90625 Z M 1.3125 -1.421875 C 1.539062 -1.421875 1.726562 -1.347656 1.875 -1.203125 C 2.019531 -1.054688 2.09375 -0.867188 2.09375 -0.640625 C 2.09375 -0.410156 2.019531 -0.222656 1.875 -0.078125 C 1.726562 0.0664062 1.539062 0.140625 1.3125 0.140625 C 1.082031 0.140625 0.894531 0.0664062 0.75 -0.078125 C 0.601562 -0.222656 0.53125 -0.410156 0.53125 -0.640625 C 0.53125 -0.867188 0.601562 -1.054688 0.75 -1.203125 C 0.894531 -1.347656 1.082031 -1.421875 1.3125 -1.421875 Z M 1.3125 -1.421875 "/></g></g></g></svg>