<svg xmlns="http://www.w3.org/2000/svg" xmlns:xlink="http://www.w3.org/1999/xlink" width="145" zoomAndPan="magnify" viewBox="0 0 108.75 30.000001" height="40" preserveAspectRatio="xMidYMid meet" version="1.0"><defs><g/><clipPath id="01abe6e924"><path d="M 2.648438 3 L 28 3 L 28 27.933594 L 2.648438 27.933594 Z M 2.648438 3 " clip-rule="nonzero"/></clipPath><clipPath id="17a70e2d22"><path d="M 24 1.105469 L 49.101562 1.105469 L 49.101562 26 L 24 26 Z M 24 1.105469 " clip-rule="nonzero"/></clipPath></defs><g clip-path="url(#01abe6e924)"><path fill="#ffffff" d="M 27.097656 8.417969 L 27.109375 3.535156 L 14.902344 3.511719 C 8.15625 3.496094 2.679688 8.949219 2.667969 15.691406 C 2.652344 22.433594 8.105469 27.914062 14.851562 27.925781 C 19.851562 27.933594 24.160156 24.933594 26.050781 20.628906 L 20.308594 20.617188 C 18.964844 22.105469 17.027344 23.046875 14.859375 23.042969 C 10.816406 23.035156 7.542969 19.746094 7.550781 15.703125 C 7.558594 11.65625 10.847656 8.386719 14.890625 8.394531 Z M 27.097656 8.417969 " fill-opacity="1" fill-rule="nonzero"/></g><g clip-path="url(#17a70e2d22)"><path fill="#ffffff" d="M 28.566406 20.613281 C 27.71875 22.542969 26.382812 24.207031 24.71875 25.453125 L 24.71875 25.488281 L 36.929688 25.515625 C 43.667969 25.527344 49.144531 20.074219 49.164062 13.332031 C 49.175781 6.589844 43.722656 1.113281 36.980469 1.097656 C 34.21875 1.089844 31.671875 2.007812 29.625 3.550781 L 29.617188 8.402344 L 31.519531 8.40625 C 32.863281 6.914062 34.804688 5.976562 36.96875 5.980469 C 41.011719 5.992188 44.285156 9.277344 44.277344 13.320312 C 44.269531 17.367188 40.980469 20.640625 36.9375 20.628906 Z M 28.566406 20.613281 " fill-opacity="1" fill-rule="nonzero"/></g><g fill="#ffffff" fill-opacity="1"><g transform="translate(51.878268, 18.239128)"><g><path d="M 7.03125 -8.007812 L 7.03125 -9.925781 L 1.058594 -9.925781 L 1.058594 0 L 3.242188 0 L 3.242188 -4.003906 L 6.484375 -4.003906 L 6.484375 -5.921875 L 3.242188 -5.921875 L 3.242188 -8.007812 Z M 7.03125 -8.007812 "/></g></g></g><g fill="#ffffff" fill-opacity="1"><g transform="translate(58.810316, 18.239128)"><g><path d="M 2.066406 -7.726562 C 2.695312 -7.726562 3.226562 -8.257812 3.226562 -8.882812 C 3.226562 -9.53125 2.695312 -10.042969 2.066406 -10.042969 C 1.4375 -10.042969 0.910156 -9.53125 0.910156 -8.882812 C 0.910156 -8.257812 1.4375 -7.726562 2.066406 -7.726562 Z M 1.007812 0 L 3.109375 0 L 3.109375 -6.617188 L 1.007812 -6.617188 Z M 1.007812 0 "/></g></g></g><g fill="#ffffff" fill-opacity="1"><g transform="translate(62.681656, 18.239128)"><g><path d="M 4.980469 -6.75 C 4.21875 -6.75 3.558594 -6.386719 3.09375 -5.808594 L 3.09375 -6.617188 L 0.976562 -6.617188 L 0.976562 0 L 3.09375 0 L 3.09375 -3.839844 C 3.09375 -4.433594 3.589844 -4.878906 4.203125 -4.878906 C 4.816406 -4.878906 5.246094 -4.433594 5.246094 -3.839844 L 5.246094 0 L 7.347656 0 L 7.347656 -4.1875 C 7.347656 -5.640625 6.289062 -6.75 4.980469 -6.75 Z M 4.980469 -6.75 "/></g></g></g><g fill="#ffffff" fill-opacity="1"><g transform="translate(70.606364, 18.239128)"><g><path d="M 6.949219 -9.925781 L 4.582031 -2.828125 L 2.21875 -9.925781 L -0.214844 -9.925781 L 3.359375 0 L 5.808594 0 L 9.382812 -9.925781 Z M 6.949219 -9.925781 "/></g></g></g><g fill="#ffffff" fill-opacity="1"><g transform="translate(79.507192, 18.239128)"><g><path d="M 2.066406 -7.726562 C 2.695312 -7.726562 3.226562 -8.257812 3.226562 -8.882812 C 3.226562 -9.53125 2.695312 -10.042969 2.066406 -10.042969 C 1.4375 -10.042969 0.910156 -9.53125 0.910156 -8.882812 C 0.910156 -8.257812 1.4375 -7.726562 2.066406 -7.726562 Z M 1.007812 0 L 3.109375 0 L 3.109375 -6.617188 L 1.007812 -6.617188 Z M 1.007812 0 "/></g></g></g><g fill="#ffffff" fill-opacity="1"><g transform="translate(83.378532, 18.239128)"><g><path d="M 7.710938 -3.324219 C 7.710938 -5.394531 6.289062 -6.765625 4.152344 -6.765625 C 2.019531 -6.765625 0.511719 -5.378906 0.511719 -3.308594 C 0.511719 -1.242188 2.003906 0.132812 4.21875 0.132812 C 6.054688 0.132812 7.28125 -0.84375 7.609375 -2.285156 L 5.574219 -2.285156 C 5.394531 -1.753906 4.914062 -1.4375 4.1875 -1.4375 C 3.226562 -1.4375 2.730469 -2.019531 2.648438 -2.960938 L 7.710938 -2.960938 Z M 4.1875 -5.144531 C 4.898438 -5.144531 5.3125 -4.816406 5.527344 -4.234375 L 2.78125 -4.234375 C 2.996094 -4.796875 3.441406 -5.144531 4.1875 -5.144531 Z M 4.1875 -5.144531 "/></g></g></g><g fill="#ffffff" fill-opacity="1"><g transform="translate(91.319784, 18.239128)"><g><path d="M 9.035156 -6.617188 L 7.910156 -2.21875 L 6.484375 -6.617188 L 4.832031 -6.617188 L 3.425781 -2.234375 L 2.316406 -6.617188 L -0.0820312 -6.617188 L 2.199219 0 L 4.417969 0 L 5.660156 -3.738281 L 6.898438 0 L 9.132812 0 L 11.382812 -6.617188 Z M 9.035156 -6.617188 "/></g></g></g></svg>