<svg xmlns="http://www.w3.org/2000/svg" xmlns:xlink="http://www.w3.org/1999/xlink" width="380" zoomAndPan="magnify" viewBox="0 0 285 74.999997" height="100" preserveAspectRatio="xMidYMid meet" version="1.0"><defs><g/><clipPath id="a824ba698e"><path d="M 2.175781 1.800781 L 283.519531 1.800781 L 283.519531 72.898438 L 2.175781 72.898438 Z M 2.175781 1.800781 " clip-rule="nonzero"/></clipPath><clipPath id="2a0235c645"><path d="M 23.175781 1.800781 L 262.425781 1.800781 C 267.996094 1.800781 273.335938 4.011719 277.273438 7.949219 C 281.210938 11.890625 283.425781 17.230469 283.425781 22.800781 L 283.425781 51.898438 C 283.425781 57.46875 281.210938 62.8125 277.273438 66.75 C 273.335938 70.6875 267.996094 72.898438 262.425781 72.898438 L 23.175781 72.898438 C 17.605469 72.898438 12.265625 70.6875 8.324219 66.75 C 4.386719 62.8125 2.175781 57.46875 2.175781 51.898438 L 2.175781 22.800781 C 2.175781 17.230469 4.386719 11.890625 8.324219 7.949219 C 12.265625 4.011719 17.605469 1.800781 23.175781 1.800781 Z M 23.175781 1.800781 " clip-rule="nonzero"/></clipPath><clipPath id="9b8a156ba9"><path d="M 212.773438 5.136719 L 277.273438 5.136719 L 277.273438 69.636719 L 212.773438 69.636719 Z M 212.773438 5.136719 " clip-rule="nonzero"/></clipPath><clipPath id="8684ffcce3"><path d="M 228 53 L 274 53 L 274 69.636719 L 228 69.636719 Z M 228 53 " clip-rule="nonzero"/></clipPath><clipPath id="0bbc1237a8"><path d="M 212.773438 37.390625 C 212.773438 35.273438 212.980469 33.175781 213.394531 31.097656 C 213.808594 29.019531 214.417969 27.003906 215.230469 25.046875 C 216.039062 23.089844 217.035156 21.230469 218.210938 19.472656 C 219.386719 17.710938 220.722656 16.082031 222.222656 14.582031 C 223.71875 13.085938 225.347656 11.75 227.109375 10.574219 C 228.871094 9.394531 230.726562 8.402344 232.683594 7.59375 C 234.640625 6.78125 236.65625 6.171875 238.734375 5.757812 C 240.8125 5.34375 242.910156 5.136719 245.027344 5.136719 C 247.144531 5.136719 249.242188 5.34375 251.320312 5.757812 C 253.394531 6.171875 255.414062 6.78125 257.371094 7.59375 C 259.324219 8.402344 261.183594 9.394531 262.945312 10.574219 C 264.707031 11.75 266.335938 13.085938 267.832031 14.582031 C 269.332031 16.082031 270.667969 17.710938 271.84375 19.472656 C 273.019531 21.230469 274.015625 23.089844 274.824219 25.046875 C 275.632812 27.003906 276.246094 29.019531 276.660156 31.097656 C 277.074219 33.175781 277.28125 35.273438 277.28125 37.390625 C 277.28125 39.507812 277.074219 41.605469 276.660156 43.683594 C 276.246094 45.757812 275.632812 47.777344 274.824219 49.730469 C 274.015625 51.6875 273.019531 53.546875 271.84375 55.308594 C 270.667969 57.070312 269.332031 58.699219 267.832031 60.195312 C 266.335938 61.691406 264.707031 63.03125 262.945312 64.207031 C 261.183594 65.382812 259.324219 66.375 257.371094 67.1875 C 255.414062 67.996094 253.394531 68.609375 251.320312 69.023438 C 249.242188 69.433594 247.144531 69.640625 245.027344 69.640625 C 242.910156 69.640625 240.8125 69.433594 238.734375 69.023438 C 236.65625 68.609375 234.640625 67.996094 232.683594 67.1875 C 230.726562 66.375 228.871094 65.382812 227.109375 64.207031 C 225.347656 63.03125 223.71875 61.691406 222.222656 60.195312 C 220.722656 58.699219 219.386719 57.070312 218.210938 55.308594 C 217.035156 53.546875 216.039062 51.6875 215.230469 49.730469 C 214.417969 47.777344 213.808594 45.757812 213.394531 43.683594 C 212.980469 41.605469 212.773438 39.507812 212.773438 37.390625 Z M 212.773438 37.390625 " clip-rule="nonzero"/></clipPath></defs><g clip-path="url(#a824ba698e)"><g clip-path="url(#2a0235c645)"><path fill="#3498db" d="M 2.175781 1.800781 L 283.519531 1.800781 L 283.519531 72.898438 L 2.175781 72.898438 Z M 2.175781 1.800781 " fill-opacity="1" fill-rule="nonzero"/></g></g><g clip-path="url(#9b8a156ba9)"><path fill="#e9e9e9" d="M 277.28125 37.390625 C 277.28125 38.445312 277.226562 39.5 277.125 40.550781 C 277.019531 41.601562 276.867188 42.644531 276.660156 43.683594 C 276.453125 44.71875 276.199219 45.742188 275.890625 46.753906 C 275.585938 47.761719 275.230469 48.757812 274.824219 49.730469 C 274.421875 50.707031 273.96875 51.660156 273.472656 52.59375 C 272.972656 53.523438 272.429688 54.429688 271.84375 55.308594 C 271.257812 56.1875 270.628906 57.035156 269.957031 57.851562 C 269.289062 58.667969 268.578125 59.449219 267.832031 60.195312 C 267.085938 60.941406 266.304688 61.652344 265.488281 62.320312 C 264.671875 62.992188 263.824219 63.621094 262.945312 64.207031 C 262.066406 64.792969 261.164062 65.335938 260.230469 65.832031 C 259.300781 66.332031 258.34375 66.78125 257.371094 67.1875 C 256.394531 67.589844 255.398438 67.945312 254.390625 68.253906 C 253.378906 68.558594 252.355469 68.816406 251.320312 69.023438 C 250.285156 69.226562 249.238281 69.382812 248.1875 69.488281 C 247.136719 69.589844 246.082031 69.640625 245.027344 69.640625 C 243.972656 69.640625 242.917969 69.589844 241.867188 69.488281 C 240.816406 69.382812 239.769531 69.226562 238.734375 69.023438 C 237.699219 68.816406 236.675781 68.558594 235.664062 68.253906 C 234.652344 67.945312 233.660156 67.589844 232.683594 67.1875 C 231.707031 66.78125 230.753906 66.332031 229.824219 65.832031 C 228.890625 65.335938 227.988281 64.792969 227.109375 64.207031 C 226.230469 63.621094 225.382812 62.992188 224.566406 62.320312 C 223.75 61.652344 222.96875 60.941406 222.222656 60.195312 C 221.472656 59.449219 220.765625 58.667969 220.097656 57.851562 C 219.425781 57.035156 218.796875 56.1875 218.210938 55.308594 C 217.625 54.429688 217.082031 53.523438 216.582031 52.59375 C 216.085938 51.660156 215.632812 50.707031 215.230469 49.730469 C 214.824219 48.757812 214.46875 47.761719 214.164062 46.753906 C 213.855469 45.742188 213.601562 44.71875 213.394531 43.683594 C 213.1875 42.644531 213.035156 41.601562 212.929688 40.550781 C 212.828125 39.5 212.773438 38.445312 212.773438 37.390625 C 212.773438 36.332031 212.828125 35.28125 212.929688 34.226562 C 213.035156 33.175781 213.1875 32.132812 213.394531 31.097656 C 213.601562 30.0625 213.855469 29.039062 214.164062 28.027344 C 214.46875 27.015625 214.824219 26.023438 215.230469 25.046875 C 215.632812 24.070312 216.085938 23.117188 216.582031 22.1875 C 217.082031 21.253906 217.625 20.351562 218.210938 19.472656 C 218.796875 18.59375 219.425781 17.746094 220.097656 16.929688 C 220.765625 16.113281 221.472656 15.332031 222.222656 14.582031 C 222.96875 13.835938 223.75 13.128906 224.566406 12.457031 C 225.382812 11.789062 226.230469 11.160156 227.109375 10.574219 C 227.988281 9.984375 228.890625 9.445312 229.824219 8.945312 C 230.753906 8.449219 231.707031 7.996094 232.683594 7.59375 C 233.660156 7.1875 234.652344 6.832031 235.664062 6.527344 C 236.675781 6.21875 237.699219 5.964844 238.734375 5.757812 C 239.769531 5.550781 240.816406 5.394531 241.867188 5.292969 C 242.917969 5.1875 243.972656 5.136719 245.027344 5.136719 C 246.082031 5.136719 247.136719 5.1875 248.1875 5.292969 C 249.238281 5.394531 250.285156 5.550781 251.320312 5.757812 C 252.355469 5.964844 253.378906 6.21875 254.390625 6.527344 C 255.398438 6.832031 256.394531 7.1875 257.371094 7.59375 C 258.34375 7.996094 259.300781 8.449219 260.230469 8.945312 C 261.164062 9.445312 262.066406 9.984375 262.945312 10.574219 C 263.824219 11.160156 264.671875 11.789062 265.488281 12.457031 C 266.304688 13.128906 267.085938 13.835938 267.832031 14.582031 C 268.578125 15.332031 269.289062 16.113281 269.957031 16.929688 C 270.628906 17.746094 271.257812 18.59375 271.84375 19.472656 C 272.429688 20.351562 272.972656 21.253906 273.472656 22.1875 C 273.96875 23.117188 274.421875 24.070312 274.824219 25.046875 C 275.230469 26.023438 275.585938 27.015625 275.890625 28.027344 C 276.199219 29.039062 276.453125 30.0625 276.660156 31.097656 C 276.867188 32.132812 277.019531 33.175781 277.125 34.226562 C 277.226562 35.28125 277.28125 36.332031 277.28125 37.390625 Z M 277.28125 37.390625 " fill-opacity="1" fill-rule="nonzero"/><path fill="#9df4e6" d="M 277.28125 37.390625 C 277.28125 38.445312 277.226562 39.5 277.125 40.550781 C 277.019531 41.601562 276.867188 42.644531 276.660156 43.683594 C 276.453125 44.71875 276.199219 45.742188 275.890625 46.753906 C 275.585938 47.761719 275.230469 48.757812 274.824219 49.730469 C 274.421875 50.707031 273.96875 51.660156 273.472656 52.59375 C 272.972656 53.523438 272.429688 54.429688 271.84375 55.308594 C 271.257812 56.1875 270.628906 57.035156 269.957031 57.851562 C 269.289062 58.667969 268.578125 59.449219 267.832031 60.195312 C 267.085938 60.941406 266.304688 61.652344 265.488281 62.320312 C 264.671875 62.992188 263.824219 63.621094 262.945312 64.207031 C 262.066406 64.792969 261.164062 65.335938 260.230469 65.832031 C 259.300781 66.332031 258.34375 66.78125 257.371094 67.1875 C 256.394531 67.589844 255.398438 67.945312 254.390625 68.253906 C 253.378906 68.558594 252.355469 68.816406 251.320312 69.023438 C 250.285156 69.226562 249.238281 69.382812 248.1875 69.488281 C 247.136719 69.589844 246.082031 69.640625 245.027344 69.640625 C 243.972656 69.640625 242.917969 69.589844 241.867188 69.488281 C 240.816406 69.382812 239.769531 69.226562 238.734375 69.023438 C 237.699219 68.816406 236.675781 68.558594 235.664062 68.253906 C 234.652344 67.945312 233.660156 67.589844 232.683594 67.1875 C 231.707031 66.78125 230.753906 66.332031 229.824219 65.832031 C 228.890625 65.335938 227.988281 64.792969 227.109375 64.207031 C 226.230469 63.621094 225.382812 62.992188 224.566406 62.320312 C 223.75 61.652344 222.96875 60.941406 222.222656 60.195312 C 221.472656 59.449219 220.765625 58.667969 220.097656 57.851562 C 219.425781 57.035156 218.796875 56.1875 218.210938 55.308594 C 217.625 54.429688 217.082031 53.523438 216.582031 52.59375 C 216.085938 51.660156 215.632812 50.707031 215.230469 49.730469 C 214.824219 48.757812 214.46875 47.761719 214.164062 46.753906 C 213.855469 45.742188 213.601562 44.71875 213.394531 43.683594 C 213.1875 42.644531 213.035156 41.601562 212.929688 40.550781 C 212.828125 39.5 212.773438 38.445312 212.773438 37.390625 C 212.773438 36.332031 212.828125 35.28125 212.929688 34.226562 C 213.035156 33.175781 213.1875 32.132812 213.394531 31.097656 C 213.601562 30.0625 213.855469 29.039062 214.164062 28.027344 C 214.46875 27.015625 214.824219 26.023438 215.230469 25.046875 C 215.632812 24.070312 216.085938 23.117188 216.582031 22.1875 C 217.082031 21.253906 217.625 20.351562 218.210938 19.472656 C 218.796875 18.59375 219.425781 17.746094 220.097656 16.929688 C 220.765625 16.113281 221.472656 15.332031 222.222656 14.582031 C 222.96875 13.835938 223.75 13.128906 224.566406 12.457031 C 225.382812 11.789062 226.230469 11.160156 227.109375 10.574219 C 227.988281 9.984375 228.890625 9.445312 229.824219 8.945312 C 230.753906 8.449219 231.707031 7.996094 232.683594 7.59375 C 233.660156 7.1875 234.652344 6.832031 235.664062 6.527344 C 236.675781 6.21875 237.699219 5.964844 238.734375 5.757812 C 239.769531 5.550781 240.816406 5.394531 241.867188 5.292969 C 242.917969 5.1875 243.972656 5.136719 245.027344 5.136719 C 246.082031 5.136719 247.136719 5.1875 248.1875 5.292969 C 249.238281 5.394531 250.285156 5.550781 251.320312 5.757812 C 252.355469 5.964844 253.378906 6.21875 254.390625 6.527344 C 255.398438 6.832031 256.394531 7.1875 257.371094 7.59375 C 258.34375 7.996094 259.300781 8.449219 260.230469 8.945312 C 261.164062 9.445312 262.066406 9.984375 262.945312 10.574219 C 263.824219 11.160156 264.671875 11.789062 265.488281 12.457031 C 266.304688 13.128906 267.085938 13.835938 267.832031 14.582031 C 268.578125 15.332031 269.289062 16.113281 269.957031 16.929688 C 270.628906 17.746094 271.257812 18.59375 271.84375 19.472656 C 272.429688 20.351562 272.972656 21.253906 273.472656 22.1875 C 273.96875 23.117188 274.421875 24.070312 274.824219 25.046875 C 275.230469 26.023438 275.585938 27.015625 275.890625 28.027344 C 276.199219 29.039062 276.453125 30.0625 276.660156 31.097656 C 276.867188 32.132812 277.019531 33.175781 277.125 34.226562 C 277.226562 35.28125 277.28125 36.332031 277.28125 37.390625 Z M 277.28125 37.390625 " fill-opacity="1" fill-rule="nonzero"/></g><g clip-path="url(#8684ffcce3)"><g clip-path="url(#0bbc1237a8)"><path fill="#ffc089" d="M 273.609375 70.683594 C 273.609375 71.257812 273.574219 71.832031 273.5 72.402344 C 273.429688 72.976562 273.320312 73.542969 273.175781 74.105469 C 273.03125 74.671875 272.851562 75.226562 272.636719 75.777344 C 272.417969 76.328125 272.171875 76.867188 271.886719 77.398438 C 271.601562 77.929688 271.285156 78.449219 270.9375 78.957031 C 270.585938 79.464844 270.207031 79.957031 269.792969 80.433594 C 269.382812 80.914062 268.941406 81.375 268.46875 81.816406 C 268 82.261719 267.5 82.6875 266.976562 83.09375 C 266.453125 83.5 265.902344 83.886719 265.332031 84.25 C 264.757812 84.617188 264.160156 84.957031 263.546875 85.277344 C 262.929688 85.597656 262.292969 85.890625 261.636719 86.164062 C 260.984375 86.433594 260.316406 86.679688 259.628906 86.898438 C 258.945312 87.121094 258.246094 87.3125 257.535156 87.480469 C 256.828125 87.648438 256.109375 87.785156 255.382812 87.898438 C 254.652344 88.011719 253.921875 88.09375 253.183594 88.152344 C 252.445312 88.207031 251.703125 88.234375 250.960938 88.234375 C 250.222656 88.234375 249.480469 88.207031 248.742188 88.152344 C 248.003906 88.09375 247.273438 88.011719 246.542969 87.898438 C 245.816406 87.785156 245.097656 87.648438 244.386719 87.480469 C 243.679688 87.3125 242.980469 87.121094 242.296875 86.898438 C 241.609375 86.679688 240.941406 86.433594 240.285156 86.164062 C 239.632812 85.890625 238.996094 85.597656 238.378906 85.277344 C 237.761719 84.957031 237.167969 84.617188 236.59375 84.25 C 236.023438 83.886719 235.472656 83.5 234.949219 83.09375 C 234.421875 82.6875 233.925781 82.261719 233.457031 81.816406 C 232.984375 81.375 232.542969 80.914062 232.132812 80.433594 C 231.71875 79.957031 231.339844 79.464844 230.988281 78.957031 C 230.640625 78.449219 230.324219 77.929688 230.039062 77.398438 C 229.753906 76.867188 229.503906 76.328125 229.289062 75.777344 C 229.074219 75.226562 228.894531 74.671875 228.75 74.105469 C 228.605469 73.542969 228.496094 72.976562 228.425781 72.402344 C 228.351562 71.832031 228.316406 71.257812 228.316406 70.683594 C 228.316406 70.109375 228.351562 69.535156 228.425781 68.960938 C 228.496094 68.390625 228.605469 67.824219 228.75 67.257812 C 228.894531 66.695312 229.074219 66.136719 229.289062 65.585938 C 229.503906 65.039062 229.753906 64.496094 230.039062 63.964844 C 230.324219 63.433594 230.640625 62.914062 230.988281 62.410156 C 231.339844 61.902344 231.71875 61.410156 232.132812 60.929688 C 232.542969 60.453125 232.984375 59.992188 233.457031 59.546875 C 233.925781 59.101562 234.421875 58.679688 234.949219 58.273438 C 235.472656 57.863281 236.023438 57.480469 236.59375 57.113281 C 237.167969 56.75 237.761719 56.40625 238.378906 56.089844 C 238.996094 55.769531 239.632812 55.472656 240.285156 55.203125 C 240.941406 54.933594 241.609375 54.6875 242.296875 54.464844 C 242.980469 54.246094 243.679688 54.054688 244.386719 53.886719 C 245.097656 53.71875 245.816406 53.578125 246.542969 53.46875 C 247.273438 53.355469 248.003906 53.269531 248.742188 53.214844 C 249.480469 53.160156 250.222656 53.128906 250.960938 53.128906 C 251.703125 53.128906 252.445312 53.160156 253.183594 53.214844 C 253.921875 53.269531 254.652344 53.355469 255.382812 53.46875 C 256.109375 53.578125 256.828125 53.71875 257.535156 53.886719 C 258.246094 54.054688 258.945312 54.246094 259.628906 54.464844 C 260.316406 54.6875 260.984375 54.933594 261.636719 55.203125 C 262.292969 55.472656 262.929688 55.769531 263.546875 56.089844 C 264.160156 56.40625 264.757812 56.75 265.332031 57.113281 C 265.902344 57.480469 266.453125 57.863281 266.976562 58.273438 C 267.5 58.679688 268 59.101562 268.46875 59.546875 C 268.941406 59.992188 269.382812 60.453125 269.792969 60.929688 C 270.207031 61.410156 270.585938 61.902344 270.9375 62.410156 C 271.285156 62.914062 271.601562 63.433594 271.886719 63.964844 C 272.171875 64.496094 272.417969 65.039062 272.636719 65.585938 C 272.851562 66.136719 273.03125 66.695312 273.175781 67.257812 C 273.320312 67.824219 273.429688 68.390625 273.5 68.960938 C 273.574219 69.535156 273.609375 70.109375 273.609375 70.683594 Z M 273.609375 70.683594 " fill-opacity="1" fill-rule="nonzero"/></g></g><path fill="#d37a7a" d="M 244.148438 44.527344 L 250.425781 44.527344 C 250.628906 44.527344 250.828125 44.566406 251.015625 44.644531 C 251.207031 44.722656 251.375 44.835938 251.519531 44.980469 C 251.664062 45.125 251.777344 45.292969 251.855469 45.484375 C 251.933594 45.671875 251.972656 45.871094 251.972656 46.074219 L 251.972656 53.910156 C 251.972656 54.214844 251.941406 54.519531 251.882812 54.824219 C 251.824219 55.125 251.734375 55.417969 251.617188 55.703125 C 251.5 55.984375 251.355469 56.257812 251.183594 56.511719 C 251.011719 56.769531 250.816406 57.003906 250.601562 57.222656 C 250.382812 57.4375 250.144531 57.632812 249.890625 57.804688 C 249.632812 57.976562 249.363281 58.121094 249.082031 58.238281 C 248.796875 58.355469 248.503906 58.445312 248.203125 58.503906 C 247.898438 58.5625 247.59375 58.59375 247.289062 58.59375 C 246.980469 58.59375 246.675781 58.5625 246.375 58.503906 C 246.070312 58.445312 245.777344 58.355469 245.496094 58.238281 C 245.210938 58.121094 244.941406 57.976562 244.683594 57.804688 C 244.429688 57.632812 244.191406 57.441406 243.972656 57.222656 C 243.757812 57.003906 243.5625 56.769531 243.390625 56.511719 C 243.21875 56.257812 243.078125 55.984375 242.957031 55.703125 C 242.839844 55.417969 242.75 55.125 242.691406 54.824219 C 242.632812 54.519531 242.601562 54.214844 242.601562 53.910156 L 242.601562 46.074219 C 242.601562 45.871094 242.640625 45.671875 242.71875 45.484375 C 242.796875 45.292969 242.910156 45.125 243.054688 44.980469 C 243.199219 44.835938 243.367188 44.722656 243.558594 44.644531 C 243.746094 44.566406 243.945312 44.527344 244.148438 44.527344 Z M 244.148438 44.527344 " fill-opacity="1" fill-rule="nonzero"/><path fill="#e58b89" d="M 236.777344 39.214844 C 236.777344 39.566406 236.710938 39.902344 236.574219 40.226562 C 236.441406 40.550781 236.25 40.835938 236.003906 41.082031 C 235.757812 41.328125 235.472656 41.519531 235.148438 41.652344 C 234.824219 41.789062 234.488281 41.855469 234.136719 41.855469 C 232.679688 41.855469 231.5 40.113281 231.5 38.65625 C 231.5 37.199219 232.679688 36.578125 234.136719 36.578125 C 234.488281 36.578125 234.824219 36.644531 235.148438 36.777344 C 235.472656 36.910156 235.757812 37.101562 236.003906 37.347656 C 236.25 37.597656 236.441406 37.882812 236.574219 38.207031 C 236.710938 38.527344 236.777344 38.867188 236.777344 39.214844 Z M 236.777344 39.214844 " fill-opacity="1" fill-rule="nonzero"/><path fill="#e58b89" d="M 259.800781 38.777344 C 259.800781 40.320312 258.550781 42.160156 257.007812 42.160156 C 256.640625 42.15625 256.289062 42.082031 255.949219 41.9375 C 255.613281 41.792969 255.3125 41.59375 255.054688 41.332031 C 254.796875 41.070312 254.597656 40.769531 254.460938 40.429688 C 254.320312 40.089844 254.25 39.734375 254.25 39.367188 C 254.25 39 254.320312 38.648438 254.460938 38.308594 C 254.597656 37.96875 254.796875 37.667969 255.054688 37.40625 C 255.3125 37.144531 255.613281 36.941406 255.949219 36.800781 C 256.289062 36.65625 256.640625 36.582031 257.007812 36.578125 C 258.550781 36.578125 259.800781 37.234375 259.800781 38.777344 Z M 259.800781 38.777344 " fill-opacity="1" fill-rule="nonzero"/><path fill="#fda297" d="M 245.304688 53.980469 C 235.796875 55.199219 233.738281 40.441406 233.601562 34.835938 C 233.449219 28.375 238.839844 23.132812 245.304688 23.132812 C 251.765625 23.132812 257.160156 28.375 257.003906 34.835938 C 256.867188 40.441406 256.070312 52.601562 245.304688 53.980469 Z M 245.304688 53.980469 " fill-opacity="1" fill-rule="nonzero"/><path fill="#18008b" d="M 233.894531 38.59375 C 233.894531 38.59375 231.695312 31.3125 232.386719 28.285156 C 233.078125 25.257812 236.640625 20.464844 244.863281 20.464844 C 253.371094 20.464844 255.816406 26.519531 257.007812 29.128906 C 258.199219 31.734375 256.710938 39.367188 256.710938 39.367188 C 256.710938 39.367188 255.515625 31.886719 253.828125 29.777344 C 252.144531 27.671875 243.210938 25.292969 243.097656 25.292969 C 242.984375 25.292969 234.570312 29.855469 234.570312 29.855469 Z M 233.894531 38.59375 " fill-opacity="1" fill-rule="nonzero"/><path fill="#18008b" d="M 239.257812 38.738281 C 239.257812 39.058594 239.203125 39.332031 239.09375 39.558594 C 238.988281 39.78125 238.859375 39.894531 238.707031 39.894531 C 238.554688 39.894531 238.425781 39.78125 238.316406 39.558594 C 238.210938 39.332031 238.15625 39.058594 238.15625 38.738281 C 238.15625 38.417969 238.210938 38.144531 238.316406 37.917969 C 238.425781 37.691406 238.554688 37.578125 238.707031 37.578125 C 238.859375 37.578125 238.988281 37.691406 239.09375 37.917969 C 239.203125 38.144531 239.257812 38.417969 239.257812 38.738281 Z M 239.257812 38.738281 " fill-opacity="1" fill-rule="nonzero"/><path fill="#18008b" d="M 247.582031 38.738281 C 247.582031 39.058594 247.527344 39.332031 247.421875 39.558594 C 247.3125 39.78125 247.183594 39.894531 247.03125 39.894531 C 246.878906 39.894531 246.75 39.78125 246.644531 39.558594 C 246.535156 39.332031 246.480469 39.058594 246.480469 38.738281 C 246.480469 38.417969 246.535156 38.144531 246.644531 37.917969 C 246.75 37.691406 246.878906 37.578125 247.03125 37.578125 C 247.183594 37.578125 247.3125 37.691406 247.421875 37.917969 C 247.527344 38.144531 247.582031 38.417969 247.582031 38.738281 Z M 247.582031 38.738281 " fill-opacity="1" fill-rule="nonzero"/><path fill="#18008b" d="M 243.128906 45.714844 C 243.121094 45.714844 243.109375 45.714844 243.097656 45.714844 C 242.839844 45.714844 242.597656 45.648438 242.375 45.519531 C 242.148438 45.390625 241.972656 45.210938 241.847656 44.988281 C 241.402344 44.105469 242.132812 42.839844 242.21875 42.695312 C 242.265625 42.621094 242.332031 42.574219 242.421875 42.550781 C 242.507812 42.53125 242.589844 42.542969 242.664062 42.589844 C 242.742188 42.636719 242.792969 42.703125 242.816406 42.789062 C 242.835938 42.875 242.828125 42.957031 242.78125 43.035156 C 242.617188 43.3125 242.195312 44.21875 242.433594 44.691406 C 242.472656 44.769531 242.589844 45 243.164062 45.058594 C 243.25 45.070312 243.320312 45.109375 243.375 45.171875 C 243.429688 45.238281 243.453125 45.316406 243.449219 45.402344 C 243.445312 45.488281 243.414062 45.558594 243.351562 45.621094 C 243.289062 45.679688 243.214844 45.710938 243.128906 45.714844 Z M 243.128906 45.714844 " fill-opacity="1" fill-rule="nonzero"/><path fill="#18008b" d="M 236.121094 37.214844 C 235.957031 37.214844 235.855469 37.136719 235.804688 36.984375 C 235.757812 36.832031 235.800781 36.707031 235.929688 36.617188 C 235.988281 36.574219 237.34375 35.660156 239.601562 36.140625 C 239.6875 36.164062 239.757812 36.210938 239.804688 36.285156 C 239.851562 36.359375 239.867188 36.441406 239.847656 36.527344 C 239.828125 36.617188 239.78125 36.683594 239.707031 36.734375 C 239.636719 36.785156 239.554688 36.800781 239.464844 36.785156 C 238.363281 36.492188 237.308594 36.617188 236.304688 37.15625 C 236.25 37.195312 236.1875 37.214844 236.121094 37.214844 Z M 236.121094 37.214844 " fill-opacity="1" fill-rule="nonzero"/><path fill="#18008b" d="M 249.621094 37.214844 C 249.550781 37.214844 249.492188 37.195312 249.433594 37.15625 C 248.429688 36.617188 247.375 36.496094 246.273438 36.785156 C 246.183594 36.808594 246.097656 36.792969 246.019531 36.742188 C 245.941406 36.695312 245.890625 36.625 245.871094 36.53125 C 245.855469 36.441406 245.871094 36.359375 245.921875 36.28125 C 245.972656 36.203125 246.046875 36.15625 246.136719 36.140625 C 248.398438 35.660156 249.75 36.578125 249.808594 36.617188 C 249.941406 36.707031 249.984375 36.832031 249.933594 36.984375 C 249.886719 37.136719 249.78125 37.214844 249.621094 37.214844 Z M 249.621094 37.214844 " fill-opacity="1" fill-rule="nonzero"/><path fill="#18008b" d="M 245.023438 49.332031 C 244.933594 49.332031 244.855469 49.296875 244.792969 49.234375 C 244.726562 49.167969 244.695312 49.09375 244.695312 49 C 244.695312 48.910156 244.726562 48.832031 244.792969 48.769531 C 244.855469 48.703125 244.933594 48.671875 245.023438 48.671875 C 245.160156 48.671875 245.289062 48.644531 245.414062 48.59375 C 245.539062 48.542969 245.648438 48.46875 245.742188 48.375 C 245.839844 48.277344 245.914062 48.167969 245.964844 48.042969 C 246.015625 47.917969 246.042969 47.789062 246.042969 47.65625 C 246.039062 47.5625 246.070312 47.480469 246.132812 47.414062 C 246.199219 47.347656 246.277344 47.3125 246.371094 47.3125 C 246.464844 47.3125 246.542969 47.347656 246.609375 47.414062 C 246.671875 47.480469 246.703125 47.5625 246.699219 47.65625 C 246.699219 47.878906 246.65625 48.089844 246.570312 48.296875 C 246.488281 48.5 246.367188 48.683594 246.207031 48.839844 C 246.050781 48.996094 245.871094 49.117188 245.664062 49.203125 C 245.460938 49.289062 245.246094 49.328125 245.023438 49.332031 Z M 245.023438 49.332031 " fill-opacity="1" fill-rule="nonzero"/><path fill="#ffffff" d="M 237.050781 42.726562 C 236.734375 42.726562 236.417969 42.695312 236.109375 42.632812 C 235.796875 42.570312 235.496094 42.480469 235.203125 42.359375 C 234.910156 42.238281 234.632812 42.089844 234.367188 41.914062 C 234.105469 41.738281 233.863281 41.539062 233.636719 41.3125 C 233.414062 41.089844 233.214844 40.84375 233.039062 40.582031 C 232.859375 40.316406 232.710938 40.039062 232.589844 39.746094 C 232.46875 39.453125 232.378906 39.152344 232.316406 38.839844 C 232.253906 38.53125 232.222656 38.21875 232.222656 37.898438 C 232.222656 37.582031 232.253906 37.269531 232.316406 36.957031 C 232.378906 36.648438 232.46875 36.34375 232.589844 36.050781 C 232.710938 35.761719 232.859375 35.480469 233.039062 35.21875 C 233.214844 34.953125 233.414062 34.710938 233.636719 34.488281 C 233.863281 34.261719 234.105469 34.0625 234.367188 33.886719 C 234.632812 33.710938 234.910156 33.5625 235.203125 33.441406 C 235.496094 33.320312 235.796875 33.226562 236.109375 33.164062 C 236.417969 33.105469 236.734375 33.074219 237.050781 33.074219 C 237.367188 33.074219 237.679688 33.105469 237.992188 33.164062 C 238.304688 33.226562 238.605469 33.320312 238.898438 33.441406 C 239.191406 33.5625 239.46875 33.710938 239.730469 33.886719 C 239.996094 34.0625 240.238281 34.261719 240.464844 34.488281 C 240.6875 34.710938 240.886719 34.953125 241.0625 35.21875 C 241.238281 35.480469 241.390625 35.761719 241.511719 36.050781 C 241.632812 36.34375 241.722656 36.648438 241.785156 36.957031 C 241.847656 37.269531 241.878906 37.582031 241.878906 37.898438 C 241.878906 38.214844 241.847656 38.53125 241.785156 38.839844 C 241.722656 39.152344 241.628906 39.453125 241.507812 39.746094 C 241.386719 40.039062 241.238281 40.316406 241.0625 40.582031 C 240.886719 40.84375 240.6875 41.085938 240.460938 41.3125 C 240.238281 41.535156 239.996094 41.734375 239.730469 41.910156 C 239.46875 42.085938 239.191406 42.238281 238.898438 42.359375 C 238.605469 42.480469 238.300781 42.570312 237.992188 42.632812 C 237.679688 42.695312 237.367188 42.726562 237.050781 42.726562 Z M 237.050781 33.730469 C 236.777344 33.730469 236.503906 33.757812 236.238281 33.8125 C 235.96875 33.863281 235.707031 33.945312 235.457031 34.046875 C 235.203125 34.152344 234.960938 34.28125 234.734375 34.433594 C 234.507812 34.585938 234.296875 34.757812 234.101562 34.953125 C 233.910156 35.144531 233.734375 35.355469 233.585938 35.585938 C 233.433594 35.8125 233.304688 36.050781 233.199219 36.304688 C 233.09375 36.558594 233.015625 36.820312 232.960938 37.085938 C 232.90625 37.355469 232.882812 37.625 232.882812 37.902344 C 232.882812 38.175781 232.90625 38.445312 232.960938 38.714844 C 233.015625 38.980469 233.09375 39.242188 233.199219 39.496094 C 233.304688 39.75 233.433594 39.988281 233.585938 40.214844 C 233.734375 40.445312 233.910156 40.65625 234.101562 40.847656 C 234.296875 41.042969 234.507812 41.214844 234.734375 41.367188 C 234.960938 41.519531 235.203125 41.648438 235.457031 41.753906 C 235.707031 41.855469 235.96875 41.9375 236.238281 41.988281 C 236.507812 42.042969 236.777344 42.070312 237.050781 42.070312 C 237.324219 42.070312 237.597656 42.042969 237.863281 41.988281 C 238.132812 41.9375 238.394531 41.855469 238.644531 41.753906 C 238.898438 41.648438 239.140625 41.519531 239.367188 41.367188 C 239.59375 41.214844 239.804688 41.042969 240 40.847656 C 240.191406 40.65625 240.367188 40.445312 240.515625 40.214844 C 240.667969 39.988281 240.796875 39.75 240.902344 39.496094 C 241.007812 39.242188 241.085938 38.980469 241.140625 38.714844 C 241.191406 38.445312 241.21875 38.171875 241.21875 37.898438 C 241.21875 37.625 241.191406 37.355469 241.140625 37.085938 C 241.085938 36.820312 241.007812 36.558594 240.902344 36.304688 C 240.796875 36.050781 240.667969 35.8125 240.515625 35.585938 C 240.363281 35.355469 240.191406 35.148438 239.996094 34.953125 C 239.804688 34.757812 239.59375 34.585938 239.367188 34.433594 C 239.136719 34.28125 238.898438 34.152344 238.644531 34.050781 C 238.394531 33.945312 238.132812 33.863281 237.863281 33.8125 C 237.59375 33.757812 237.324219 33.730469 237.050781 33.730469 Z M 237.050781 33.730469 " fill-opacity="1" fill-rule="nonzero"/><path fill="#ffffff" d="M 248.6875 42.726562 C 248.371094 42.726562 248.058594 42.695312 247.746094 42.632812 C 247.4375 42.570312 247.132812 42.480469 246.839844 42.359375 C 246.546875 42.238281 246.269531 42.089844 246.007812 41.914062 C 245.742188 41.738281 245.5 41.539062 245.273438 41.3125 C 245.050781 41.089844 244.851562 40.84375 244.675781 40.582031 C 244.5 40.316406 244.351562 40.039062 244.230469 39.746094 C 244.109375 39.453125 244.015625 39.152344 243.953125 38.839844 C 243.890625 38.53125 243.863281 38.21875 243.863281 37.898438 C 243.863281 37.582031 243.890625 37.269531 243.953125 36.957031 C 244.015625 36.648438 244.109375 36.34375 244.230469 36.050781 C 244.351562 35.761719 244.5 35.480469 244.675781 35.21875 C 244.851562 34.953125 245.050781 34.710938 245.273438 34.488281 C 245.5 34.261719 245.742188 34.0625 246.007812 33.886719 C 246.269531 33.710938 246.546875 33.5625 246.839844 33.441406 C 247.132812 33.320312 247.4375 33.226562 247.746094 33.164062 C 248.058594 33.105469 248.371094 33.074219 248.6875 33.074219 C 249.003906 33.074219 249.320312 33.105469 249.628906 33.164062 C 249.941406 33.226562 250.242188 33.320312 250.535156 33.441406 C 250.828125 33.5625 251.105469 33.710938 251.371094 33.886719 C 251.632812 34.0625 251.878906 34.261719 252.101562 34.488281 C 252.324219 34.710938 252.527344 34.953125 252.703125 35.21875 C 252.878906 35.480469 253.027344 35.761719 253.148438 36.050781 C 253.269531 36.34375 253.359375 36.648438 253.421875 36.957031 C 253.484375 37.269531 253.515625 37.582031 253.515625 37.898438 C 253.515625 38.214844 253.484375 38.53125 253.421875 38.839844 C 253.359375 39.152344 253.269531 39.453125 253.144531 39.746094 C 253.023438 40.039062 252.875 40.316406 252.699219 40.582031 C 252.523438 40.84375 252.324219 41.085938 252.101562 41.3125 C 251.875 41.535156 251.632812 41.734375 251.367188 41.910156 C 251.105469 42.085938 250.828125 42.238281 250.535156 42.359375 C 250.242188 42.480469 249.941406 42.570312 249.628906 42.632812 C 249.320312 42.695312 249.003906 42.726562 248.6875 42.726562 Z M 248.6875 33.730469 C 248.414062 33.730469 248.144531 33.757812 247.875 33.8125 C 247.605469 33.863281 247.347656 33.945312 247.09375 34.046875 C 246.839844 34.152344 246.601562 34.28125 246.371094 34.433594 C 246.144531 34.585938 245.933594 34.757812 245.742188 34.953125 C 245.546875 35.144531 245.375 35.355469 245.222656 35.585938 C 245.070312 35.8125 244.941406 36.050781 244.835938 36.304688 C 244.730469 36.558594 244.652344 36.820312 244.597656 37.085938 C 244.546875 37.355469 244.519531 37.625 244.519531 37.902344 C 244.519531 38.175781 244.546875 38.445312 244.597656 38.714844 C 244.652344 38.980469 244.730469 39.242188 244.835938 39.496094 C 244.941406 39.75 245.070312 39.988281 245.222656 40.214844 C 245.375 40.445312 245.546875 40.65625 245.742188 40.847656 C 245.933594 41.042969 246.144531 41.214844 246.371094 41.367188 C 246.601562 41.519531 246.839844 41.648438 247.09375 41.753906 C 247.347656 41.855469 247.605469 41.9375 247.875 41.988281 C 248.144531 42.042969 248.414062 42.070312 248.6875 42.070312 C 248.960938 42.070312 249.234375 42.042969 249.503906 41.988281 C 249.769531 41.9375 250.03125 41.855469 250.285156 41.753906 C 250.535156 41.648438 250.777344 41.519531 251.003906 41.367188 C 251.234375 41.214844 251.441406 41.042969 251.636719 40.847656 C 251.832031 40.65625 252.003906 40.445312 252.15625 40.214844 C 252.308594 39.988281 252.4375 39.75 252.539062 39.496094 C 252.644531 39.242188 252.722656 38.980469 252.777344 38.714844 C 252.832031 38.445312 252.859375 38.171875 252.859375 37.898438 C 252.855469 37.625 252.832031 37.355469 252.777344 37.085938 C 252.722656 36.820312 252.644531 36.558594 252.539062 36.304688 C 252.433594 36.050781 252.304688 35.8125 252.152344 35.585938 C 252 35.355469 251.828125 35.148438 251.636719 34.953125 C 251.441406 34.757812 251.230469 34.585938 251.003906 34.433594 C 250.777344 34.28125 250.535156 34.152344 250.28125 34.050781 C 250.03125 33.945312 249.769531 33.863281 249.5 33.8125 C 249.234375 33.757812 248.960938 33.730469 248.6875 33.730469 Z M 248.6875 33.730469 " fill-opacity="1" fill-rule="nonzero"/><path fill="#ffffff" d="M 244.238281 38.957031 C 244.144531 38.957031 244.070312 38.925781 244.003906 38.859375 C 243.941406 38.796875 243.90625 38.71875 243.90625 38.628906 C 243.90625 38.492188 243.882812 38.359375 243.828125 38.234375 C 243.777344 38.105469 243.703125 37.996094 243.605469 37.898438 C 243.507812 37.800781 243.398438 37.726562 243.273438 37.675781 C 243.144531 37.621094 243.015625 37.597656 242.878906 37.597656 C 242.742188 37.597656 242.609375 37.621094 242.484375 37.675781 C 242.355469 37.726562 242.246094 37.800781 242.148438 37.898438 C 242.050781 37.996094 241.976562 38.105469 241.925781 38.234375 C 241.871094 38.359375 241.847656 38.492188 241.847656 38.628906 C 241.84375 38.714844 241.808594 38.789062 241.746094 38.851562 C 241.683594 38.914062 241.605469 38.945312 241.519531 38.945312 C 241.429688 38.945312 241.351562 38.914062 241.289062 38.851562 C 241.226562 38.789062 241.191406 38.714844 241.1875 38.628906 C 241.1875 38.402344 241.230469 38.1875 241.316406 37.980469 C 241.402344 37.773438 241.523438 37.589844 241.683594 37.433594 C 241.839844 37.273438 242.023438 37.152344 242.230469 37.066406 C 242.4375 36.980469 242.652344 36.9375 242.878906 36.9375 C 243.101562 36.9375 243.316406 36.980469 243.523438 37.066406 C 243.730469 37.152344 243.914062 37.273438 244.070312 37.433594 C 244.230469 37.589844 244.351562 37.773438 244.4375 37.980469 C 244.523438 38.1875 244.566406 38.402344 244.566406 38.628906 C 244.566406 38.71875 244.535156 38.796875 244.46875 38.859375 C 244.40625 38.925781 244.328125 38.957031 244.238281 38.957031 Z M 244.238281 38.957031 " fill-opacity="1" fill-rule="nonzero"/><path fill="#555ce4" d="M 257.339844 26.40625 C 257.339844 26.40625 257.910156 23.433594 252.796875 20.828125 C 247.71875 18.242188 241.578125 19.042969 238.082031 20.195312 C 235.40625 21.078125 220.164062 27.003906 232.679688 30.085938 C 234.171875 30.453125 236.855469 30.453125 239.683594 30.25 C 239.1875 30.542969 238.917969 30.804688 238.96875 31 C 239.109375 31.535156 241.621094 31.34375 244.578125 30.570312 C 246.652344 30.027344 248.390625 29.34375 249.199219 28.796875 C 249.445312 28.722656 249.6875 28.636719 249.921875 28.53125 C 250.5 30.714844 254.582031 33.535156 255.5 33.1875 C 256.421875 32.84375 261.59375 28.992188 257.339844 26.40625 Z M 257.339844 26.40625 " fill-opacity="1" fill-rule="nonzero"/><g fill="#ffffff" fill-opacity="1"><g transform="translate(15.392806, 46.060059)"><g><path d="M 3.90625 0.25 C 3.40625 -0.25 3.132812 -0.988281 3.09375 -1.96875 C 3.320312 -2.195312 3.625 -2.394531 4 -2.5625 C 4.375 -2.726562 4.800781 -2.820312 5.28125 -2.84375 C 5.820312 -2.300781 6.113281 -1.53125 6.15625 -0.53125 C 5.925781 -0.300781 5.613281 -0.117188 5.21875 0.015625 C 4.820312 0.148438 4.382812 0.226562 3.90625 0.25 Z M 4.78125 -20.046875 C 5.21875 -20.046875 5.613281 -19.957031 5.96875 -19.78125 C 6.320312 -19.601562 6.550781 -19.367188 6.65625 -19.078125 L 5.78125 -6.40625 C 5.570312 -6.300781 5.289062 -6.25 4.9375 -6.25 C 4.769531 -6.25 4.585938 -6.25 4.390625 -6.25 C 4.191406 -6.25 4.019531 -6.269531 3.875 -6.3125 L 2.84375 -18.421875 C 2.84375 -18.671875 2.867188 -18.914062 2.921875 -19.15625 C 2.972656 -19.394531 3.03125 -19.617188 3.09375 -19.828125 C 3.34375 -19.890625 3.640625 -19.941406 3.984375 -19.984375 C 4.328125 -20.023438 4.59375 -20.046875 4.78125 -20.046875 Z M 4.78125 -20.046875 "/></g></g></g><g fill="#ffffff" fill-opacity="1"><g transform="translate(24.872761, 46.060059)"><g><path d="M 4.75 -18.265625 C 5.1875 -18.390625 5.550781 -18.453125 5.84375 -18.453125 C 5.863281 -18.222656 5.875 -17.992188 5.875 -17.765625 C 5.875 -17.535156 5.875 -17.273438 5.875 -16.984375 L 5.90625 -16.984375 L 5.5625 -0.375 C 5.5625 0.457031 5.550781 1.289062 5.53125 2.125 C 5.507812 2.957031 5.5 3.789062 5.5 4.625 L 5.53125 4.59375 C 5.507812 4.882812 5.492188 5.179688 5.484375 5.484375 C 5.472656 5.785156 5.445312 6.050781 5.40625 6.28125 C 5.320312 6.300781 5.273438 6.3125 5.265625 6.3125 C 5.253906 6.3125 5.25 6.3125 5.25 6.3125 C 5.25 6.3125 5.238281 6.304688 5.21875 6.296875 C 5.195312 6.285156 5.144531 6.28125 5.0625 6.28125 C 4.894531 6.28125 4.742188 6.273438 4.609375 6.265625 C 4.472656 6.253906 4.351562 6.238281 4.25 6.21875 C 3.976562 6.175781 3.695312 6.15625 3.40625 6.15625 C 3.113281 6.15625 2.820312 6.132812 2.53125 6.09375 C 2.445312 5.84375 2.398438 5.566406 2.390625 5.265625 C 2.378906 4.960938 2.375 4.613281 2.375 4.21875 L 2.375 3.96875 L 1.9375 -13.109375 C 1.9375 -13.191406 1.929688 -13.269531 1.921875 -13.34375 C 1.910156 -13.414062 1.90625 -13.503906 1.90625 -13.609375 L 1.90625 -14.109375 C 1.90625 -14.585938 1.929688 -15.070312 1.984375 -15.5625 C 2.035156 -16.050781 2.125 -16.523438 2.25 -16.984375 Z M 4.75 -18.265625 "/></g></g></g><g fill="#ffffff" fill-opacity="1"><g transform="translate(32.193915, 46.060059)"><g><path d="M 5.21875 -14.671875 C 4.613281 -14.671875 3.988281 -14.617188 3.34375 -14.515625 C 2.695312 -14.410156 2.039062 -14.242188 1.375 -14.015625 L 1.375 -14.046875 C 1.375 -14.085938 1.382812 -14.15625 1.40625 -14.25 C 1.425781 -14.34375 1.457031 -14.460938 1.5 -14.609375 C 1.582031 -14.960938 1.664062 -15.335938 1.75 -15.734375 C 1.832031 -16.128906 1.914062 -16.515625 2 -16.890625 C 2.625 -17.285156 3.367188 -17.570312 4.234375 -17.75 C 5.097656 -17.925781 6 -18.015625 6.9375 -18.015625 C 8.050781 -18.015625 9.171875 -17.898438 10.296875 -17.671875 C 11.421875 -17.441406 12.421875 -17.148438 13.296875 -16.796875 C 13.984375 -14.566406 14.328125 -12.035156 14.328125 -9.203125 C 14.328125 -8.273438 14.269531 -7.347656 14.15625 -6.421875 C 14.039062 -5.492188 13.875 -4.625 13.65625 -3.8125 C 13.4375 -3 13.148438 -2.269531 12.796875 -1.625 C 12.441406 -0.976562 12.035156 -0.457031 11.578125 -0.0625 L 8.734375 -0.0625 C 8.609375 -0.0625 8.507812 -0.0820312 8.4375 -0.125 C 8.363281 -0.164062 8.296875 -0.21875 8.234375 -0.28125 C 9.171875 -1.675781 9.898438 -3.226562 10.421875 -4.9375 C 10.941406 -6.644531 11.203125 -8.347656 11.203125 -10.046875 C 11.203125 -10.460938 11.1875 -10.953125 11.15625 -11.515625 C 11.125 -12.078125 11.078125 -12.578125 11.015625 -13.015625 C 10.265625 -13.617188 9.394531 -14.046875 8.40625 -14.296875 C 7.425781 -14.546875 6.363281 -14.671875 5.21875 -14.671875 Z M 5.21875 -14.671875 "/></g></g></g><g fill="#ffffff" fill-opacity="1"><g transform="translate(47.368098, 46.060059)"><g><path d="M 6.03125 -18.296875 C 6.007812 -18.253906 5.992188 -18.164062 5.984375 -18.03125 C 5.972656 -17.894531 5.953125 -17.539062 5.921875 -16.96875 C 5.890625 -16.394531 5.84375 -15.507812 5.78125 -14.3125 C 5.71875 -13.113281 5.632812 -11.429688 5.53125 -9.265625 C 5.238281 -9.097656 4.976562 -8.960938 4.75 -8.859375 C 4.519531 -8.753906 4.296875 -8.679688 4.078125 -8.640625 C 3.859375 -8.597656 3.628906 -8.566406 3.390625 -8.546875 C 3.148438 -8.523438 2.882812 -8.503906 2.59375 -8.484375 L 2.625 -8.515625 L 2.59375 -8.515625 C 2.550781 -9.015625 2.507812 -9.472656 2.46875 -9.890625 C 2.425781 -10.304688 2.378906 -10.710938 2.328125 -11.109375 C 2.273438 -11.503906 2.226562 -11.910156 2.1875 -12.328125 C 2.144531 -12.742188 2.101562 -13.203125 2.0625 -13.703125 C 2.0625 -13.742188 2.054688 -13.800781 2.046875 -13.875 C 2.035156 -13.945312 2.03125 -14.003906 2.03125 -14.046875 C 1.96875 -14.609375 1.9375 -15.097656 1.9375 -15.515625 C 1.9375 -15.828125 1.953125 -16.125 1.984375 -16.40625 C 2.015625 -16.6875 2.082031 -16.953125 2.1875 -17.203125 Z M 6.03125 -18.296875 "/></g></g></g><g fill="#ffffff" fill-opacity="1"><g transform="translate(54.783104, 46.060059)"><g><path d="M 4.625 -23.078125 C 4.851562 -23.078125 5.007812 -23.035156 5.09375 -22.953125 C 5.175781 -22.867188 5.238281 -22.773438 5.28125 -22.671875 L 4.8125 -17.609375 C 5.5625 -17.710938 6.269531 -17.800781 6.9375 -17.875 C 7.613281 -17.945312 8.191406 -17.984375 8.671875 -17.984375 C 9.273438 -17.984375 9.878906 -17.941406 10.484375 -17.859375 C 11.085938 -17.773438 11.660156 -17.632812 12.203125 -17.4375 C 12.742188 -17.238281 13.25 -16.976562 13.71875 -16.65625 C 14.1875 -16.332031 14.597656 -15.929688 14.953125 -15.453125 L 15.015625 -10.765625 C 15.015625 -9.828125 14.832031 -8.820312 14.46875 -7.75 C 14.101562 -6.6875 13.578125 -5.65625 12.890625 -4.65625 C 12.203125 -3.65625 11.378906 -2.722656 10.421875 -1.859375 C 9.460938 -0.992188 8.382812 -0.289062 7.1875 0.25 C 6.6875 -0.0390625 6.285156 -0.34375 5.984375 -0.65625 C 5.679688 -0.96875 5.425781 -1.3125 5.21875 -1.6875 C 5.34375 -1.789062 5.4375 -1.867188 5.5 -1.921875 C 5.5625 -1.972656 5.625 -2.019531 5.6875 -2.0625 C 5.75 -2.101562 5.816406 -2.148438 5.890625 -2.203125 C 5.960938 -2.253906 6.070312 -2.332031 6.21875 -2.4375 C 6.882812 -2.9375 7.554688 -3.46875 8.234375 -4.03125 C 8.921875 -4.59375 9.535156 -5.210938 10.078125 -5.890625 C 10.617188 -6.566406 11.0625 -7.316406 11.40625 -8.140625 C 11.75 -8.972656 11.921875 -9.910156 11.921875 -10.953125 C 11.921875 -11.679688 11.804688 -12.367188 11.578125 -13.015625 C 11.347656 -13.660156 11.054688 -14.253906 10.703125 -14.796875 C 9.804688 -14.960938 9.046875 -15.046875 8.421875 -15.046875 C 7.140625 -15.046875 5.644531 -14.785156 3.9375 -14.265625 C 3.894531 -14.242188 3.851562 -14.226562 3.8125 -14.21875 C 3.769531 -14.207031 3.726562 -14.191406 3.6875 -14.171875 C 3.625 -14.148438 3.570312 -14.140625 3.53125 -14.140625 C 3.300781 -14.078125 3.09375 -14.019531 2.90625 -13.96875 C 2.71875 -13.914062 2.519531 -13.890625 2.3125 -13.890625 C 2.144531 -13.890625 1.96875 -13.921875 1.78125 -13.984375 C 1.59375 -14.046875 1.5 -14.265625 1.5 -14.640625 C 1.5 -14.847656 1.503906 -15.039062 1.515625 -15.21875 C 1.523438 -15.394531 1.53125 -15.566406 1.53125 -15.734375 L 1.53125 -16.703125 C 1.53125 -17.140625 1.523438 -17.578125 1.515625 -18.015625 C 1.503906 -18.453125 1.5 -18.898438 1.5 -19.359375 L 1.5 -22.078125 C 1.5 -22.242188 1.503906 -22.421875 1.515625 -22.609375 C 1.523438 -22.796875 1.539062 -22.960938 1.5625 -23.109375 L 2.21875 -23.109375 C 2.425781 -23.109375 2.625 -23.101562 2.8125 -23.09375 C 3 -23.082031 3.195312 -23.078125 3.40625 -23.078125 Z M 4.625 -23.078125 "/></g></g></g><g fill="#ffffff" fill-opacity="1"><g transform="translate(70.489163, 46.060059)"><g/></g></g><g fill="#ffffff" fill-opacity="1"><g transform="translate(79.249523, 46.060059)"><g><path d="M 3.34375 -3.21875 C 3.800781 -3.21875 4.125 -3.082031 4.3125 -2.8125 C 4.3125 -2.5 4.285156 -2.019531 4.234375 -1.375 C 4.179688 -0.726562 4.09375 0.0078125 3.96875 0.84375 L 1.375 3.46875 L 1.15625 3.28125 C 1.34375 2.175781 1.503906 1.140625 1.640625 0.171875 C 1.773438 -0.796875 1.925781 -1.820312 2.09375 -2.90625 C 2.445312 -3.113281 2.863281 -3.21875 3.34375 -3.21875 Z M 3.34375 -3.21875 "/></g></g></g><g fill="#ffffff" fill-opacity="1"><g transform="translate(85.506925, 46.060059)"><g><path d="M 7 -15.015625 C 5.25 -15.015625 3.332031 -14.617188 1.25 -13.828125 L 1.25 -13.984375 L 1.375 -15.046875 C 1.394531 -15.316406 1.421875 -15.59375 1.453125 -15.875 C 1.484375 -16.15625 1.554688 -16.414062 1.671875 -16.65625 C 1.785156 -16.894531 1.945312 -17.101562 2.15625 -17.28125 C 2.363281 -17.457031 2.65625 -17.585938 3.03125 -17.671875 C 3.820312 -17.835938 4.566406 -17.957031 5.265625 -18.03125 C 5.960938 -18.101562 6.644531 -18.140625 7.3125 -18.140625 C 7.820312 -18.140625 8.34375 -18.101562 8.875 -18.03125 C 9.40625 -17.957031 9.929688 -17.859375 10.453125 -17.734375 C 10.972656 -17.609375 11.472656 -17.457031 11.953125 -17.28125 C 12.429688 -17.101562 12.867188 -16.921875 13.265625 -16.734375 C 13.472656 -15.566406 13.625 -14.347656 13.71875 -13.078125 C 13.8125 -11.804688 13.859375 -10.398438 13.859375 -8.859375 L 13.859375 5.40625 C 13.753906 5.445312 13.632812 5.472656 13.5 5.484375 C 13.363281 5.492188 13.210938 5.507812 13.046875 5.53125 L 10.796875 6 C 10.710938 6.019531 10.601562 6.03125 10.46875 6.03125 C 10.332031 6.03125 10.203125 6.03125 10.078125 6.03125 C 10.015625 6.03125 9.984375 6.007812 9.984375 5.96875 L 9.984375 5.4375 L 10.640625 -10.640625 C 10.640625 -11.410156 10.570312 -12.117188 10.4375 -12.765625 C 10.300781 -13.410156 10.109375 -14.023438 9.859375 -14.609375 C 9.335938 -14.734375 8.832031 -14.832031 8.34375 -14.90625 C 7.863281 -14.976562 7.414062 -15.015625 7 -15.015625 Z M 7 -15.015625 "/></g></g></g><g fill="#ffffff" fill-opacity="1"><g transform="translate(100.305667, 46.060059)"><g><path d="M 6.375 -14.890625 C 4.9375 -14.890625 3.3125 -14.640625 1.5 -14.140625 L 1.59375 -14.515625 L 1.84375 -17.078125 C 2.15625 -17.265625 2.523438 -17.425781 2.953125 -17.5625 C 3.378906 -17.695312 3.835938 -17.804688 4.328125 -17.890625 C 4.816406 -17.972656 5.320312 -18.035156 5.84375 -18.078125 C 6.363281 -18.117188 6.875 -18.140625 7.375 -18.140625 C 8.71875 -18.140625 9.941406 -17.992188 11.046875 -17.703125 C 12.148438 -17.410156 13.078125 -16.898438 13.828125 -16.171875 L 14.109375 -10.328125 L 14.078125 -10.359375 C 14.078125 -9.398438 14.015625 -8.539062 13.890625 -7.78125 C 13.785156 -7.570312 13.695312 -7.378906 13.625 -7.203125 C 13.550781 -7.023438 13.441406 -6.785156 13.296875 -6.484375 C 13.148438 -6.179688 12.953125 -5.78125 12.703125 -5.28125 C 12.453125 -4.78125 12.109375 -4.125 11.671875 -3.3125 L 15.453125 -3.21875 C 15.515625 -3.21875 15.554688 -3.226562 15.578125 -3.25 C 15.472656 -2.644531 15.367188 -2.082031 15.265625 -1.5625 C 15.160156 -1.039062 15.046875 -0.488281 14.921875 0.09375 C 14.796875 0.195312 14.648438 0.25 14.484375 0.25 C 14.273438 0.25 14.078125 0.21875 13.890625 0.15625 C 13.785156 0.113281 13.65625 0.0859375 13.5 0.078125 C 13.34375 0.0664062 13.148438 0.0507812 12.921875 0.03125 C 12.273438 -0.0078125 11.585938 -0.0390625 10.859375 -0.0625 C 10.128906 -0.0820312 9.398438 -0.09375 8.671875 -0.09375 C 7.472656 -0.09375 6.273438 -0.0664062 5.078125 -0.015625 C 3.878906 0.0351562 2.75 0.144531 1.6875 0.3125 C 1.582031 0.332031 1.476562 0.347656 1.375 0.359375 C 1.269531 0.367188 1.164062 0.375 1.0625 0.375 L 1.21875 -0.15625 L 1.65625 -2.40625 C 2.132812 -2.632812 2.738281 -2.789062 3.46875 -2.875 C 4.195312 -2.957031 4.925781 -3.03125 5.65625 -3.09375 C 6.320312 -3.132812 6.96875 -3.1875 7.59375 -3.25 C 8.226562 -3.3125 8.816406 -3.425781 9.359375 -3.59375 C 9.835938 -4.320312 10.234375 -5.144531 10.546875 -6.0625 C 10.859375 -6.976562 11.015625 -8.097656 11.015625 -9.421875 C 11.015625 -10.273438 10.945312 -11.09375 10.8125 -11.875 C 10.675781 -12.65625 10.429688 -13.441406 10.078125 -14.234375 C 9.429688 -14.441406 8.800781 -14.601562 8.1875 -14.71875 C 7.582031 -14.832031 6.976562 -14.890625 6.375 -14.890625 Z M 6.375 -14.890625 "/></g></g></g><g fill="#ffffff" fill-opacity="1"><g transform="translate(115.792722, 46.060059)"><g><path d="M 5.53125 -18.296875 L 5.5 -18.296875 C 5.914062 -18.441406 6.125 -18.378906 6.125 -18.109375 L 6.15625 -18.109375 C 6.132812 -16.421875 6.097656 -14.585938 6.046875 -12.609375 C 5.992188 -10.628906 5.945312 -8.726562 5.90625 -6.90625 C 5.863281 -5.925781 5.832031 -4.976562 5.8125 -4.0625 C 5.789062 -3.144531 5.769531 -2.269531 5.75 -1.4375 L 5.75 -1.03125 C 5.75 -0.738281 5.738281 -0.503906 5.71875 -0.328125 C 5.695312 -0.148438 5.625 -0.0625 5.5 -0.0625 C 5.414062 -0.0625 5.332031 -0.0625 5.25 -0.0625 C 5.164062 -0.0625 5.039062 -0.0703125 4.875 -0.09375 C 4.707031 -0.113281 4.476562 -0.132812 4.1875 -0.15625 C 3.894531 -0.175781 3.507812 -0.21875 3.03125 -0.28125 C 2.90625 -0.632812 2.832031 -1.023438 2.8125 -1.453125 C 2.789062 -1.878906 2.769531 -2.34375 2.75 -2.84375 L 2.75 -3.28125 L 1.96875 -16.984375 Z M 5.53125 -18.296875 "/></g></g></g><g fill="#ffffff" fill-opacity="1"><g transform="translate(123.489315, 46.060059)"><g><path d="M 6.125 -5.90625 L 6.25 -5.21875 C 6.269531 -5.070312 6.296875 -4.953125 6.328125 -4.859375 C 6.359375 -4.765625 6.398438 -4.664062 6.453125 -4.5625 C 6.503906 -4.457031 6.5625 -4.335938 6.625 -4.203125 C 6.6875 -4.066406 6.78125 -3.894531 6.90625 -3.6875 C 7.6875 -3.1875 8.421875 -2.894531 9.109375 -2.8125 C 9.796875 -2.726562 10.503906 -2.6875 11.234375 -2.6875 L 11.515625 -2.6875 C 11.929688 -2.6875 12.3125 -2.71875 12.65625 -2.78125 C 13 -2.84375 13.390625 -2.925781 13.828125 -3.03125 C 15.078125 -3.90625 16.023438 -4.914062 16.671875 -6.0625 C 17.316406 -7.207031 17.640625 -8.421875 17.640625 -9.703125 C 17.640625 -10.785156 17.382812 -11.875 16.875 -12.96875 C 16.363281 -14.0625 15.660156 -15.046875 14.765625 -15.921875 C 15.078125 -16.191406 15.523438 -16.535156 16.109375 -16.953125 C 16.691406 -17.367188 17.316406 -17.785156 17.984375 -18.203125 C 18.128906 -18.304688 18.273438 -18.320312 18.421875 -18.25 C 18.566406 -18.175781 18.722656 -18.066406 18.890625 -17.921875 C 19.367188 -16.859375 19.757812 -15.617188 20.0625 -14.203125 C 20.363281 -12.785156 20.515625 -11.296875 20.515625 -9.734375 C 20.515625 -9.023438 20.445312 -8.375 20.3125 -7.78125 C 20.175781 -7.195312 20.003906 -6.65625 19.796875 -6.15625 C 19.585938 -5.65625 19.351562 -5.195312 19.09375 -4.78125 C 18.832031 -4.363281 18.578125 -3.988281 18.328125 -3.65625 L 17.984375 -3.21875 C 17.523438 -2.632812 17.0625 -2.070312 16.59375 -1.53125 C 16.125 -0.988281 15.617188 -0.507812 15.078125 -0.09375 C 14.222656 0.0703125 13.394531 0.1875 12.59375 0.25 C 11.789062 0.3125 10.921875 0.34375 9.984375 0.34375 C 8.859375 0.34375 7.898438 0.269531 7.109375 0.125 C 6.328125 -0.0195312 5.679688 -0.257812 5.171875 -0.59375 C 4.660156 -0.925781 4.257812 -1.363281 3.96875 -1.90625 C 3.675781 -2.445312 3.457031 -3.101562 3.3125 -3.875 L 2.625 -7.375 C 2.476562 -8.175781 2.34375 -8.90625 2.21875 -9.5625 C 2.09375 -10.21875 1.972656 -10.894531 1.859375 -11.59375 C 1.742188 -12.289062 1.625 -13.0625 1.5 -13.90625 C 1.375 -14.75 1.238281 -15.753906 1.09375 -16.921875 L 4.03125 -17.984375 C 4.257812 -18.066406 4.398438 -18.0625 4.453125 -17.96875 C 4.503906 -17.875 4.550781 -17.679688 4.59375 -17.390625 C 4.820312 -15.015625 5.054688 -12.953125 5.296875 -11.203125 C 5.535156 -9.453125 5.707031 -8.132812 5.8125 -7.25 C 6.207031 -7.65625 6.546875 -8.078125 6.828125 -8.515625 C 7.109375 -8.953125 7.34375 -9.363281 7.53125 -9.75 C 7.71875 -10.132812 7.859375 -10.476562 7.953125 -10.78125 C 8.054688 -11.082031 8.117188 -11.304688 8.140625 -11.453125 L 8.265625 -16.171875 L 8.421875 -17.203125 C 8.691406 -17.285156 8.988281 -17.378906 9.3125 -17.484375 C 9.632812 -17.585938 9.957031 -17.6875 10.28125 -17.78125 C 10.601562 -17.875 10.914062 -17.945312 11.21875 -18 C 11.519531 -18.050781 11.785156 -18.078125 12.015625 -18.078125 C 12.117188 -18.078125 12.140625 -17.890625 12.078125 -17.515625 L 11.734375 -13.640625 C 11.628906 -13.078125 11.515625 -12.535156 11.390625 -12.015625 C 11.265625 -11.492188 11.125 -10.988281 10.96875 -10.5 C 10.8125 -10.007812 10.625 -9.523438 10.40625 -9.046875 C 10.1875 -8.566406 9.921875 -8.070312 9.609375 -7.5625 Z M 6.125 -5.90625 "/></g></g></g><g fill="#ffffff" fill-opacity="1"><g transform="translate(144.326441, 46.060059)"><g/></g></g><g fill="#ffffff" fill-opacity="1"><g transform="translate(153.086801, 46.060059)"><g><path d="M 7 -15.015625 C 5.25 -15.015625 3.332031 -14.617188 1.25 -13.828125 L 1.25 -13.984375 L 1.375 -15.046875 C 1.394531 -15.316406 1.421875 -15.59375 1.453125 -15.875 C 1.484375 -16.15625 1.554688 -16.414062 1.671875 -16.65625 C 1.785156 -16.894531 1.945312 -17.101562 2.15625 -17.28125 C 2.363281 -17.457031 2.65625 -17.585938 3.03125 -17.671875 C 3.820312 -17.835938 4.566406 -17.957031 5.265625 -18.03125 C 5.960938 -18.101562 6.644531 -18.140625 7.3125 -18.140625 C 7.820312 -18.140625 8.34375 -18.101562 8.875 -18.03125 C 9.40625 -17.957031 9.929688 -17.859375 10.453125 -17.734375 C 10.972656 -17.609375 11.472656 -17.457031 11.953125 -17.28125 C 12.429688 -17.101562 12.867188 -16.921875 13.265625 -16.734375 C 13.472656 -15.566406 13.625 -14.347656 13.71875 -13.078125 C 13.8125 -11.804688 13.859375 -10.398438 13.859375 -8.859375 L 13.859375 5.40625 C 13.753906 5.445312 13.632812 5.472656 13.5 5.484375 C 13.363281 5.492188 13.210938 5.507812 13.046875 5.53125 L 10.796875 6 C 10.710938 6.019531 10.601562 6.03125 10.46875 6.03125 C 10.332031 6.03125 10.203125 6.03125 10.078125 6.03125 C 10.015625 6.03125 9.984375 6.007812 9.984375 5.96875 L 9.984375 5.4375 L 10.640625 -10.640625 C 10.640625 -11.410156 10.570312 -12.117188 10.4375 -12.765625 C 10.300781 -13.410156 10.109375 -14.023438 9.859375 -14.609375 C 9.335938 -14.734375 8.832031 -14.832031 8.34375 -14.90625 C 7.863281 -14.976562 7.414062 -15.015625 7 -15.015625 Z M 7 -15.015625 "/></g></g></g><g fill="#ffffff" fill-opacity="1"><g transform="translate(167.885543, 46.060059)"><g><path d="M 5.53125 -18.296875 L 5.5 -18.296875 C 5.914062 -18.441406 6.125 -18.378906 6.125 -18.109375 L 6.15625 -18.109375 C 6.132812 -16.421875 6.097656 -14.585938 6.046875 -12.609375 C 5.992188 -10.628906 5.945312 -8.726562 5.90625 -6.90625 C 5.863281 -5.925781 5.832031 -4.976562 5.8125 -4.0625 C 5.789062 -3.144531 5.769531 -2.269531 5.75 -1.4375 L 5.75 -1.03125 C 5.75 -0.738281 5.738281 -0.503906 5.71875 -0.328125 C 5.695312 -0.148438 5.625 -0.0625 5.5 -0.0625 C 5.414062 -0.0625 5.332031 -0.0625 5.25 -0.0625 C 5.164062 -0.0625 5.039062 -0.0703125 4.875 -0.09375 C 4.707031 -0.113281 4.476562 -0.132812 4.1875 -0.15625 C 3.894531 -0.175781 3.507812 -0.21875 3.03125 -0.28125 C 2.90625 -0.632812 2.832031 -1.023438 2.8125 -1.453125 C 2.789062 -1.878906 2.769531 -2.34375 2.75 -2.84375 L 2.75 -3.28125 L 1.96875 -16.984375 Z M 5.53125 -18.296875 "/></g></g></g><g fill="#ffffff" fill-opacity="1"><g transform="translate(175.582137, 46.060059)"><g><path d="M 5.21875 -14.671875 C 4.613281 -14.671875 3.988281 -14.617188 3.34375 -14.515625 C 2.695312 -14.410156 2.039062 -14.242188 1.375 -14.015625 L 1.375 -14.046875 C 1.375 -14.085938 1.382812 -14.15625 1.40625 -14.25 C 1.425781 -14.34375 1.457031 -14.460938 1.5 -14.609375 C 1.582031 -14.960938 1.664062 -15.335938 1.75 -15.734375 C 1.832031 -16.128906 1.914062 -16.515625 2 -16.890625 C 2.625 -17.285156 3.367188 -17.570312 4.234375 -17.75 C 5.097656 -17.925781 6 -18.015625 6.9375 -18.015625 C 8.050781 -18.015625 9.171875 -17.898438 10.296875 -17.671875 C 11.421875 -17.441406 12.421875 -17.148438 13.296875 -16.796875 C 13.984375 -14.566406 14.328125 -12.035156 14.328125 -9.203125 C 14.328125 -8.273438 14.269531 -7.347656 14.15625 -6.421875 C 14.039062 -5.492188 13.875 -4.625 13.65625 -3.8125 C 13.4375 -3 13.148438 -2.269531 12.796875 -1.625 C 12.441406 -0.976562 12.035156 -0.457031 11.578125 -0.0625 L 8.734375 -0.0625 C 8.609375 -0.0625 8.507812 -0.0820312 8.4375 -0.125 C 8.363281 -0.164062 8.296875 -0.21875 8.234375 -0.28125 C 9.171875 -1.675781 9.898438 -3.226562 10.421875 -4.9375 C 10.941406 -6.644531 11.203125 -8.347656 11.203125 -10.046875 C 11.203125 -10.460938 11.1875 -10.953125 11.15625 -11.515625 C 11.125 -12.078125 11.078125 -12.578125 11.015625 -13.015625 C 10.265625 -13.617188 9.394531 -14.046875 8.40625 -14.296875 C 7.425781 -14.546875 6.363281 -14.671875 5.21875 -14.671875 Z M 5.21875 -14.671875 "/></g></g></g><g fill="#ffffff" fill-opacity="1"><g transform="translate(190.75632, 46.060059)"><g><path d="M 6.375 -14.890625 C 4.9375 -14.890625 3.3125 -14.640625 1.5 -14.140625 L 1.59375 -14.515625 L 1.84375 -17.078125 C 2.15625 -17.265625 2.523438 -17.425781 2.953125 -17.5625 C 3.378906 -17.695312 3.835938 -17.804688 4.328125 -17.890625 C 4.816406 -17.972656 5.320312 -18.035156 5.84375 -18.078125 C 6.363281 -18.117188 6.875 -18.140625 7.375 -18.140625 C 8.71875 -18.140625 9.941406 -17.992188 11.046875 -17.703125 C 12.148438 -17.410156 13.078125 -16.898438 13.828125 -16.171875 L 14.109375 -10.328125 L 14.078125 -10.359375 C 14.078125 -9.398438 14.015625 -8.539062 13.890625 -7.78125 C 13.785156 -7.570312 13.695312 -7.378906 13.625 -7.203125 C 13.550781 -7.023438 13.441406 -6.785156 13.296875 -6.484375 C 13.148438 -6.179688 12.953125 -5.78125 12.703125 -5.28125 C 12.453125 -4.78125 12.109375 -4.125 11.671875 -3.3125 L 15.453125 -3.21875 C 15.515625 -3.21875 15.554688 -3.226562 15.578125 -3.25 C 15.472656 -2.644531 15.367188 -2.082031 15.265625 -1.5625 C 15.160156 -1.039062 15.046875 -0.488281 14.921875 0.09375 C 14.796875 0.195312 14.648438 0.25 14.484375 0.25 C 14.273438 0.25 14.078125 0.21875 13.890625 0.15625 C 13.785156 0.113281 13.65625 0.0859375 13.5 0.078125 C 13.34375 0.0664062 13.148438 0.0507812 12.921875 0.03125 C 12.273438 -0.0078125 11.585938 -0.0390625 10.859375 -0.0625 C 10.128906 -0.0820312 9.398438 -0.09375 8.671875 -0.09375 C 7.472656 -0.09375 6.273438 -0.0664062 5.078125 -0.015625 C 3.878906 0.0351562 2.75 0.144531 1.6875 0.3125 C 1.582031 0.332031 1.476562 0.347656 1.375 0.359375 C 1.269531 0.367188 1.164062 0.375 1.0625 0.375 L 1.21875 -0.15625 L 1.65625 -2.40625 C 2.132812 -2.632812 2.738281 -2.789062 3.46875 -2.875 C 4.195312 -2.957031 4.925781 -3.03125 5.65625 -3.09375 C 6.320312 -3.132812 6.96875 -3.1875 7.59375 -3.25 C 8.226562 -3.3125 8.816406 -3.425781 9.359375 -3.59375 C 9.835938 -4.320312 10.234375 -5.144531 10.546875 -6.0625 C 10.859375 -6.976562 11.015625 -8.097656 11.015625 -9.421875 C 11.015625 -10.273438 10.945312 -11.09375 10.8125 -11.875 C 10.675781 -12.65625 10.429688 -13.441406 10.078125 -14.234375 C 9.429688 -14.441406 8.800781 -14.601562 8.1875 -14.71875 C 7.582031 -14.832031 6.976562 -14.890625 6.375 -14.890625 Z M 6.375 -14.890625 "/></g></g></g></svg>