<svg xmlns="http://www.w3.org/2000/svg" xmlns:xlink="http://www.w3.org/1999/xlink" width="50" zoomAndPan="magnify"
     viewBox="0 0 37.5 37.499999" height="50" preserveAspectRatio="xMidYMid meet" version="1.0">
    <defs>
        <clipPath id="13b6bf9c49">
            <path d="M 0 19 L 37 19 L 37 37.007812 L 0 37.007812 Z M 0 19 " clip-rule="nonzero"/>
        </clipPath>
    </defs>
    <path fill="#9dbd3d"
          d="M 32.710938 33.507812 C 32.710938 33.664062 32.65625 33.796875 32.546875 33.90625 C 32.4375 34.015625 32.304688 34.070312 32.148438 34.070312 C 31.992188 34.070312 31.859375 34.015625 31.75 33.90625 C 31.640625 33.796875 31.585938 33.664062 31.585938 33.507812 C 31.585938 33.355469 31.640625 33.222656 31.75 33.113281 C 31.859375 33.003906 31.992188 32.949219 32.148438 32.949219 C 32.304688 32.949219 32.4375 33.003906 32.546875 33.113281 C 32.65625 33.222656 32.710938 33.355469 32.710938 33.507812 Z M 32.710938 33.507812 "
          fill-opacity="1" fill-rule="nonzero"/>
    <path fill="#9dbd3d"
          d="M 14.960938 16.28125 C 15.308594 16.234375 15.609375 15.933594 15.609375 15.546875 L 15.609375 14.683594 C 15.609375 14.550781 15.4375 14.292969 15.179688 14.164062 L 15.003906 14.078125 Z M 14.960938 16.28125 "
          fill-opacity="1" fill-rule="nonzero"/>
    <path fill="#9dbd3d"
          d="M 10.558594 20.339844 L 18.15625 20.339844 C 18.289062 20.339844 20.621094 20.339844 22 18.742188 C 22.777344 17.832031 23.125 16.625 22.90625 15.15625 C 22.347656 10.535156 18.199219 6.734375 16.777344 5.785156 C 16.777344 5.785156 18.847656 3.324219 18.890625 3.28125 C 19.152344 2.632812 18.847656 1.898438 18.199219 1.640625 L 17.335938 1.296875 C 17.292969 0.5625 16.691406 0 15.957031 0 L 12.804688 0 C 12.070312 0 11.464844 0.5625 11.421875 1.296875 L 10.558594 1.640625 C 9.910156 1.898438 9.609375 2.632812 9.867188 3.28125 C 9.910156 3.324219 11.984375 5.785156 11.984375 5.785156 C 10.515625 6.78125 6.371094 10.578125 5.808594 15.199219 C 5.636719 16.667969 5.9375 17.878906 6.714844 18.785156 C 8.140625 20.339844 10.429688 20.339844 10.558594 20.339844 Z M 16.691406 11.355469 C 16.691406 11.660156 16.429688 11.875 16.171875 11.875 C 15.914062 11.875 15.652344 11.617188 15.652344 11.355469 L 15.652344 10.96875 C 15.652344 10.621094 15.394531 10.277344 15.003906 10.234375 L 15.003906 12.910156 L 15.738281 13.214844 C 16.300781 13.429688 16.691406 14.035156 16.734375 14.683594 L 16.734375 15.546875 C 16.734375 16.496094 15.957031 17.316406 15.003906 17.359375 L 15.003906 18.007812 C 15.003906 18.308594 14.746094 18.523438 14.488281 18.523438 C 14.226562 18.523438 13.96875 18.265625 13.96875 18.007812 L 13.96875 17.359375 L 13.925781 17.359375 C 12.933594 17.359375 12.113281 16.539062 12.113281 15.546875 L 12.113281 15.15625 C 12.113281 14.855469 12.371094 14.636719 12.628906 14.636719 C 12.933594 14.636719 13.148438 14.898438 13.148438 15.15625 L 13.148438 15.546875 C 13.148438 15.933594 13.496094 16.28125 13.882812 16.28125 L 13.925781 16.28125 L 13.925781 13.644531 L 13.019531 13.300781 C 12.199219 12.953125 12.027344 12.21875 12.027344 11.832031 L 12.027344 10.96875 C 12.027344 9.976562 12.847656 9.15625 13.839844 9.15625 C 13.839844 9.15625 13.925781 9.15625 13.925781 9.15625 L 13.925781 8.550781 C 13.925781 8.246094 14.183594 8.03125 14.445312 8.03125 C 14.703125 8.03125 14.960938 8.289062 14.960938 8.550781 L 14.960938 9.15625 C 15.914062 9.199219 16.691406 9.976562 16.691406 10.96875 Z M 10.945312 2.675781 L 11.808594 2.332031 L 12.457031 3.539062 C 12.542969 3.714844 12.71875 3.84375 12.933594 3.84375 C 13.234375 3.84375 13.496094 3.585938 13.449219 3.28125 C 13.449219 3.195312 13.40625 3.109375 13.40625 3.023438 C 13.40625 3.023438 12.5 1.339844 12.457031 1.296875 C 12.5 1.164062 12.628906 1.078125 12.761719 1.078125 L 15.914062 1.078125 C 16.042969 1.078125 16.171875 1.164062 16.214844 1.296875 L 15.308594 2.980469 C 15.179688 3.238281 15.265625 3.585938 15.523438 3.714844 C 15.609375 3.757812 15.695312 3.757812 15.78125 3.757812 C 16 3.757812 16.171875 3.628906 16.257812 3.453125 L 16.90625 2.246094 L 17.726562 2.589844 C 17.8125 2.632812 17.855469 2.675781 17.855469 2.761719 L 15.609375 5.355469 C 14.746094 5.269531 13.882812 5.269531 13.019531 5.355469 L 10.773438 2.761719 C 10.816406 2.761719 10.859375 2.71875 10.945312 2.675781 Z M 10.945312 2.675781 "
          fill-opacity="1" fill-rule="nonzero"/>
    <path fill="#9dbd3d"
          d="M 13.105469 10.96875 L 13.105469 11.832031 C 13.105469 11.960938 13.234375 12.261719 13.539062 12.351562 L 13.882812 12.480469 L 13.882812 10.234375 L 13.839844 10.234375 C 13.449219 10.234375 13.105469 10.578125 13.105469 10.96875 Z M 13.105469 10.96875 "
          fill-opacity="1" fill-rule="nonzero"/>
    <g clip-path="url(#13b6bf9c49)">
        <path fill="#9dbd3d"
              d="M 36.554688 35.96875 L 29.730469 35.96875 L 29.730469 24.050781 L 35.429688 24.050781 C 35.734375 24.050781 35.949219 23.792969 35.949219 23.535156 C 35.949219 23.273438 35.734375 22.972656 35.429688 22.972656 L 29.730469 22.972656 L 29.730469 21.246094 C 29.730469 20.941406 29.472656 20.726562 29.210938 20.726562 C 28.953125 20.726562 28.695312 20.984375 28.695312 21.246094 L 28.695312 22.972656 L 25.628906 22.972656 C 25.324219 22.972656 25.109375 23.230469 25.109375 23.492188 L 25.109375 25.046875 L 24.117188 25.046875 L 20.964844 22.28125 C 20.878906 22.195312 20.75 22.152344 20.621094 22.152344 L 11.941406 22.152344 C 11.679688 22.152344 11.421875 22.324219 11.421875 22.628906 L 11.378906 22.972656 C 11.378906 23.75 11.636719 24.484375 12.113281 25.089844 L 11.507812 25.089844 L 9.347656 21.71875 C 8.65625 20.382812 7.148438 19.300781 5.59375 19.820312 C 4.773438 20.078125 4.726562 20.121094 4.726562 20.121094 C 4.597656 20.164062 4.46875 20.296875 4.425781 20.425781 C 4.382812 20.554688 4.382812 20.726562 4.46875 20.855469 L 4.640625 21.160156 C 3.433594 20.511719 1.921875 20.425781 0.886719 21.417969 C 0.238281 22.066406 0.195312 22.109375 0.195312 22.109375 C 0.0234375 22.324219 0.0234375 22.671875 0.28125 22.886719 C 0.28125 22.886719 8.011719 28.242188 8.011719 28.242188 C 8.054688 28.285156 20.1875 32.773438 20.1875 32.773438 C 20.1875 32.773438 23.683594 32.816406 25.023438 32.816406 L 25.023438 33.679688 C 25.023438 33.984375 25.28125 34.199219 25.542969 34.199219 L 28.609375 34.199219 L 28.609375 36.488281 C 28.609375 36.789062 28.867188 37.007812 29.125 37.007812 L 36.46875 37.007812 C 36.769531 37.007812 36.984375 36.746094 36.984375 36.488281 C 36.984375 36.230469 36.8125 35.96875 36.554688 35.96875 Z M 5.894531 20.855469 C 6.84375 20.554688 7.878906 21.332031 8.355469 22.28125 L 9.523438 24.09375 L 6.371094 22.28125 L 5.636719 20.941406 Z M 25.023438 31.695312 L 20.488281 31.695312 L 8.570312 27.289062 L 1.445312 22.367188 L 1.621094 22.195312 C 2.351562 21.460938 3.605469 21.71875 4.46875 22.324219 L 10.902344 26.039062 C 10.988281 26.082031 11.074219 26.125 11.164062 26.125 L 18.890625 26.125 C 19.195312 26.125 19.410156 25.867188 19.410156 25.605469 C 19.410156 25.347656 19.152344 25.089844 18.890625 25.089844 L 13.96875 25.089844 C 13.148438 24.957031 12.542969 24.050781 12.457031 23.230469 L 20.316406 23.230469 L 23.511719 25.996094 C 23.597656 26.082031 23.726562 26.125 23.859375 26.125 L 25.066406 26.125 Z M 25.023438 31.695312 "
              fill-opacity="1" fill-rule="nonzero"/>
    </g>
</svg>