<svg xmlns="http://www.w3.org/2000/svg" xmlns:xlink="http://www.w3.org/1999/xlink" width="50" zoomAndPan="magnify" viewBox="0 0 37.5 37.499999" height="50" preserveAspectRatio="xMidYMid meet" version="1.0"><defs><clipPath id="fc7c9ae45a"><path d="M 2.375 0.707031 L 34.9375 0.707031 L 34.9375 36.976562 L 2.375 36.976562 Z M 2.375 0.707031 " clip-rule="nonzero"/></clipPath></defs><g clip-path="url(#fc7c9ae45a)"><path fill="#9dbd3d" d="M 5.0625 0.710938 C 3.574219 0.710938 2.375 1.914062 2.375 3.398438 L 2.375 30.277344 C 2.375 31.761719 3.574219 32.964844 5.0625 32.964844 L 14.398438 32.964844 C 13.777344 31.726562 13.363281 30.367188 13.203125 28.933594 L 8.421875 28.933594 C 7.308594 28.933594 6.40625 28.027344 6.40625 26.917969 C 6.40625 25.804688 7.308594 24.902344 8.421875 24.902344 L 13.433594 24.902344 C 13.660156 23.910156 14.007812 22.96875 14.457031 22.085938 C 13.683594 21.804688 13.125 21.070312 13.125 20.195312 C 13.125 19.085938 14.027344 18.179688 15.140625 18.179688 C 15.792969 18.179688 16.363281 18.496094 16.734375 18.976562 C 18.914062 16.824219 21.914062 15.492188 25.21875 15.492188 C 26.144531 15.492188 27.042969 15.605469 27.90625 15.804688 L 27.90625 3.398438 C 27.90625 1.914062 26.703125 0.710938 25.21875 0.710938 Z M 6.40625 4.742188 L 23.875 4.742188 L 23.875 8.773438 L 6.40625 8.773438 Z M 8.421875 11.460938 C 9.535156 11.460938 10.4375 12.363281 10.4375 13.476562 C 10.4375 14.589844 9.535156 15.492188 8.421875 15.492188 C 7.308594 15.492188 6.40625 14.589844 6.40625 13.476562 C 6.40625 12.363281 7.308594 11.460938 8.421875 11.460938 Z M 15.140625 11.460938 C 16.253906 11.460938 17.15625 12.363281 17.15625 13.476562 C 17.15625 14.589844 16.253906 15.492188 15.140625 15.492188 C 14.027344 15.492188 13.125 14.589844 13.125 13.476562 C 13.125 12.363281 14.027344 11.460938 15.140625 11.460938 Z M 21.859375 11.460938 C 22.972656 11.460938 23.875 12.363281 23.875 13.476562 C 23.875 14.589844 22.972656 15.492188 21.859375 15.492188 C 20.746094 15.492188 19.84375 14.589844 19.84375 13.476562 C 19.84375 12.363281 20.746094 11.460938 21.859375 11.460938 Z M 8.421875 18.179688 C 9.535156 18.179688 10.4375 19.085938 10.4375 20.195312 C 10.4375 21.308594 9.535156 22.210938 8.421875 22.210938 C 7.308594 22.210938 6.40625 21.308594 6.40625 20.195312 C 6.40625 19.085938 7.308594 18.179688 8.421875 18.179688 Z M 25.21875 18.179688 C 20.023438 18.179688 15.8125 22.394531 15.8125 27.589844 C 15.8125 32.785156 20.023438 36.996094 25.21875 36.996094 C 30.414062 36.996094 34.625 32.785156 34.625 27.589844 C 34.625 22.394531 30.414062 18.179688 25.21875 18.179688 Z M 23.875 20.867188 L 26.5625 20.867188 L 26.5625 22.777344 C 28.027344 23.164062 28.972656 24.1875 29 25.550781 L 26.777344 25.550781 C 26.726562 24.882812 26.089844 24.414062 25.242188 24.414062 C 24.394531 24.414062 23.839844 24.816406 23.839844 25.445312 C 23.839844 25.964844 24.257812 26.265625 25.257812 26.460938 L 26.476562 26.703125 C 28.347656 27.0625 29.1875 27.90625 29.1875 29.410156 C 29.1875 30.984375 28.210938 32.050781 26.5625 32.421875 L 26.5625 34.308594 L 23.875 34.308594 L 23.875 32.433594 C 22.265625 32.085938 21.285156 31.085938 21.253906 29.628906 L 23.550781 29.628906 C 23.609375 30.316406 24.296875 30.757812 25.296875 30.757812 C 26.195312 30.757812 26.808594 30.324219 26.808594 29.699219 C 26.808594 29.171875 26.394531 28.890625 25.3125 28.675781 L 24.066406 28.425781 C 22.335938 28.097656 21.441406 27.152344 21.441406 25.660156 C 21.441406 24.203125 22.371094 23.152344 23.875 22.765625 Z M 23.875 20.867188 " fill-opacity="1" fill-rule="nonzero"/></g></svg>