<svg xmlns="http://www.w3.org/2000/svg" xmlns:xlink="http://www.w3.org/1999/xlink" width="50" zoomAndPan="magnify"
     viewBox="0 0 37.5 37.499999" height="50" preserveAspectRatio="xMidYMid meet" version="1.0">
    <defs>
        <clipPath id="fae1e58b14">
            <path d="M 4.25 0.6875 L 33 0.6875 L 33 36.210938 L 4.25 36.210938 Z M 4.25 0.6875 " clip-rule="nonzero"/>
        </clipPath>
    </defs>
    <g clip-path="url(#fae1e58b14)">
        <path fill="#dd5959"
              d="M 5.4375 1.875 L 31.566406 1.875 L 31.566406 4.25 L 5.4375 4.25 Z M 30.378906 9 L 25.628906 9 L 25.628906 7.8125 L 26.816406 7.8125 L 26.816406 6.625 L 10.1875 6.625 L 10.1875 7.8125 L 11.375 7.8125 L 11.375 9 L 6.625 9 L 6.625 5.4375 L 30.378906 5.4375 Z M 14.988281 7.8125 L 22.015625 7.8125 C 21.734375 9.496094 20.265625 10.78125 18.503906 10.78125 C 16.738281 10.78125 15.269531 9.496094 14.988281 7.8125 Z M 24.441406 22.0625 L 18.503906 22.0625 L 18.503906 19.6875 C 18.503906 18.707031 17.703125 17.90625 16.722656 17.90625 L 16.128906 17.90625 C 15.667969 17.90625 15.253906 18.085938 14.941406 18.371094 L 14.941406 17.3125 L 13.753906 17.3125 L 13.753906 20.875 L 14.347656 20.875 L 14.347656 22.0625 L 12.5625 22.0625 L 12.5625 7.8125 L 13.753906 7.8125 L 13.753906 16.125 L 14.941406 16.125 L 14.941406 10.351562 C 15.8125 11.339844 17.082031 11.96875 18.503906 11.96875 C 19.921875 11.96875 21.195312 11.339844 22.066406 10.351562 L 22.066406 16.125 L 23.253906 16.125 L 23.253906 7.8125 L 24.441406 7.8125 Z M 19.097656 32.753906 L 12.984375 32.753906 L 10.1875 24.929688 L 10.1875 17.558594 L 11.375 16.371094 L 11.375 22.65625 C 11.375 22.984375 11.644531 23.25 11.96875 23.25 L 14.347656 23.25 L 14.347656 25.628906 L 15.535156 25.628906 L 15.535156 19.6875 C 15.535156 19.363281 15.800781 19.09375 16.128906 19.09375 L 16.722656 19.09375 C 17.046875 19.09375 17.316406 19.363281 17.316406 19.6875 L 17.316406 22.65625 C 17.316406 22.738281 17.332031 22.816406 17.363281 22.890625 L 19.097656 26.9375 Z M 19.097656 35.128906 L 13.15625 35.128906 L 13.15625 33.941406 L 19.097656 33.941406 Z M 5.4375 10.1875 L 11.375 10.1875 L 11.375 14.691406 L 9.175781 16.894531 C 9.0625 17.003906 9 17.15625 9 17.3125 L 9 25.035156 C 9 25.101562 9.011719 25.167969 9.035156 25.234375 L 11.96875 33.449219 L 11.96875 35.722656 C 11.96875 36.050781 12.238281 36.316406 12.5625 36.316406 L 19.691406 36.316406 C 20.015625 36.316406 20.285156 36.050781 20.285156 35.722656 L 20.285156 26.816406 C 20.285156 26.734375 20.269531 26.65625 20.234375 26.582031 L 18.808594 23.25 L 25.035156 23.25 C 25.363281 23.25 25.628906 22.984375 25.628906 22.65625 L 25.628906 10.1875 L 31.566406 10.1875 L 31.566406 5.4375 L 32.753906 5.4375 L 32.753906 0.6875 L 4.25 0.6875 L 4.25 5.4375 L 5.4375 5.4375 L 5.4375 10.1875 "
              fill-opacity="1" fill-rule="nonzero"/>
    </g>
    <path fill="#dd5959" d="M 9 6.625 L 7.8125 6.625 L 7.8125 7.8125 L 9 7.8125 L 9 6.625 " fill-opacity="1"
          fill-rule="nonzero"/>
    <path fill="#dd5959"
          d="M 29.191406 6.625 L 28.003906 6.625 L 28.003906 7.8125 L 29.191406 7.8125 L 29.191406 6.625 "
          fill-opacity="1" fill-rule="nonzero"/>
    <path fill="#dd5959"
          d="M 22.066406 19.6875 L 19.691406 19.6875 L 19.691406 20.875 L 23.253906 20.875 L 23.253906 17.3125 L 22.066406 17.3125 L 22.066406 19.6875 "
          fill-opacity="1" fill-rule="nonzero"/>
    <path fill="#dd5959"
          d="M 18.503906 15.53125 C 18.175781 15.53125 17.910156 15.265625 17.910156 14.9375 C 17.910156 14.609375 18.175781 14.34375 18.503906 14.34375 C 18.828125 14.34375 19.097656 14.609375 19.097656 14.9375 C 19.097656 15.265625 18.828125 15.53125 18.503906 15.53125 Z M 20.285156 14.9375 C 20.285156 13.953125 19.484375 13.15625 18.503906 13.15625 C 17.519531 13.15625 16.722656 13.953125 16.722656 14.9375 C 16.722656 15.921875 17.519531 16.71875 18.503906 16.71875 C 19.484375 16.71875 20.285156 15.921875 20.285156 14.9375 "
          fill-opacity="1" fill-rule="nonzero"/>
</svg>