<svg xmlns="http://www.w3.org/2000/svg" xmlns:xlink="http://www.w3.org/1999/xlink" width="50" zoomAndPan="magnify" viewBox="0 0 37.5 37.499999" height="50" preserveAspectRatio="xMidYMid meet" version="1.0"><defs><clipPath id="0182f2495d"><path d="M 7 1.046875 L 29.816406 1.046875 L 29.816406 35.835938 L 7 35.835938 Z M 7 1.046875 " clip-rule="nonzero"/></clipPath></defs><g clip-path="url(#0182f2495d)"><path fill="#ffffff" d="M 18.707031 1.046875 C 11.496094 1.046875 7.40625 5.085938 7.289062 10.933594 L 7.289062 11.226562 L 13.65625 11.226562 L 13.65625 10.933594 C 13.792969 8.351562 15.582031 6.6875 18.28125 6.6875 C 20.960938 6.6875 22.742188 8.234375 22.742188 10.417969 C 22.742188 12.601562 21.828125 13.730469 18.800781 15.539062 C 15.558594 17.441406 14.265625 19.554688 14.570312 23.3125 L 14.605469 24.316406 L 20.839844 24.316406 L 20.839844 23.363281 C 20.839844 21.105469 21.710938 19.953125 24.835938 18.148438 C 28.144531 16.195312 29.859375 13.730469 29.859375 10.207031 C 29.859375 4.78125 25.421875 1.046875 18.707031 1.046875 Z M 17.859375 28.679688 C 15.46875 28.679688 13.980469 30.066406 13.980469 32.324219 C 13.980469 34.566406 15.472656 35.949219 17.859375 35.949219 C 20.246094 35.949219 21.71875 34.566406 21.71875 32.324219 C 21.71875 30.066406 20.246094 28.679688 17.859375 28.679688 Z M 17.859375 28.679688 " fill-opacity="1" fill-rule="nonzero"/></g></svg>