<svg xmlns="http://www.w3.org/2000/svg" xmlns:xlink="http://www.w3.org/1999/xlink" width="50" zoomAndPan="magnify" viewBox="0 0 37.5 37.499999" height="50" preserveAspectRatio="xMidYMid meet" version="1.0"><defs><clipPath id="8fe9a1e50c"><path d="M 0 0 L 37.007812 0 L 37.007812 37 L 0 37 Z M 0 0 " clip-rule="nonzero"/></clipPath></defs><g clip-path="url(#8fe9a1e50c)"><path fill="#0676ce" d="M 11.140625 15.535156 L 1.792969 15.535156 C 1.039062 15.535156 0.429688 16.1875 0.429688 16.988281 L 0.429688 35.046875 C 0.429688 35.847656 1.039062 36.5 1.792969 36.5 L 11.140625 36.5 C 11.890625 36.5 12.503906 35.847656 12.503906 35.046875 L 12.503906 16.988281 C 12.503906 16.1875 11.890625 15.535156 11.140625 15.535156 Z M 8.75 16.726562 L 8.507812 17.464844 L 4.425781 17.464844 L 4.179688 16.726562 Z M 11.308594 35.046875 C 11.308594 35.195312 11.21875 35.308594 11.140625 35.308594 L 1.792969 35.308594 C 1.710938 35.308594 1.621094 35.195312 1.621094 35.046875 L 1.621094 16.988281 C 1.621094 16.839844 1.710938 16.726562 1.792969 16.726562 L 2.921875 16.726562 L 3.425781 18.25 C 3.507812 18.492188 3.734375 18.65625 3.992188 18.65625 L 8.9375 18.65625 C 9.195312 18.65625 9.421875 18.492188 9.503906 18.25 L 10.007812 16.726562 L 11.140625 16.726562 C 11.21875 16.726562 11.308594 16.839844 11.308594 16.988281 Z M 7.847656 33.929688 C 7.847656 34.261719 7.578125 34.527344 7.25 34.527344 L 5.679688 34.527344 C 5.351562 34.527344 5.085938 34.261719 5.085938 33.929688 C 5.085938 33.601562 5.351562 33.335938 5.679688 33.335938 L 7.25 33.335938 C 7.578125 33.335938 7.847656 33.601562 7.847656 33.929688 Z M 15.902344 10.039062 L 15.902344 8.207031 C 15.902344 7.320312 15.21875 6.59375 14.351562 6.523438 C 13.339844 3.464844 10.820312 1.441406 7.953125 1.441406 C 5.085938 1.441406 2.566406 3.464844 1.550781 6.523438 C 0.6875 6.59375 0.00390625 7.320312 0.00390625 8.207031 L 0.00390625 10.039062 C 0.00390625 10.96875 0.757812 11.726562 1.691406 11.726562 C 2.621094 11.726562 3.378906 10.96875 3.378906 10.039062 L 3.378906 8.207031 C 3.378906 7.65625 3.109375 7.164062 2.699219 6.855469 C 3.5625 4.3125 5.625 2.632812 7.953125 2.632812 C 10.28125 2.632812 12.34375 4.3125 13.207031 6.855469 C 12.792969 7.164062 12.527344 7.65625 12.527344 8.207031 L 12.527344 10.039062 C 12.527344 10.96875 13.285156 11.726562 14.214844 11.726562 C 15.144531 11.726562 15.902344 10.96875 15.902344 10.039062 Z M 2.183594 10.039062 C 2.183594 10.308594 1.960938 10.53125 1.691406 10.53125 C 1.417969 10.53125 1.195312 10.308594 1.195312 10.039062 L 1.195312 8.207031 C 1.195312 7.933594 1.417969 7.710938 1.691406 7.710938 C 1.960938 7.710938 2.183594 7.933594 2.183594 8.207031 Z M 13.722656 10.039062 L 13.722656 8.207031 C 13.722656 7.933594 13.945312 7.710938 14.214844 7.710938 C 14.488281 7.710938 14.710938 7.933594 14.710938 8.207031 L 14.710938 10.039062 C 14.710938 10.308594 14.488281 10.53125 14.214844 10.53125 C 13.945312 10.53125 13.722656 10.308594 13.722656 10.039062 Z M 31.457031 25.550781 L 18.933594 25.550781 C 15.875 25.550781 13.386719 28.039062 13.386719 31.097656 C 13.386719 34.152344 15.875 36.640625 18.933594 36.640625 C 20.847656 36.640625 22.613281 35.65625 23.625 34.054688 L 26.765625 34.054688 C 27.777344 35.65625 29.546875 36.640625 31.457031 36.640625 C 34.515625 36.640625 37.003906 34.152344 37.003906 31.097656 C 37.003906 28.039062 34.515625 25.550781 31.457031 25.550781 Z M 31.457031 35.449219 C 29.863281 35.449219 28.394531 34.574219 27.632812 33.171875 C 27.527344 32.980469 27.328125 32.859375 27.109375 32.859375 L 23.285156 32.859375 C 23.066406 32.859375 22.863281 32.980469 22.761719 33.171875 C 21.996094 34.574219 20.53125 35.449219 18.933594 35.449219 C 16.535156 35.449219 14.582031 33.496094 14.582031 31.097656 C 14.582031 28.695312 16.535156 26.742188 18.933594 26.742188 L 31.457031 26.742188 C 33.859375 26.742188 35.8125 28.695312 35.8125 31.097656 C 35.8125 33.496094 33.859375 35.449219 31.457031 35.449219 Z M 22.234375 31.089844 C 22.234375 31.523438 21.878906 31.878906 21.445312 31.878906 C 21.007812 31.878906 20.652344 31.523438 20.652344 31.089844 C 20.652344 30.652344 21.007812 30.296875 21.445312 30.296875 C 21.878906 30.296875 22.234375 30.652344 22.234375 31.089844 Z M 19.726562 33.597656 C 19.726562 34.035156 19.371094 34.390625 18.933594 34.390625 C 18.496094 34.390625 18.144531 34.035156 18.144531 33.597656 C 18.144531 33.160156 18.496094 32.808594 18.933594 32.808594 C 19.371094 32.808594 19.726562 33.160156 19.726562 33.597656 Z M 17.214844 31.089844 C 17.214844 31.523438 16.859375 31.878906 16.425781 31.878906 C 15.988281 31.878906 15.632812 31.523438 15.632812 31.089844 C 15.632812 30.652344 15.988281 30.296875 16.425781 30.296875 C 16.859375 30.296875 17.214844 30.652344 17.214844 31.089844 Z M 19.726562 28.578125 C 19.726562 29.015625 19.371094 29.371094 18.933594 29.371094 C 18.496094 29.371094 18.144531 29.015625 18.144531 28.578125 C 18.144531 28.140625 18.496094 27.789062 18.933594 27.789062 C 19.371094 27.789062 19.726562 28.140625 19.726562 28.578125 Z M 34.757812 31.089844 C 34.757812 31.523438 34.40625 31.878906 33.96875 31.878906 C 33.53125 31.878906 33.179688 31.523438 33.179688 31.089844 C 33.179688 30.652344 33.53125 30.296875 33.96875 30.296875 C 34.40625 30.296875 34.757812 30.652344 34.757812 31.089844 Z M 32.25 33.597656 C 32.25 34.035156 31.894531 34.390625 31.457031 34.390625 C 31.023438 34.390625 30.667969 34.035156 30.667969 33.597656 C 30.667969 33.160156 31.023438 32.808594 31.457031 32.808594 C 31.894531 32.808594 32.25 33.160156 32.25 33.597656 Z M 29.738281 31.089844 C 29.738281 31.523438 29.386719 31.878906 28.949219 31.878906 C 28.511719 31.878906 28.15625 31.523438 28.15625 31.089844 C 28.15625 30.652344 28.511719 30.296875 28.949219 30.296875 C 29.386719 30.296875 29.738281 30.652344 29.738281 31.089844 Z M 32.25 28.578125 C 32.25 29.015625 31.894531 29.371094 31.457031 29.371094 C 31.023438 29.371094 30.667969 29.015625 30.667969 28.578125 C 30.667969 28.140625 31.023438 27.789062 31.457031 27.789062 C 31.894531 27.789062 32.25 28.140625 32.25 28.578125 Z M 26.691406 30.34375 C 26.691406 30.671875 26.421875 30.9375 26.09375 30.9375 L 24.296875 30.9375 C 23.96875 30.9375 23.703125 30.671875 23.703125 30.34375 C 23.703125 30.011719 23.96875 29.746094 24.296875 29.746094 L 26.09375 29.746094 C 26.421875 29.746094 26.691406 30.011719 26.691406 30.34375 Z M 27.453125 28.367188 C 27.453125 28.699219 27.1875 28.964844 26.855469 28.964844 L 23.535156 28.964844 C 23.207031 28.964844 22.941406 28.699219 22.941406 28.367188 C 22.941406 28.039062 23.207031 27.769531 23.535156 27.769531 L 26.855469 27.769531 C 27.1875 27.769531 27.453125 28.039062 27.453125 28.367188 Z M 22.671875 8.773438 C 22.671875 7.089844 24.039062 5.722656 25.722656 5.722656 C 26.050781 5.722656 26.320312 5.988281 26.320312 6.320312 C 26.320312 6.648438 26.050781 6.914062 25.722656 6.914062 C 24.699219 6.914062 23.867188 7.75 23.867188 8.773438 C 23.867188 9.796875 24.699219 10.628906 25.722656 10.628906 C 26.050781 10.628906 26.320312 10.898438 26.320312 11.226562 C 26.320312 11.554688 26.050781 11.824219 25.722656 11.824219 C 24.039062 11.824219 22.671875 10.453125 22.671875 8.773438 Z M 25.722656 13.320312 C 28.230469 13.320312 30.269531 11.28125 30.269531 8.773438 C 30.269531 6.265625 28.230469 4.226562 25.722656 4.226562 C 23.214844 4.226562 21.175781 6.265625 21.175781 8.773438 C 21.175781 11.28125 23.214844 13.320312 25.722656 13.320312 Z M 25.722656 5.417969 C 27.570312 5.417969 29.074219 6.925781 29.074219 8.773438 C 29.074219 10.621094 27.570312 12.125 25.722656 12.125 C 23.875 12.125 22.371094 10.621094 22.371094 8.773438 C 22.371094 6.925781 23.875 5.417969 25.722656 5.417969 Z M 17.675781 12.894531 L 19.273438 13.996094 L 19.273438 14.195312 C 19.273438 14.878906 19.828125 15.433594 20.511719 15.433594 L 34.808594 15.433594 C 35.492188 15.433594 36.050781 14.878906 36.050781 14.195312 L 36.050781 3.351562 C 36.050781 2.753906 35.625 2.253906 35.0625 2.136719 L 35.0625 0.742188 C 35.0625 0.414062 34.792969 0.148438 34.464844 0.148438 L 32.433594 0.148438 C 32.105469 0.148438 31.835938 0.414062 31.835938 0.742188 L 31.835938 2.113281 L 30.699219 2.113281 L 30.046875 0.386719 C 29.957031 0.15625 29.738281 0.00390625 29.488281 0.00390625 L 22.023438 0.00390625 C 21.777344 0.00390625 21.554688 0.15625 21.464844 0.386719 L 20.8125 2.113281 L 20.511719 2.113281 C 19.828125 2.113281 19.273438 2.667969 19.273438 3.351562 L 19.273438 3.566406 L 17.679688 4.648438 C 17.515625 4.761719 17.417969 4.945312 17.417969 5.144531 L 17.417969 12.402344 C 17.417969 12.597656 17.515625 12.78125 17.675781 12.894531 Z M 34.855469 14.195312 C 34.855469 14.21875 34.832031 14.238281 34.808594 14.238281 L 32.242188 14.238281 L 32.242188 3.304688 L 34.808594 3.304688 C 34.832031 3.304688 34.855469 3.328125 34.855469 3.351562 Z M 33.03125 1.339844 L 33.867188 1.339844 L 33.867188 2.113281 L 33.03125 2.113281 Z M 22.4375 1.195312 L 29.074219 1.195312 L 29.421875 2.113281 L 22.089844 2.113281 Z M 20.46875 3.351562 C 20.46875 3.328125 20.488281 3.304688 20.511719 3.304688 L 31.050781 3.304688 L 31.050781 14.238281 L 20.511719 14.238281 C 20.488281 14.238281 20.46875 14.21875 20.46875 14.195312 Z M 18.613281 5.460938 L 19.273438 5.007812 L 19.273438 12.546875 L 18.613281 12.089844 Z M 34.144531 5.640625 L 34.144531 11.90625 C 34.144531 12.234375 33.878906 12.503906 33.550781 12.503906 C 33.21875 12.503906 32.953125 12.234375 32.953125 11.90625 L 32.953125 5.640625 C 32.953125 5.308594 33.21875 5.042969 33.550781 5.042969 C 33.878906 5.042969 34.144531 5.308594 34.144531 5.640625 Z M 22.78125 23.65625 L 33.097656 23.65625 C 34.664062 23.65625 35.9375 22.242188 35.9375 20.503906 C 35.9375 18.765625 34.664062 17.351562 33.097656 17.351562 L 22.78125 17.351562 C 22.453125 17.351562 22.183594 17.621094 22.183594 17.949219 L 22.183594 18.371094 L 19.621094 18.371094 C 19.292969 18.371094 19.027344 18.636719 19.027344 18.964844 L 19.027344 22.042969 C 19.027344 22.375 19.292969 22.640625 19.621094 22.640625 L 22.183594 22.640625 L 22.183594 23.058594 C 22.183594 23.390625 22.453125 23.65625 22.78125 23.65625 Z M 23.378906 18.546875 L 33.097656 18.546875 C 34.003906 18.546875 34.746094 19.425781 34.746094 20.503906 C 34.746094 21.585938 34.003906 22.464844 33.097656 22.464844 L 23.378906 22.464844 Z M 20.21875 21.445312 L 20.21875 19.5625 L 22.183594 19.5625 L 22.183594 21.445312 Z M 32.113281 19.398438 C 32.113281 19.726562 31.84375 19.992188 31.515625 19.992188 L 24.792969 19.992188 C 24.460938 19.992188 24.195312 19.726562 24.195312 19.398438 C 24.195312 19.066406 24.460938 18.800781 24.792969 18.800781 L 31.515625 18.800781 C 31.84375 18.800781 32.113281 19.066406 32.113281 19.398438 Z M 32.113281 19.398438 " fill-opacity="1" fill-rule="nonzero"/></g></svg>