<svg xmlns="http://www.w3.org/2000/svg" xmlns:xlink="http://www.w3.org/1999/xlink" width="50" zoomAndPan="magnify" viewBox="0 0 37.5 37.499999" height="50" preserveAspectRatio="xMidYMid meet" version="1.0"><defs><clipPath id="51aec194ab"><path d="M 0.578125 0 L 36.105469 0 L 36.105469 37.007812 L 0.578125 37.007812 Z M 0.578125 0 " clip-rule="nonzero"/></clipPath></defs><path fill="#0676ce" d="M 3.605469 16.148438 L 4.90625 16.148438 C 5.152344 16.839844 5.808594 17.339844 6.585938 17.339844 C 7.359375 17.339844 8.015625 16.839844 8.261719 16.148438 L 10.867188 16.148438 C 11.113281 16.839844 11.769531 17.339844 12.542969 17.339844 C 13.320312 17.339844 13.976562 16.839844 14.222656 16.148438 L 16.015625 16.148438 C 16.34375 16.148438 16.613281 15.882812 16.613281 15.554688 L 16.613281 13.765625 C 16.613281 12.898438 15.953125 12.152344 15.070312 12.003906 L 13.949219 11.632812 L 12.347656 9.417969 C 12.324219 9.390625 12.300781 9.359375 12.273438 9.335938 C 12.042969 9.117188 11.738281 9 11.414062 9 L 7.5625 9 C 7.183594 9 6.820312 9.171875 6.589844 9.460938 L 4.957031 11.511719 L 4.066406 11.988281 C 3.46875 12.070312 3.007812 12.570312 3.007812 13.167969 L 3.007812 15.554688 C 3.007812 15.882812 3.277344 16.148438 3.605469 16.148438 Z M 6.585938 16.148438 C 6.257812 16.148438 5.988281 15.882812 5.988281 15.554688 C 5.988281 15.222656 6.257812 14.957031 6.585938 14.957031 C 6.914062 14.957031 7.179688 15.222656 7.179688 15.554688 C 7.179688 15.882812 6.914062 16.148438 6.585938 16.148438 Z M 12.542969 16.148438 C 12.214844 16.148438 11.949219 15.882812 11.949219 15.554688 C 11.949219 15.222656 12.214844 14.957031 12.542969 14.957031 C 12.871094 14.957031 13.140625 15.222656 13.140625 15.554688 C 13.140625 15.882812 12.871094 16.148438 12.542969 16.148438 Z M 11.441406 10.203125 L 12.296875 11.382812 L 10.160156 11.382812 L 10.160156 10.199219 Z M 8.96875 10.195312 L 8.96875 11.382812 L 6.59375 11.382812 L 7.5625 10.191406 Z M 4.238281 13.167969 C 4.335938 13.167969 4.433594 13.144531 4.519531 13.097656 L 5.496094 12.574219 L 13.140625 12.574219 L 13.140625 12.53125 C 13.207031 12.605469 13.292969 12.667969 13.390625 12.703125 L 14.738281 13.152344 C 14.773438 13.164062 14.8125 13.171875 14.847656 13.175781 C 15.175781 13.21875 15.417969 13.472656 15.417969 13.765625 L 15.417969 14.957031 L 14.222656 14.957031 C 13.976562 14.265625 13.320312 13.765625 12.542969 13.765625 C 11.769531 13.765625 11.113281 14.265625 10.867188 14.957031 L 8.261719 14.957031 C 8.015625 14.265625 7.359375 13.765625 6.585938 13.765625 C 5.808594 13.765625 5.152344 14.265625 4.90625 14.957031 L 4.210938 14.957031 Z M 4.238281 13.167969 " fill-opacity="1" fill-rule="nonzero"/><path fill="#0676ce" d="M 16.539062 24.667969 L 15.523438 23.648438 L 15.523438 21.511719 L 14.332031 21.511719 L 14.332031 22.457031 L 12.964844 21.089844 C 12.730469 20.859375 12.355469 20.859375 12.121094 21.089844 L 8.546875 24.667969 C 8.375 24.835938 8.324219 25.09375 8.417969 25.316406 C 8.511719 25.539062 8.726562 25.683594 8.96875 25.683594 L 9.566406 25.683594 L 9.566406 28.664062 C 9.566406 28.992188 9.832031 29.257812 10.160156 29.257812 L 14.929688 29.257812 C 15.257812 29.257812 15.523438 28.992188 15.523438 28.664062 L 15.523438 25.683594 L 16.121094 25.683594 C 16.359375 25.683594 16.578125 25.539062 16.671875 25.316406 C 16.761719 25.09375 16.710938 24.835938 16.539062 24.667969 Z M 14.332031 25.089844 L 14.332031 28.066406 L 10.757812 28.066406 L 10.757812 25.089844 C 10.757812 24.832031 10.59375 24.613281 10.371094 24.53125 L 12.542969 22.355469 L 14.71875 24.53125 C 14.492188 24.613281 14.332031 24.832031 14.332031 25.089844 Z M 14.332031 25.089844 " fill-opacity="1" fill-rule="nonzero"/><path fill="#0676ce" d="M 25.71875 24.78125 C 26.046875 24.371094 26.25 23.863281 26.25 23.300781 C 26.25 21.984375 25.179688 20.917969 23.867188 20.917969 C 22.550781 20.917969 21.484375 21.984375 21.484375 23.300781 C 21.484375 23.863281 21.6875 24.371094 22.011719 24.78125 C 21 25.257812 20.292969 26.28125 20.292969 27.472656 L 20.292969 28.664062 C 20.292969 28.992188 20.558594 29.257812 20.886719 29.257812 L 26.847656 29.257812 C 27.175781 29.257812 27.441406 28.992188 27.441406 28.664062 L 27.441406 27.472656 C 27.441406 26.28125 26.734375 25.257812 25.71875 24.78125 Z M 23.867188 22.109375 C 24.523438 22.109375 25.058594 22.644531 25.058594 23.300781 C 25.058594 23.957031 24.523438 24.492188 23.867188 24.492188 C 23.210938 24.492188 22.675781 23.957031 22.675781 23.300781 C 22.675781 22.644531 23.210938 22.109375 23.867188 22.109375 Z M 26.25 28.066406 L 21.484375 28.066406 L 21.484375 27.472656 C 21.484375 26.484375 22.285156 25.683594 23.269531 25.683594 L 24.460938 25.683594 C 25.449219 25.683594 26.25 26.484375 26.25 27.472656 Z M 26.25 28.066406 " fill-opacity="1" fill-rule="nonzero"/><path fill="#0676ce" d="M 30.421875 22.109375 L 29.230469 22.109375 L 29.230469 20.917969 L 28.039062 20.917969 L 28.039062 22.109375 L 26.847656 22.109375 L 26.847656 23.300781 L 28.039062 23.300781 L 28.039062 24.492188 L 29.230469 24.492188 L 29.230469 23.300781 L 30.421875 23.300781 Z M 30.421875 22.109375 " fill-opacity="1" fill-rule="nonzero"/><path fill="#0676ce" d="M 32.804688 11.382812 C 32.804688 10.585938 32.496094 9.839844 31.933594 9.277344 C 30.769531 8.113281 28.878906 8.113281 27.71875 9.277344 L 27.296875 9.695312 L 26.875 9.277344 C 26.3125 8.714844 25.566406 8.402344 24.769531 8.402344 C 23.972656 8.402344 23.226562 8.714844 22.664062 9.277344 C 22.101562 9.835938 21.789062 10.585938 21.789062 11.382812 C 21.789062 11.777344 21.867188 12.160156 22.011719 12.515625 L 21.484375 12.515625 L 21.484375 13.707031 L 22.878906 13.707031 L 26.875 17.703125 C 26.988281 17.8125 27.140625 17.878906 27.296875 17.878906 C 27.457031 17.878906 27.609375 17.8125 27.71875 17.703125 L 31.933594 13.488281 C 32.050781 13.371094 32.148438 13.242188 32.246094 13.109375 L 33.402344 13.109375 L 33.402344 11.917969 L 32.753906 11.917969 C 32.785156 11.742188 32.804688 11.5625 32.804688 11.382812 Z M 22.980469 11.382812 C 22.980469 10.902344 23.167969 10.457031 23.503906 10.117188 C 23.84375 9.78125 24.292969 9.59375 24.769531 9.59375 C 25.246094 9.59375 25.695312 9.78125 26.035156 10.117188 L 26.875 10.960938 C 27.109375 11.195312 27.484375 11.195312 27.71875 10.960938 L 28.5625 10.117188 C 29.257812 9.421875 30.390625 9.421875 31.089844 10.117188 C 31.425781 10.457031 31.613281 10.902344 31.613281 11.382812 C 31.613281 11.566406 31.578125 11.746094 31.523438 11.917969 L 29.230469 11.917969 C 29.070312 11.917969 28.921875 11.980469 28.808594 12.09375 L 28.039062 12.863281 L 26.671875 11.496094 C 26.4375 11.261719 26.0625 11.261719 25.828125 11.496094 L 24.8125 12.515625 L 23.394531 12.515625 C 23.132812 12.195312 22.980469 11.800781 22.980469 11.382812 Z M 27.296875 16.4375 L 24.5625 13.707031 L 25.058594 13.707031 C 25.214844 13.707031 25.367188 13.644531 25.480469 13.53125 L 26.25 12.761719 L 27.617188 14.125 C 27.734375 14.242188 27.886719 14.300781 28.039062 14.300781 C 28.191406 14.300781 28.34375 14.242188 28.460938 14.125 L 29.476562 13.109375 L 30.625 13.109375 Z M 27.296875 16.4375 " fill-opacity="1" fill-rule="nonzero"/><g clip-path="url(#51aec194ab)"><path fill="#0676ce" d="M 35.785156 6.613281 L 34.636719 6.613281 C 30.214844 6.613281 25.46875 4.753906 19.695312 0.757812 L 18.84375 0.164062 C 18.636719 0.0234375 18.367188 0.0234375 18.164062 0.164062 L 17.3125 0.757812 C 11.539062 4.753906 6.789062 6.613281 2.371094 6.613281 L 1.222656 6.613281 C 0.894531 6.613281 0.625 6.882812 0.625 7.210938 L 0.625 11.257812 C 0.625 21.699219 6.699219 31.375 16.097656 35.910156 L 18.242188 36.945312 C 18.324219 36.988281 18.414062 37.007812 18.503906 37.007812 C 18.574219 37.007812 18.644531 36.992188 18.714844 36.96875 C 29.28125 32.960938 36.382812 22.675781 36.382812 11.371094 L 36.382812 7.210938 C 36.382812 6.882812 36.113281 6.613281 35.785156 6.613281 Z M 1.816406 7.804688 L 2.371094 7.804688 C 7.023438 7.804688 11.960938 5.894531 17.90625 1.792969 L 17.90625 19.128906 L 3.046875 19.128906 C 2.246094 16.613281 1.816406 13.964844 1.816406 11.257812 Z M 3.457031 20.320312 L 17.90625 20.320312 L 17.90625 35.460938 L 16.617188 34.839844 C 10.449219 31.863281 5.78125 26.570312 3.457031 20.320312 Z M 19.097656 35.527344 L 19.097656 20.320312 L 33.589844 20.320312 C 31.109375 27.070312 25.90625 32.675781 19.097656 35.527344 Z M 35.1875 11.371094 C 35.1875 14.042969 34.773438 16.652344 33.996094 19.128906 L 19.097656 19.128906 L 19.097656 1.792969 C 25.042969 5.894531 29.984375 7.804688 34.636719 7.804688 L 35.1875 7.804688 Z M 35.1875 11.371094 " fill-opacity="1" fill-rule="nonzero"/></g></svg>