<svg xmlns="http://www.w3.org/2000/svg" xmlns:xlink="http://www.w3.org/1999/xlink" width="50" zoomAndPan="magnify" viewBox="0 0 37.5 37.499999" height="50" preserveAspectRatio="xMidYMid meet" version="1.0"><defs><clipPath id="cf8ede6646"><path d="M 2.199219 0 L 34.761719 0 L 34.761719 37.007812 L 2.199219 37.007812 Z M 2.199219 0 " clip-rule="nonzero"/></clipPath></defs><g clip-path="url(#cf8ede6646)"><path fill="#0676ce" d="M 17.710938 19.386719 L 15.476562 19.386719 L 15.476562 17.152344 C 15.476562 16.820312 15.210938 16.554688 14.878906 16.554688 L 11.988281 16.554688 C 11.65625 16.554688 11.390625 16.820312 11.390625 17.152344 L 11.390625 19.386719 L 9.15625 19.386719 C 8.828125 19.386719 8.558594 19.652344 8.558594 19.984375 L 8.558594 22.875 C 8.558594 23.203125 8.828125 23.472656 9.15625 23.472656 L 11.390625 23.472656 L 11.390625 25.707031 C 11.390625 26.035156 11.65625 26.300781 11.988281 26.300781 L 14.878906 26.300781 C 15.210938 26.300781 15.476562 26.035156 15.476562 25.707031 L 15.476562 23.472656 L 17.710938 23.472656 C 18.039062 23.472656 18.308594 23.203125 18.308594 22.875 L 18.308594 19.984375 C 18.308594 19.652344 18.039062 19.386719 17.710938 19.386719 Z M 17.113281 22.277344 L 14.878906 22.277344 C 14.550781 22.277344 14.28125 22.542969 14.28125 22.875 L 14.28125 25.109375 L 12.585938 25.109375 L 12.585938 22.875 C 12.585938 22.542969 12.316406 22.277344 11.988281 22.277344 L 9.753906 22.277344 L 9.753906 20.578125 L 11.988281 20.578125 C 12.316406 20.578125 12.585938 20.3125 12.585938 19.984375 L 12.585938 17.746094 L 14.28125 17.746094 L 14.28125 19.984375 C 14.28125 20.3125 14.550781 20.578125 14.878906 20.578125 L 17.113281 20.578125 Z M 32.707031 28.511719 C 32.847656 28.234375 32.957031 27.941406 33.039062 27.632812 C 33.359375 26.4375 33.199219 25.191406 32.582031 24.125 C 31.964844 23.058594 30.96875 22.292969 29.769531 21.972656 C 28.570312 21.652344 27.324219 21.8125 26.257812 22.429688 L 24.664062 23.347656 L 24.664062 13.175781 C 24.664062 11.351562 24.164062 9.910156 23.082031 8.644531 C 22.140625 7.539062 20.859375 6.695312 19.503906 5.804688 C 19.238281 5.628906 18.96875 5.449219 18.695312 5.265625 C 19.136719 5.070312 19.449219 4.625 19.449219 4.113281 L 19.449219 1.265625 C 19.449219 0.566406 18.878906 0 18.183594 0 L 8.6875 0 C 7.988281 0 7.417969 0.566406 7.417969 1.265625 L 7.417969 4.113281 C 7.417969 4.625 7.730469 5.070312 8.171875 5.265625 C 7.898438 5.449219 7.628906 5.628906 7.363281 5.800781 C 6.007812 6.695312 4.726562 7.539062 3.785156 8.644531 C 2.703125 9.910156 2.203125 11.351562 2.203125 13.175781 L 2.203125 30.621094 C 2.203125 33.289062 4.375 35.464844 7.046875 35.464844 L 14.828125 35.464844 C 15.421875 36.128906 16.199219 36.609375 17.082031 36.84375 C 17.488281 36.953125 17.894531 37.007812 18.300781 37.007812 C 18.304688 37.007812 30.167969 37.007812 30.167969 37.007812 C 32.722656 37.007812 34.796875 34.929688 34.796875 32.375 C 34.796875 30.816406 33.996094 29.363281 32.707031 28.511719 Z M 25.660156 32.085938 L 24.550781 30.164062 L 26.808594 31.425781 Z M 28.011719 30.730469 L 23.386719 28.144531 L 22.429688 26.484375 L 29 30.160156 Z M 30.289062 29.414062 L 30.203125 29.464844 L 23.21875 25.5625 L 24.207031 24.992188 L 31.050781 28.816406 C 30.828125 29.046875 30.574219 29.25 30.289062 29.414062 Z M 31.980469 26.84375 C 31.960938 27.003906 31.929688 27.167969 31.886719 27.324219 C 31.839844 27.496094 31.785156 27.660156 31.714844 27.820312 L 25.410156 24.296875 L 26.398438 23.726562 Z M 29.460938 23.125 C 30.351562 23.363281 31.09375 23.929688 31.546875 24.71875 C 31.675781 24.9375 31.773438 25.167969 31.847656 25.402344 L 27.738281 23.105469 C 28.296875 22.96875 28.886719 22.972656 29.460938 23.125 Z M 15.964844 28.371094 C 15.78125 28.476562 15.609375 28.59375 15.445312 28.722656 L 3.394531 28.722656 L 3.394531 14.171875 L 23.472656 14.171875 L 23.472656 24.035156 Z M 8.613281 1.265625 C 8.613281 1.226562 8.648438 1.195312 8.6875 1.195312 L 18.183594 1.195312 C 18.21875 1.195312 18.253906 1.226562 18.253906 1.265625 L 18.253906 4.113281 C 18.253906 4.148438 18.21875 4.183594 18.183594 4.183594 L 8.6875 4.183594 C 8.648438 4.183594 8.613281 4.148438 8.613281 4.113281 Z M 8.019531 6.800781 C 8.691406 6.355469 9.386719 5.898438 10.09375 5.378906 L 16.773438 5.378906 C 17.480469 5.898438 18.175781 6.355469 18.847656 6.800781 C 21.476562 8.53125 23.390625 9.796875 23.46875 12.976562 L 3.398438 12.976562 C 3.476562 9.796875 5.390625 8.53125 8.019531 6.800781 Z M 3.394531 30.621094 L 3.394531 29.914062 L 14.363281 29.914062 C 13.5625 31.195312 13.410156 32.828125 14.054688 34.269531 L 7.046875 34.269531 C 5.03125 34.269531 3.394531 32.632812 3.394531 30.621094 Z M 17.394531 35.691406 C 16.503906 35.453125 15.761719 34.886719 15.304688 34.097656 C 14.359375 32.457031 14.921875 30.351562 16.5625 29.40625 L 21.191406 26.730469 L 24.628906 32.683594 L 20 35.355469 C 19.207031 35.8125 18.285156 35.929688 17.394531 35.691406 Z M 23.628906 34.636719 L 23.628906 35.8125 L 21.59375 35.8125 Z M 30.167969 35.8125 L 24.824219 35.8125 L 24.824219 33.949219 L 30.886719 30.445312 C 31.328125 30.191406 31.714844 29.875 32.042969 29.503906 C 33.003906 30.132812 33.605469 31.21875 33.605469 32.375 C 33.605469 34.269531 32.0625 35.8125 30.167969 35.8125 Z M 30.167969 35.8125 " fill-opacity="1" fill-rule="nonzero"/></g></svg>