<svg xmlns="http://www.w3.org/2000/svg" xmlns:xlink="http://www.w3.org/1999/xlink" width="50" zoomAndPan="magnify" viewBox="0 0 37.5 37.499999" height="50" preserveAspectRatio="xMidYMid meet" version="1.0"><defs><clipPath id="543fbf2c1c"><path d="M 0 0 L 37 0 L 37 36.265625 L 0 36.265625 Z M 0 0 " clip-rule="nonzero"/></clipPath></defs><path fill="#0676ce" d="M 26.683594 9.695312 C 27.019531 9.695312 27.289062 9.425781 27.289062 9.089844 C 27.289062 8.753906 27.019531 8.484375 26.683594 8.484375 C 26.347656 8.484375 26.078125 8.753906 26.078125 9.089844 C 26.078125 9.425781 26.347656 9.695312 26.683594 9.695312 " fill-opacity="1" fill-rule="nonzero"/><path fill="#0676ce" d="M 23.046875 8.484375 C 23.382812 8.484375 23.652344 8.210938 23.652344 7.878906 C 23.652344 7.542969 23.382812 7.273438 23.046875 7.273438 C 22.714844 7.273438 22.441406 7.542969 22.441406 7.878906 C 22.441406 8.210938 22.714844 8.484375 23.046875 8.484375 " fill-opacity="1" fill-rule="nonzero"/><path fill="#0676ce" d="M 19.414062 6.058594 C 19.746094 6.058594 20.019531 5.789062 20.019531 5.453125 C 20.019531 5.121094 19.746094 4.847656 19.414062 4.847656 C 19.078125 4.847656 18.804688 5.121094 18.804688 5.453125 C 18.804688 5.789062 19.078125 6.058594 19.414062 6.058594 " fill-opacity="1" fill-rule="nonzero"/><path fill="#0676ce" d="M 18.804688 9.695312 C 19.140625 9.695312 19.414062 9.425781 19.414062 9.089844 C 19.414062 8.753906 19.140625 8.484375 18.804688 8.484375 C 18.472656 8.484375 18.199219 8.753906 18.199219 9.089844 C 18.199219 9.425781 18.472656 9.695312 18.804688 9.695312 " fill-opacity="1" fill-rule="nonzero"/><path fill="#0676ce" d="M 15.777344 6.664062 C 16.109375 6.664062 16.382812 6.394531 16.382812 6.058594 C 16.382812 5.726562 16.109375 5.453125 15.777344 5.453125 C 15.441406 5.453125 15.171875 5.726562 15.171875 6.058594 C 15.171875 6.394531 15.441406 6.664062 15.777344 6.664062 " fill-opacity="1" fill-rule="nonzero"/><path fill="#0676ce" d="M 13.351562 5.453125 C 13.6875 5.453125 13.957031 5.183594 13.957031 4.847656 C 13.957031 4.511719 13.6875 4.242188 13.351562 4.242188 C 13.019531 4.242188 12.746094 4.511719 12.746094 4.847656 C 12.746094 5.183594 13.019531 5.453125 13.351562 5.453125 " fill-opacity="1" fill-rule="nonzero"/><path fill="#0676ce" d="M 10.929688 7.273438 C 11.261719 7.273438 11.535156 7 11.535156 6.664062 C 11.535156 6.332031 11.261719 6.058594 10.929688 6.058594 C 10.59375 6.058594 10.324219 6.332031 10.324219 6.664062 C 10.324219 7 10.59375 7.273438 10.929688 7.273438 " fill-opacity="1" fill-rule="nonzero"/><path fill="#0676ce" d="M 13.351562 9.089844 C 13.6875 9.089844 13.957031 8.820312 13.957031 8.484375 C 13.957031 8.148438 13.6875 7.878906 13.351562 7.878906 C 13.019531 7.878906 12.746094 8.148438 12.746094 8.484375 C 12.746094 8.820312 13.019531 9.089844 13.351562 9.089844 " fill-opacity="1" fill-rule="nonzero"/><path fill="#0676ce" d="M 7.898438 9.695312 C 8.234375 9.695312 8.503906 9.425781 8.503906 9.089844 C 8.503906 8.753906 8.234375 8.484375 7.898438 8.484375 C 7.5625 8.484375 7.292969 8.753906 7.292969 9.089844 C 7.292969 9.425781 7.5625 9.695312 7.898438 9.695312 " fill-opacity="1" fill-rule="nonzero"/><path fill="#0676ce" d="M 3.050781 30.90625 C 2.714844 30.90625 2.445312 31.175781 2.445312 31.511719 C 2.445312 31.847656 2.714844 32.117188 3.050781 32.117188 C 3.386719 32.117188 3.65625 31.847656 3.65625 31.511719 C 3.65625 31.175781 3.386719 30.90625 3.050781 30.90625 " fill-opacity="1" fill-rule="nonzero"/><path fill="#0676ce" d="M 17.59375 30.90625 C 17.257812 30.90625 16.988281 31.175781 16.988281 31.511719 C 16.988281 31.847656 17.257812 32.117188 17.59375 32.117188 C 17.929688 32.117188 18.199219 31.847656 18.199219 31.511719 C 18.199219 31.175781 17.929688 30.90625 17.59375 30.90625 " fill-opacity="1" fill-rule="nonzero"/><path fill="#0676ce" d="M 12.140625 29.085938 L 8.503906 29.085938 C 8.171875 29.085938 7.898438 29.359375 7.898438 29.691406 C 7.898438 30.027344 8.171875 30.300781 8.503906 30.300781 L 9.714844 30.300781 L 9.714844 33.328125 C 9.714844 33.664062 9.988281 33.933594 10.324219 33.933594 C 10.65625 33.933594 10.929688 33.664062 10.929688 33.328125 L 10.929688 30.300781 L 12.140625 30.300781 C 12.476562 30.300781 12.746094 30.027344 12.746094 29.691406 C 12.746094 29.359375 12.476562 29.085938 12.140625 29.085938 " fill-opacity="1" fill-rule="nonzero"/><path fill="#0676ce" d="M 31.984375 2.691406 C 32.183594 2.53125 32.257812 2.261719 32.171875 2.019531 C 32.148438 1.953125 32.136719 1.886719 32.136719 1.816406 C 32.136719 1.484375 32.410156 1.210938 32.742188 1.210938 C 33.078125 1.210938 33.351562 1.484375 33.351562 1.816406 C 33.351562 1.886719 33.335938 1.953125 33.3125 2.019531 C 33.230469 2.261719 33.304688 2.53125 33.503906 2.691406 C 33.792969 2.925781 33.957031 3.269531 33.957031 3.636719 C 33.957031 3.96875 34.226562 4.242188 34.5625 4.242188 C 34.894531 4.242188 35.167969 4.515625 35.167969 4.847656 C 35.167969 5.183594 34.894531 5.453125 34.5625 5.453125 C 34.316406 5.453125 34.097656 5.308594 34.003906 5.082031 C 33.90625 4.847656 33.679688 4.707031 33.441406 4.707031 C 33.367188 4.707031 33.285156 4.722656 33.210938 4.753906 C 33.0625 4.816406 32.90625 4.847656 32.742188 4.847656 C 32.074219 4.847656 31.53125 4.304688 31.53125 3.636719 C 31.53125 3.269531 31.695312 2.925781 31.984375 2.691406 Z M 32.742188 6.058594 C 32.890625 6.058594 33.03125 6.046875 33.171875 6.023438 C 33.511719 6.425781 34.015625 6.664062 34.5625 6.664062 C 35.5625 6.664062 36.378906 5.851562 36.378906 4.847656 C 36.378906 4.039062 35.847656 3.347656 35.113281 3.113281 C 35.023438 2.707031 34.832031 2.332031 34.550781 2.019531 C 34.558594 1.953125 34.5625 1.886719 34.5625 1.816406 C 34.5625 0.816406 33.746094 0 32.742188 0 C 31.742188 0 30.925781 0.816406 30.925781 1.816406 C 30.925781 1.886719 30.929688 1.953125 30.9375 2.019531 C 30.542969 2.460938 30.320312 3.03125 30.320312 3.636719 C 30.320312 4.972656 31.40625 6.058594 32.742188 6.058594 " fill-opacity="1" fill-rule="nonzero"/><g clip-path="url(#543fbf2c1c)"><path fill="#0676ce" d="M 26.015625 35.148438 L 25.375 29.390625 C 27.976562 29.992188 30.65625 30.300781 33.351562 30.300781 C 33.550781 30.300781 33.75 30.296875 33.953125 30.292969 L 33.414062 35.148438 Z M 23.71875 31.511719 L 24.035156 28.320312 L 24.390625 31.511719 Z M 20.140625 28.492188 L 20.605469 14.542969 L 24.195312 14.542969 L 23.953125 16.996094 C 23.097656 17.140625 22.441406 17.886719 22.441406 18.785156 C 22.441406 19.363281 22.714844 19.878906 23.136719 20.210938 L 23.394531 22.550781 L 22.5 31.511719 L 20.625 31.511719 L 20.625 29.085938 C 20.625 28.792969 20.417969 28.550781 20.140625 28.492188 Z M 19.414062 33.40625 C 18.5625 33.625 17.890625 34.296875 17.671875 35.148438 L 15.777344 35.148438 L 15.777344 27.875 L 17.671875 27.875 C 17.890625 28.726562 18.5625 29.398438 19.414062 29.617188 Z M 6.082031 35.148438 L 6.082031 27.875 L 7.691406 27.875 C 7.695312 27.875 7.695312 27.875 7.695312 27.875 C 7.695312 27.875 7.699219 27.875 7.699219 27.875 L 11.652344 27.875 C 11.65625 27.875 11.65625 27.875 11.65625 27.875 L 14.5625 27.875 L 14.5625 35.148438 Z M 1.234375 33.40625 L 1.234375 29.617188 C 2.082031 29.398438 2.753906 28.726562 2.972656 27.875 L 4.867188 27.875 L 4.867188 35.148438 L 2.972656 35.148438 C 2.753906 34.296875 2.082031 33.625 1.234375 33.40625 Z M 6.191406 14.542969 L 9.773438 14.542969 L 10.984375 26.664062 L 8.210938 26.664062 Z M 12.203125 26.664062 L 10.992188 14.542969 L 14.585938 14.542969 L 14.988281 26.664062 Z M 18.949219 27.839844 C 18.859375 27.667969 18.804688 27.472656 18.804688 27.269531 C 18.804688 26.933594 18.535156 26.664062 18.199219 26.664062 L 16.199219 26.664062 L 15.796875 14.542969 L 19.390625 14.542969 Z M 5.476562 12.121094 L 29.714844 12.121094 C 30.046875 12.121094 30.320312 12.390625 30.320312 12.726562 C 30.320312 13.058594 30.046875 13.332031 29.714844 13.332031 L 5.476562 13.332031 C 5.140625 13.332031 4.867188 13.058594 4.867188 12.726562 C 4.867188 12.390625 5.140625 12.121094 5.476562 12.121094 Z M 5.71875 7.914062 C 5.890625 7.878906 6.042969 7.769531 6.128906 7.613281 C 6.214844 7.453125 6.226562 7.269531 6.160156 7.101562 C 6.109375 6.960938 6.082031 6.816406 6.082031 6.664062 C 6.082031 5.996094 6.625 5.453125 7.292969 5.453125 C 7.476562 5.453125 7.652344 5.492188 7.8125 5.570312 C 8.046875 5.683594 8.324219 5.636719 8.503906 5.453125 C 8.6875 5.273438 8.734375 4.996094 8.621094 4.761719 C 8.542969 4.601562 8.503906 4.425781 8.503906 4.242188 C 8.503906 3.574219 9.046875 3.03125 9.714844 3.03125 C 10.105469 3.03125 10.460938 3.210938 10.691406 3.523438 C 10.820312 3.695312 11.023438 3.785156 11.234375 3.769531 C 11.445312 3.75 11.628906 3.625 11.722656 3.433594 C 12.035156 2.8125 12.65625 2.425781 13.351562 2.425781 C 13.886719 2.425781 14.390625 2.65625 14.734375 3.0625 C 14.890625 3.242188 15.136719 3.320312 15.363281 3.253906 C 15.59375 3.1875 15.761719 2.996094 15.796875 2.757812 C 15.925781 1.878906 16.699219 1.210938 17.59375 1.210938 C 18.402344 1.210938 19.125 1.753906 19.34375 2.535156 C 19.402344 2.742188 19.566406 2.902344 19.777344 2.957031 C 19.988281 3.011719 20.210938 2.945312 20.359375 2.792969 C 20.589844 2.554688 20.898438 2.425781 21.230469 2.425781 C 21.898438 2.425781 22.441406 2.96875 22.441406 3.636719 C 22.441406 3.710938 22.433594 3.789062 22.421875 3.867188 C 22.375 4.101562 22.472656 4.339844 22.667969 4.476562 C 22.863281 4.613281 23.121094 4.621094 23.328125 4.5 C 23.609375 4.332031 23.929688 4.242188 24.261719 4.242188 C 25.222656 4.242188 26.019531 4.996094 26.074219 5.957031 C 26.089844 6.1875 26.234375 6.390625 26.449219 6.480469 C 26.664062 6.570312 26.914062 6.527344 27.085938 6.371094 C 27.308594 6.171875 27.597656 6.058594 27.894531 6.058594 C 28.5625 6.058594 29.109375 6.605469 29.109375 7.273438 C 29.109375 7.574219 28.996094 7.859375 28.796875 8.082031 C 28.640625 8.253906 28.597656 8.5 28.683594 8.714844 C 28.769531 8.929688 28.96875 9.078125 29.199219 9.09375 C 29.828125 9.140625 30.320312 9.671875 30.320312 10.300781 C 30.320312 10.535156 30.25 10.761719 30.125 10.957031 C 29.992188 10.925781 29.855469 10.90625 29.714844 10.90625 L 5.476562 10.90625 C 5.25 10.90625 5.039062 10.949219 4.839844 11.023438 C 4.476562 10.683594 4.261719 10.203125 4.261719 9.695312 C 4.261719 8.835938 4.875 8.085938 5.71875 7.914062 Z M 25.171875 16.96875 L 25.414062 14.542969 L 29 14.542969 L 28.59375 16.96875 Z M 35.773438 18.785156 C 35.773438 19.121094 35.5 19.390625 35.167969 19.390625 L 24.261719 19.390625 C 23.925781 19.390625 23.652344 19.121094 23.652344 18.785156 C 23.652344 18.453125 23.925781 18.179688 24.261719 18.179688 L 35.167969 18.179688 C 35.5 18.179688 35.773438 18.453125 35.773438 18.785156 Z M 24.808594 24.28125 L 24.398438 20.601562 L 35.03125 20.601562 L 34.277344 27.390625 C 30.976562 26.828125 27.800781 25.785156 24.808594 24.28125 Z M 34.085938 29.078125 C 33.839844 29.085938 33.59375 29.085938 33.351562 29.085938 C 30.601562 29.085938 27.875 28.757812 25.230469 28.109375 L 24.964844 25.710938 C 27.878906 27.09375 30.957031 28.0625 34.140625 28.597656 Z M 35.167969 16.96875 L 33.351562 16.96875 L 33.351562 12.976562 L 35.597656 10.730469 C 35.832031 10.492188 35.832031 10.109375 35.597656 9.875 C 35.359375 9.636719 34.976562 9.636719 34.738281 9.875 L 32.316406 12.296875 C 32.203125 12.410156 32.136719 12.566406 32.136719 12.726562 L 32.136719 16.96875 L 29.824219 16.96875 L 30.242188 14.464844 C 30.988281 14.238281 31.53125 13.546875 31.53125 12.726562 C 31.53125 12.304688 31.386719 11.917969 31.148438 11.609375 C 31.394531 11.222656 31.53125 10.769531 31.53125 10.300781 C 31.53125 9.355469 30.976562 8.519531 30.167969 8.121094 C 30.265625 7.851562 30.320312 7.566406 30.320312 7.273438 C 30.320312 5.933594 29.234375 4.847656 27.894531 4.847656 C 27.621094 4.847656 27.347656 4.894531 27.09375 4.984375 C 26.65625 3.835938 25.546875 3.03125 24.261719 3.03125 C 24.035156 3.03125 23.8125 3.054688 23.59375 3.105469 C 23.351562 2.023438 22.382812 1.210938 21.230469 1.210938 C 20.859375 1.210938 20.503906 1.292969 20.179688 1.449219 C 19.636719 0.570312 18.664062 0 17.59375 0 C 16.445312 0 15.414062 0.660156 14.902344 1.640625 C 14.441406 1.363281 13.90625 1.210938 13.351562 1.210938 C 12.464844 1.210938 11.644531 1.59375 11.078125 2.238281 C 10.679688 1.96875 10.207031 1.816406 9.714844 1.816406 C 8.378906 1.816406 7.292969 2.90625 7.292969 4.242188 C 5.957031 4.242188 4.867188 5.328125 4.867188 6.664062 C 4.867188 6.75 4.871094 6.832031 4.882812 6.914062 C 3.792969 7.382812 3.050781 8.472656 3.050781 9.695312 C 3.050781 10.492188 3.367188 11.246094 3.90625 11.804688 C 3.75 12.074219 3.65625 12.390625 3.65625 12.726562 C 3.65625 13.546875 4.203125 14.238281 4.949219 14.464844 L 6.980469 26.664062 L 2.445312 26.664062 C 2.109375 26.664062 1.839844 26.933594 1.839844 27.269531 C 1.839844 27.9375 1.296875 28.480469 0.625 28.480469 C 0.292969 28.480469 0.0195312 28.753906 0.0195312 29.085938 L 0.0195312 33.933594 C 0.0195312 34.269531 0.292969 34.539062 0.625 34.539062 C 1.296875 34.539062 1.839844 35.085938 1.839844 35.753906 C 1.839844 36.085938 2.109375 36.359375 2.445312 36.359375 L 18.199219 36.359375 C 18.535156 36.359375 18.804688 36.085938 18.804688 35.753906 C 18.804688 35.085938 19.351562 34.539062 20.019531 34.539062 C 20.351562 34.539062 20.625 34.269531 20.625 33.933594 L 20.625 32.722656 L 24.527344 32.722656 L 24.871094 35.820312 C 24.902344 36.125 25.164062 36.359375 25.472656 36.359375 L 33.957031 36.359375 C 34.265625 36.359375 34.523438 36.125 34.558594 35.820312 L 36.292969 20.210938 C 36.714844 19.878906 36.984375 19.363281 36.984375 18.785156 C 36.984375 17.78125 36.171875 16.96875 35.167969 16.96875 " fill-opacity="1" fill-rule="nonzero"/></g><path fill="#0676ce" d="M 2.445312 1.816406 C 2.476562 1.816406 2.511719 1.820312 2.550781 1.824219 C 2.789062 1.84375 3.011719 1.726562 3.128906 1.519531 C 3.238281 1.328125 3.441406 1.210938 3.65625 1.210938 C 3.992188 1.210938 4.261719 1.484375 4.261719 1.816406 C 4.261719 2.035156 4.144531 2.238281 3.957031 2.34375 C 3.75 2.460938 3.632812 2.6875 3.652344 2.921875 C 3.65625 2.960938 3.65625 2.996094 3.65625 3.03125 C 3.65625 3.699219 3.113281 4.242188 2.445312 4.242188 C 1.777344 4.242188 1.234375 3.699219 1.234375 3.03125 C 1.234375 2.363281 1.777344 1.816406 2.445312 1.816406 Z M 2.445312 5.453125 C 3.734375 5.453125 4.789062 4.445312 4.863281 3.175781 C 5.246094 2.835938 5.476562 2.339844 5.476562 1.816406 C 5.476562 0.816406 4.660156 0 3.65625 0 C 3.132812 0 2.640625 0.226562 2.300781 0.609375 C 1.03125 0.6875 0.0195312 1.742188 0.0195312 3.03125 C 0.0195312 4.367188 1.109375 5.453125 2.445312 5.453125 " fill-opacity="1" fill-rule="nonzero"/><path fill="#0676ce" d="M 2.042969 21.882812 C 2.304688 21.792969 2.472656 21.535156 2.449219 21.261719 C 2.445312 21.242188 2.445312 21.226562 2.445312 21.210938 C 2.445312 20.875 2.714844 20.601562 3.050781 20.601562 C 3.386719 20.601562 3.65625 20.875 3.65625 21.210938 C 3.65625 21.398438 3.574219 21.53125 3.503906 21.613281 C 3.316406 21.816406 3.296875 22.125 3.449219 22.355469 C 3.507812 22.441406 3.554688 22.535156 3.589844 22.628906 C 3.679688 22.886719 3.9375 23.054688 4.210938 23.03125 C 4.226562 23.027344 4.246094 23.027344 4.261719 23.027344 C 4.597656 23.027344 4.867188 23.300781 4.867188 23.632812 C 4.867188 23.96875 4.597656 24.238281 4.261719 24.238281 C 4.074219 24.238281 3.941406 24.15625 3.859375 24.085938 C 3.746094 23.984375 3.601562 23.929688 3.457031 23.929688 C 3.339844 23.929688 3.222656 23.964844 3.121094 24.035156 C 2.921875 24.167969 2.6875 24.238281 2.445312 24.238281 C 1.777344 24.238281 1.234375 23.695312 1.234375 23.027344 C 1.234375 22.511719 1.558594 22.054688 2.042969 21.882812 Z M 2.445312 25.453125 C 2.785156 25.453125 3.117188 25.378906 3.425781 25.246094 C 3.679688 25.378906 3.96875 25.453125 4.261719 25.453125 C 5.265625 25.453125 6.082031 24.636719 6.082031 23.632812 C 6.082031 22.796875 5.511719 22.089844 4.742188 21.878906 C 4.824219 21.667969 4.867188 21.441406 4.867188 21.210938 C 4.867188 20.207031 4.054688 19.390625 3.050781 19.390625 C 2.148438 19.390625 1.398438 20.050781 1.257812 20.914062 C 0.503906 21.339844 0.0195312 22.140625 0.0195312 23.027344 C 0.0195312 24.363281 1.109375 25.453125 2.445312 25.453125 " fill-opacity="1" fill-rule="nonzero"/></svg>