<svg xmlns="http://www.w3.org/2000/svg" xmlns:xlink="http://www.w3.org/1999/xlink" width="50" zoomAndPan="magnify" viewBox="0 0 37.5 37.499999" height="50" preserveAspectRatio="xMidYMid meet" version="1.0"><defs><clipPath id="146f538828"><path d="M 0 0 L 37 0 L 37 37.007812 L 0 37.007812 Z M 0 0 " clip-rule="nonzero"/></clipPath></defs><g clip-path="url(#146f538828)"><path fill="#0676ce" d="M 16.890625 0.03125 C 15.660156 0.046875 14.542969 0.785156 13.957031 1.820312 C 13.878906 1.621094 13.75 1.386719 13.503906 1.21875 C 13.191406 1.007812 12.84375 1.019531 12.625 1.042969 C 12.402344 1.0625 12.289062 1.078125 12.164062 1.027344 C 12.035156 0.96875 11.964844 0.871094 11.828125 0.695312 C 11.691406 0.515625 11.464844 0.253906 11.09375 0.171875 C 10.722656 0.0898438 10.410156 0.222656 10.199219 0.320312 C 9.988281 0.421875 9.867188 0.480469 9.71875 0.476562 C 9.574219 0.476562 9.488281 0.414062 9.304688 0.296875 C 9.121094 0.183594 8.816406 0.0234375 8.4375 0.078125 C 8.058594 0.132812 7.804688 0.355469 7.628906 0.519531 C 7.449219 0.683594 7.328125 0.792969 7.167969 0.847656 C 7.007812 0.898438 6.910156 0.875 6.695312 0.832031 C 6.484375 0.789062 6.144531 0.757812 5.804688 0.9375 C 5.464844 1.113281 5.277344 1.390625 5.148438 1.605469 C 5.015625 1.820312 4.925781 1.972656 4.765625 2.089844 C 4.605469 2.203125 4.492188 2.21875 4.269531 2.257812 C 4.050781 2.300781 3.730469 2.386719 3.453125 2.65625 C 3.175781 2.929688 3.066406 3.246094 2.996094 3.488281 C 2.921875 3.730469 2.875 3.902344 2.742188 4.074219 C 2.609375 4.246094 2.480469 4.3125 2.277344 4.425781 C 2.074219 4.542969 1.796875 4.722656 1.597656 5.0625 C 1.402344 5.402344 1.382812 5.734375 1.375 5.980469 C 1.363281 6.226562 1.375 6.398438 1.285156 6.609375 C 1.195312 6.820312 1.082031 6.933594 0.910156 7.109375 C 0.742188 7.289062 0.523438 7.539062 0.421875 7.917969 C 0.320312 8.296875 0.386719 8.621094 0.449219 8.851562 C 0.511719 9.082031 0.558594 9.222656 0.527344 9.445312 C 0.5 9.667969 0.410156 9.820312 0.292969 10.042969 C 0.171875 10.265625 0.0273438 10.5625 0.0273438 10.953125 C 0.0273438 11.34375 0.191406 11.632812 0.316406 11.824219 C 0.441406 12.011719 0.515625 12.113281 0.546875 12.316406 C 0.574219 12.519531 0.53125 12.691406 0.472656 12.9375 C 0.414062 13.183594 0.347656 13.511719 0.460938 13.882812 C 0.570312 14.25 0.824219 14.472656 1 14.601562 C 1.175781 14.734375 1.261719 14.789062 1.339844 14.949219 C 1.359375 14.980469 1.378906 15.015625 1.402344 15.042969 L 1.402344 16.996094 C 0.617188 17.074219 -0.00390625 17.742188 -0.00390625 18.550781 L -0.00390625 20.820312 C -0.00390625 21.574219 0.539062 22.207031 1.253906 22.351562 L 4.367188 33.507812 C 4.613281 34.386719 4.917969 35.234375 5.394531 35.898438 C 5.867188 36.558594 6.554688 37.03125 7.429688 37.03125 L 29.515625 37.03125 C 30.390625 37.03125 31.078125 36.558594 31.550781 35.898438 C 32.023438 35.234375 32.328125 34.386719 32.578125 33.507812 L 35.691406 22.351562 C 36.40625 22.207031 36.949219 21.574219 36.949219 20.820312 L 36.949219 18.550781 C 36.949219 17.761719 36.359375 17.109375 35.601562 17.003906 C 35.613281 16.988281 35.621094 16.984375 35.628906 16.976562 C 35.632812 16.972656 35.636719 16.964844 35.640625 16.960938 C 35.90625 16.609375 35.90625 16.226562 35.925781 15.949219 C 35.945312 15.683594 35.964844 15.527344 36.070312 15.414062 C 36.621094 14.984375 36.925781 14.195312 36.5625 13.507812 C 36.53125 13.371094 36.585938 13.226562 36.703125 12.988281 C 36.824219 12.726562 37.027344 12.375 36.9375 11.929688 C 36.929688 11.882812 36.914062 11.839844 36.890625 11.800781 C 36.746094 11.558594 36.609375 11.339844 36.539062 11.148438 C 36.472656 10.953125 36.457031 10.8125 36.539062 10.621094 C 36.542969 10.613281 36.546875 10.609375 36.550781 10.601562 C 36.632812 10.382812 36.640625 10.148438 36.574219 9.953125 C 36.507812 9.757812 36.386719 9.617188 36.269531 9.507812 C 36.054688 9.304688 35.859375 9.175781 35.769531 9.078125 C 35.730469 8.976562 35.710938 8.753906 35.644531 8.460938 C 35.613281 8.3125 35.558594 8.136719 35.429688 7.976562 C 35.304688 7.816406 35.101562 7.695312 34.871094 7.644531 C 34.832031 7.636719 34.789062 7.636719 34.75 7.644531 C 34.582031 7.660156 34.519531 7.625 34.410156 7.503906 C 34.300781 7.382812 34.191406 7.171875 34.09375 6.957031 C 34.082031 6.925781 34.0625 6.894531 34.039062 6.871094 C 33.878906 6.675781 33.644531 6.574219 33.445312 6.550781 C 33.253906 6.523438 33.085938 6.550781 32.949219 6.570312 C 32.808594 6.589844 32.699219 6.601562 32.636719 6.59375 C 32.582031 6.574219 32.570312 6.574219 32.539062 6.550781 C 32.3125 6.234375 31.96875 6.050781 31.628906 6.027344 C 31.277344 5.996094 30.933594 6.121094 30.644531 6.324219 L 30.664062 6.308594 C 30.605469 6.347656 30.585938 6.347656 30.535156 6.34375 C 30.480469 6.34375 30.394531 6.308594 30.277344 6.265625 C 30.050781 6.175781 29.660156 6 29.242188 6.195312 C 29.238281 6.195312 29.234375 6.195312 29.230469 6.195312 C 28.945312 6.339844 28.75 6.523438 28.578125 6.660156 L 29.109375 5.738281 C 29.640625 4.820312 29.324219 3.640625 28.40625 3.109375 C 27.488281 2.578125 26.304688 2.898438 25.777344 3.8125 L 23.480469 7.785156 C 22.269531 5.691406 21.074219 3.578125 19.832031 1.492188 C 19.824219 1.484375 19.820312 1.476562 19.8125 1.46875 C 19.191406 0.585938 18.160156 0.0429688 17.082031 0.0234375 C 17.019531 0.0234375 16.957031 0.0234375 16.898438 0.0234375 Z M 16.90625 0.800781 C 16.949219 0.800781 16.996094 0.800781 17.042969 0.800781 C 17.046875 0.800781 17.050781 0.800781 17.054688 0.800781 C 17.878906 0.816406 18.695312 1.242188 19.171875 1.914062 C 19.4375 2.351562 19.695312 2.792969 19.953125 3.238281 L 18.953125 6.96875 C 18.894531 7.175781 19.015625 7.394531 19.226562 7.449219 C 19.433594 7.503906 19.644531 7.378906 19.699219 7.171875 L 20.5 4.175781 C 20.914062 4.894531 21.328125 5.613281 21.746094 6.335938 L 20.742188 10.070312 C 20.679688 10.28125 20.800781 10.5 21.011719 10.554688 C 21.222656 10.613281 21.441406 10.484375 21.488281 10.269531 L 22.289062 7.28125 C 22.535156 7.710938 22.785156 8.136719 23.03125 8.566406 L 19.921875 13.953125 C 18.472656 11.441406 17.019531 8.929688 15.570312 6.417969 C 15.058594 5.429688 14.382812 4.625 14.304688 3.695312 C 14.304688 3.691406 14.304688 3.683594 14.304688 3.679688 C 14.152344 2.226562 15.460938 0.8125 16.90625 0.792969 Z M 8.640625 0.832031 C 8.722656 0.832031 8.773438 0.875 8.894531 0.953125 C 9.058594 1.050781 9.320312 1.230469 9.6875 1.246094 C 10.058594 1.261719 10.339844 1.105469 10.527344 1.015625 C 10.71875 0.925781 10.792969 0.894531 10.921875 0.925781 C 11.050781 0.953125 11.089844 1.003906 11.214844 1.164062 C 11.335938 1.320312 11.515625 1.585938 11.855469 1.730469 C 12.191406 1.878906 12.507812 1.832031 12.703125 1.808594 C 12.894531 1.789062 12.957031 1.78125 13.066406 1.855469 C 13.175781 1.933594 13.214844 2.019531 13.285156 2.222656 C 13.339844 2.386719 13.410156 2.625 13.578125 2.847656 C 13.523438 3.144531 13.507812 3.453125 13.535156 3.765625 C 13.585938 4.382812 13.808594 4.917969 14.078125 5.402344 C 13.980469 5.402344 13.902344 5.386719 13.808594 5.351562 C 13.664062 5.292969 13.578125 5.210938 13.433594 5.074219 C 13.289062 4.941406 13.078125 4.761719 12.769531 4.679688 C 12.457031 4.601562 12.183594 4.664062 12.011719 4.71875 C 11.84375 4.773438 11.773438 4.804688 11.632812 4.789062 C 11.496094 4.769531 11.386719 4.714844 11.214844 4.621094 C 11.039062 4.527344 10.789062 4.40625 10.46875 4.414062 C 10.148438 4.429688 9.90625 4.585938 9.769531 4.691406 C 9.636719 4.792969 9.59375 4.835938 9.480469 4.859375 C 9.363281 4.878906 9.253906 4.859375 9.066406 4.808594 C 8.875 4.765625 8.597656 4.710938 8.296875 4.824219 C 8 4.933594 7.824219 5.179688 7.742188 5.324219 C 7.65625 5.472656 7.632812 5.515625 7.554688 5.5625 C 7.46875 5.609375 7.375 5.617188 7.191406 5.628906 C 7.007812 5.644531 6.71875 5.671875 6.476562 5.878906 C 6.230469 6.089844 6.164062 6.382812 6.132812 6.550781 C 6.113281 6.667969 6.105469 6.734375 6.082031 6.78125 L 3.320312 6.78125 C 3.109375 6.78125 2.933594 6.957031 2.933594 7.167969 L 2.933594 9.09375 C 2.933594 9.839844 2.636719 10.195312 2.269531 10.585938 C 2.085938 10.78125 1.882812 10.96875 1.707031 11.210938 C 1.535156 11.453125 1.394531 11.761719 1.394531 12.125 L 1.394531 13.945312 C 1.285156 13.863281 1.238281 13.8125 1.191406 13.664062 C 1.136719 13.484375 1.164062 13.347656 1.214844 13.121094 C 1.269531 12.894531 1.355469 12.585938 1.300781 12.210938 C 1.246094 11.832031 1.066406 11.578125 0.957031 11.40625 C 0.847656 11.234375 0.796875 11.164062 0.792969 10.953125 C 0.792969 10.742188 0.855469 10.617188 0.964844 10.410156 C 1.074219 10.207031 1.234375 9.933594 1.285156 9.546875 C 1.335938 9.167969 1.246094 8.867188 1.1875 8.65625 C 1.132812 8.449219 1.105469 8.335938 1.160156 8.121094 C 1.21875 7.90625 1.304688 7.808594 1.460938 7.648438 C 1.617188 7.484375 1.84375 7.265625 1.992188 6.90625 C 2.136719 6.550781 2.132812 6.230469 2.140625 6.003906 C 2.140625 5.777344 2.152344 5.640625 2.261719 5.449219 C 2.371094 5.261719 2.464844 5.207031 2.652344 5.101562 C 2.835938 4.996094 3.113281 4.855469 3.347656 4.550781 C 3.582031 4.246094 3.664062 3.9375 3.730469 3.710938 C 3.796875 3.488281 3.84375 3.351562 3.988281 3.210938 C 4.128906 3.070312 4.210938 3.058594 4.40625 3.023438 C 4.601562 2.984375 4.910156 2.9375 5.214844 2.714844 C 5.523438 2.492188 5.675781 2.210938 5.796875 2.015625 C 5.921875 1.820312 6 1.707031 6.15625 1.625 C 6.3125 1.542969 6.367188 1.5625 6.554688 1.59375 C 6.742188 1.625 7.046875 1.695312 7.402344 1.578125 C 7.757812 1.460938 7.980469 1.234375 8.144531 1.082031 C 8.308594 0.933594 8.398438 0.859375 8.542969 0.835938 C 8.582031 0.835938 8.609375 0.820312 8.636719 0.820312 Z M 27.464844 3.628906 C 27.652344 3.628906 27.839844 3.683594 28.011719 3.789062 C 28.574219 4.109375 28.757812 4.804688 28.4375 5.363281 L 24.953125 11.398438 C 24.925781 11.429688 24.90625 11.464844 24.890625 11.503906 L 21.617188 17.175781 C 21.617188 17.179688 21.617188 17.1875 21.617188 17.191406 L 20.359375 19.371094 C 20.035156 19.933594 19.339844 20.117188 18.78125 19.796875 C 18.5 19.632812 18.316406 19.378906 18.238281 19.097656 C 18.226562 19.058594 18.222656 19.023438 18.21875 18.988281 C 18.191406 18.804688 18.203125 18.617188 18.265625 18.433594 C 18.289062 18.359375 18.324219 18.289062 18.363281 18.21875 L 18.515625 17.953125 L 18.734375 17.578125 L 20.257812 14.933594 C 20.960938 13.71875 21.664062 12.5 22.367188 11.28125 L 26.441406 4.226562 C 26.664062 3.839844 27.0625 3.632812 27.46875 3.644531 Z M 10.496094 5.183594 C 10.613281 5.183594 10.695312 5.21875 10.851562 5.300781 C 11.011719 5.382812 11.234375 5.519531 11.546875 5.554688 C 11.859375 5.589844 12.105469 5.503906 12.25 5.457031 C 12.398438 5.410156 12.4375 5.390625 12.574219 5.425781 C 12.714844 5.464844 12.78125 5.519531 12.910156 5.640625 C 13.039062 5.761719 13.226562 5.949219 13.519531 6.070312 C 13.8125 6.1875 14.070312 6.179688 14.234375 6.179688 C 14.390625 6.179688 14.460938 6.179688 14.578125 6.242188 C 14.691406 6.429688 14.800781 6.613281 14.894531 6.789062 C 14.898438 6.796875 14.902344 6.800781 14.90625 6.808594 C 15.261719 7.425781 15.621094 8.042969 15.976562 8.664062 C 15.90625 8.664062 15.835938 8.664062 15.765625 8.679688 C 15.019531 8.746094 14.285156 9.074219 13.820312 9.726562 C 13.421875 10.234375 13.199219 10.863281 13.171875 11.503906 C 13.089844 11.371094 13.015625 11.234375 12.957031 11.09375 C 12.753906 10.597656 12.734375 10.097656 12.9375 9.738281 C 13.085938 9.480469 12.898438 9.15625 12.601562 9.15625 C 12.460938 9.15625 12.332031 9.234375 12.265625 9.359375 C 11.910156 9.988281 11.976562 10.738281 12.242188 11.382812 C 12.34375 11.628906 12.472656 11.863281 12.625 12.078125 C 12.203125 12.09375 11.789062 12.1875 11.410156 12.363281 L 11.410156 12.125 C 11.410156 11.765625 11.273438 11.457031 11.097656 11.214844 C 10.921875 10.972656 10.71875 10.785156 10.535156 10.589844 C 10.167969 10.199219 9.871094 9.84375 9.871094 9.097656 L 9.871094 7.171875 C 9.871094 6.960938 9.699219 6.785156 9.484375 6.785156 L 6.882812 6.785156 C 6.898438 6.746094 6.898438 6.707031 6.902344 6.675781 C 6.921875 6.53125 6.921875 6.519531 6.976562 6.46875 C 7.039062 6.421875 7.085938 6.414062 7.246094 6.402344 C 7.410156 6.386719 7.671875 6.386719 7.941406 6.234375 C 8.214844 6.082031 8.339844 5.84375 8.410156 5.722656 C 8.480469 5.597656 8.476562 5.589844 8.566406 5.554688 C 8.660156 5.523438 8.730469 5.535156 8.898438 5.570312 C 9.066406 5.609375 9.320312 5.679688 9.625 5.621094 C 9.933594 5.566406 10.136719 5.394531 10.25 5.304688 C 10.363281 5.214844 10.375 5.195312 10.496094 5.195312 Z M 31.511719 6.792969 C 31.53125 6.792969 31.546875 6.792969 31.5625 6.792969 C 31.699219 6.808594 31.804688 6.851562 31.914062 7.011719 C 31.921875 7.027344 31.933594 7.039062 31.945312 7.054688 C 32.113281 7.242188 32.347656 7.335938 32.542969 7.355469 C 32.738281 7.378906 32.90625 7.339844 33.042969 7.332031 C 33.179688 7.316406 33.289062 7.304688 33.34375 7.3125 C 33.398438 7.328125 33.402344 7.328125 33.433594 7.355469 C 33.53125 7.570312 33.636719 7.808594 33.835938 8.019531 C 34.042969 8.246094 34.371094 8.429688 34.75 8.410156 C 34.792969 8.429688 34.804688 8.441406 34.816406 8.457031 C 34.839844 8.480469 34.863281 8.539062 34.886719 8.628906 C 34.925781 8.816406 34.910156 9.128906 35.078125 9.460938 C 35.089844 9.480469 35.101562 9.5 35.117188 9.519531 C 35.332031 9.804688 35.597656 9.945312 35.730469 10.070312 C 35.796875 10.132812 35.824219 10.175781 35.832031 10.203125 C 35.84375 10.226562 35.847656 10.25 35.820312 10.335938 C 35.664062 10.710938 35.695312 11.097656 35.804688 11.40625 C 35.902344 11.675781 36.042969 11.894531 36.167969 12.097656 C 36.191406 12.230469 36.128906 12.394531 36.003906 12.65625 C 35.871094 12.925781 35.6875 13.316406 35.824219 13.761719 C 35.835938 13.792969 35.847656 13.820312 35.863281 13.847656 C 36.046875 14.160156 35.882812 14.59375 35.570312 14.824219 C 35.550781 14.839844 35.53125 14.851562 35.515625 14.871094 C 35.207031 15.199219 35.171875 15.605469 35.152344 15.898438 C 35.128906 16.191406 35.109375 16.375 35.023438 16.488281 C 34.898438 16.636719 34.648438 16.753906 34.363281 16.992188 L 28.789062 16.992188 C 28.695312 16.828125 28.597656 16.664062 28.503906 16.503906 C 28.601562 16.332031 28.703125 16.164062 28.796875 15.992188 L 31.996094 15.132812 C 32.441406 15.023438 32.355469 14.367188 31.898438 14.371094 C 31.863281 14.375 31.832031 14.378906 31.796875 14.390625 L 29.34375 15.050781 C 29.679688 14.46875 30.015625 13.890625 30.351562 13.308594 L 33.550781 12.445312 C 33.992188 12.332031 33.90625 11.683594 33.453125 11.6875 C 33.417969 11.6875 33.382812 11.691406 33.351562 11.703125 L 30.894531 12.363281 C 31.347656 11.578125 31.800781 10.796875 32.253906 10.011719 C 32.40625 9.757812 32.222656 9.433594 31.925781 9.429688 C 31.785156 9.429688 31.65625 9.503906 31.585938 9.628906 C 31.140625 10.398438 30.699219 11.167969 30.253906 11.9375 L 29.617188 9.546875 C 29.574219 9.378906 29.421875 9.257812 29.25 9.253906 C 28.992188 9.25 28.800781 9.496094 28.871094 9.746094 L 29.707031 12.882812 C 29.371094 13.464844 29.035156 14.042969 28.703125 14.625 L 28.0625 12.234375 C 28.019531 12.066406 27.871094 11.949219 27.699219 11.945312 C 27.4375 11.9375 27.246094 12.183594 27.320312 12.433594 L 28.15625 15.570312 C 28.121094 15.625 28.089844 15.679688 28.058594 15.734375 C 27.277344 14.371094 26.488281 13.011719 25.703125 11.652344 L 28.019531 7.636719 C 28.394531 7.671875 28.722656 7.519531 28.953125 7.355469 C 29.210938 7.175781 29.402344 6.988281 29.566406 6.90625 C 29.660156 6.863281 29.742188 6.890625 29.988281 6.992188 C 30.113281 7.042969 30.265625 7.101562 30.453125 7.121094 C 30.644531 7.136719 30.875 7.097656 31.074219 6.96875 C 31.078125 6.964844 31.082031 6.960938 31.085938 6.953125 C 31.230469 6.851562 31.382812 6.796875 31.511719 6.792969 Z M 3.707031 7.550781 L 9.09375 7.550781 L 9.09375 8.703125 L 3.707031 8.703125 Z M 16.125 9.429688 C 16.21875 9.429688 16.3125 9.449219 16.40625 9.453125 C 16.414062 9.453125 16.421875 9.453125 16.433594 9.453125 C 17.449219 11.207031 18.460938 12.964844 19.476562 14.722656 L 18.167969 16.988281 L 11.292969 16.988281 C 11.28125 16.972656 11.261719 16.949219 11.246094 16.933594 C 10.617188 16.125 10.367188 14.953125 10.742188 14.015625 C 11.195312 13.03125 12.5625 12.53125 13.566406 12.945312 C 13.910156 13.121094 14.265625 12.730469 14.066406 12.402344 C 13.785156 11.683594 13.945312 10.800781 14.429688 10.183594 C 14.433594 10.179688 14.4375 10.175781 14.441406 10.167969 C 14.800781 9.660156 15.46875 9.417969 16.125 9.429688 Z M 3.679688 9.476562 L 9.121094 9.476562 C 9.226562 10.234375 9.625 10.742188 9.96875 11.113281 C 10.171875 11.324219 10.351562 11.5 10.46875 11.660156 C 10.582031 11.820312 10.632812 11.945312 10.632812 12.121094 L 10.632812 12.871094 C 10.386719 13.101562 10.179688 13.378906 10.03125 13.703125 C 10.027344 13.707031 10.023438 13.714844 10.019531 13.71875 C 9.582031 14.800781 9.769531 16.023438 10.34375 16.992188 L 2.160156 16.992188 L 2.160156 15.777344 L 4.078125 15.777344 C 4.589844 15.773438 4.589844 15.011719 4.078125 15.007812 L 2.160156 15.007812 L 2.160156 14.035156 L 5.621094 14.035156 C 6.128906 14.03125 6.128906 13.269531 5.621094 13.265625 L 2.160156 13.265625 L 2.160156 12.121094 C 2.160156 11.945312 2.214844 11.816406 2.328125 11.660156 C 2.445312 11.5 2.625 11.324219 2.828125 11.113281 C 3.171875 10.742188 3.570312 10.234375 3.675781 9.476562 Z M 25.253906 12.417969 C 25.273438 12.460938 25.300781 12.5 25.324219 12.539062 L 24.320312 16.273438 C 24.265625 16.480469 24.386719 16.695312 24.59375 16.753906 C 24.800781 16.808594 25.015625 16.683594 25.066406 16.472656 L 25.871094 13.480469 C 26.542969 14.652344 27.21875 15.820312 27.894531 16.992188 L 22.613281 16.992188 Z M 1.550781 17.761719 L 17.722656 17.761719 L 17.699219 17.808594 L 17.683594 17.824219 C 17.671875 17.84375 17.671875 17.847656 17.667969 17.855469 C 17.648438 17.890625 17.625 17.929688 17.609375 17.96875 C 17.609375 17.984375 17.59375 17.984375 17.59375 17.996094 C 17.582031 18.027344 17.570312 18.058594 17.558594 18.085938 C 17.558594 18.105469 17.558594 18.105469 17.546875 18.113281 C 17.53125 18.15625 17.511719 18.203125 17.5 18.246094 C 17.5 18.265625 17.5 18.265625 17.488281 18.269531 C 17.488281 18.285156 17.488281 18.285156 17.488281 18.289062 C 17.46875 18.371094 17.453125 18.449219 17.441406 18.53125 L 17.441406 18.5625 C 17.429688 18.617188 17.429688 18.679688 17.429688 18.734375 C 17.429688 18.921875 17.445312 19.105469 17.492188 19.285156 C 17.507812 19.316406 17.511719 19.34375 17.519531 19.375 C 17.660156 19.816406 17.957031 20.207031 18.386719 20.457031 C 19.132812 20.886719 20.054688 20.757812 20.65625 20.203125 C 20.796875 20.074219 20.917969 19.921875 21.015625 19.75 L 22.164062 17.761719 L 35.382812 17.761719 C 35.824219 17.761719 36.171875 18.109375 36.171875 18.550781 L 36.171875 20.820312 C 36.171875 21.265625 35.824219 21.609375 35.382812 21.609375 L 1.605469 21.609375 C 1.585938 21.609375 1.566406 21.609375 1.550781 21.609375 C 1.535156 21.609375 1.515625 21.609375 1.5 21.609375 C 1.082031 21.589844 0.757812 21.253906 0.757812 20.824219 L 0.757812 18.554688 C 0.757812 18.109375 1.105469 17.765625 1.546875 17.765625 Z M 2.058594 22.382812 L 34.878906 22.382812 L 31.832031 33.304688 C 31.59375 34.144531 31.300781 34.917969 30.921875 35.449219 C 30.539062 35.980469 30.125 36.261719 29.507812 36.261719 L 7.425781 36.261719 C 6.8125 36.261719 6.394531 35.980469 6.015625 35.449219 C 5.636719 34.917969 5.34375 34.144531 5.105469 33.304688 Z M 10.785156 24.699219 C 10.574219 24.703125 10.402344 24.878906 10.40625 25.089844 L 10.40625 30.375 C 10.40625 30.589844 10.578125 30.765625 10.792969 30.765625 C 11.003906 30.765625 11.175781 30.589844 11.175781 30.375 L 11.175781 25.089844 C 11.179688 24.875 11.003906 24.695312 10.785156 24.699219 Z M 14.625 24.699219 C 14.410156 24.703125 14.242188 24.878906 14.242188 25.089844 L 14.242188 26.148438 C 14.242188 26.363281 14.417969 26.535156 14.628906 26.535156 C 14.84375 26.535156 15.015625 26.363281 15.015625 26.148438 L 15.015625 25.089844 C 15.019531 24.875 14.839844 24.695312 14.625 24.699219 Z M 18.460938 24.699219 C 18.25 24.703125 18.078125 24.878906 18.082031 25.089844 L 18.082031 30.375 C 18.082031 30.589844 18.257812 30.765625 18.46875 30.765625 C 18.679688 30.765625 18.855469 30.589844 18.855469 30.375 L 18.855469 25.089844 C 18.859375 24.875 18.679688 24.695312 18.460938 24.699219 Z M 22.300781 24.699219 C 22.085938 24.703125 21.917969 24.878906 21.921875 25.089844 L 21.921875 26.148438 C 21.925781 26.660156 22.6875 26.660156 22.691406 26.148438 L 22.691406 25.089844 C 22.695312 24.875 22.519531 24.695312 22.300781 24.699219 Z M 26.136719 24.699219 C 25.925781 24.703125 25.753906 24.878906 25.757812 25.089844 L 25.757812 30.375 C 25.757812 30.589844 25.929688 30.765625 26.144531 30.765625 C 26.359375 30.765625 26.53125 30.589844 26.53125 30.375 L 26.53125 25.089844 C 26.535156 24.875 26.355469 24.695312 26.136719 24.699219 Z M 14.625 27.871094 C 14.410156 27.875 14.242188 28.050781 14.242188 28.261719 L 14.242188 33.546875 C 14.242188 33.761719 14.417969 33.9375 14.628906 33.9375 C 14.84375 33.9375 15.015625 33.761719 15.015625 33.546875 L 15.015625 28.261719 C 15.019531 28.046875 14.839844 27.867188 14.625 27.871094 Z M 22.300781 27.871094 C 22.085938 27.875 21.914062 28.050781 21.921875 28.261719 L 21.921875 33.546875 C 21.917969 33.761719 22.089844 33.9375 22.304688 33.9375 C 22.519531 33.9375 22.691406 33.761719 22.691406 33.546875 L 22.691406 28.261719 C 22.691406 28.046875 22.519531 27.867188 22.300781 27.871094 Z M 10.785156 32.101562 C 10.574219 32.101562 10.402344 32.277344 10.40625 32.492188 L 10.40625 33.546875 C 10.40625 33.761719 10.578125 33.9375 10.792969 33.9375 C 11.003906 33.9375 11.175781 33.761719 11.175781 33.546875 L 11.175781 32.492188 C 11.179688 32.273438 11.003906 32.097656 10.785156 32.101562 Z M 18.460938 32.101562 C 18.25 32.101562 18.078125 32.277344 18.082031 32.492188 L 18.082031 33.546875 C 18.082031 33.761719 18.257812 33.933594 18.46875 33.933594 C 18.679688 33.933594 18.855469 33.761719 18.855469 33.546875 L 18.855469 32.492188 C 18.859375 32.273438 18.679688 32.097656 18.460938 32.101562 Z M 26.136719 32.101562 C 25.925781 32.101562 25.753906 32.277344 25.757812 32.492188 L 25.757812 33.546875 C 25.757812 33.761719 25.929688 33.9375 26.144531 33.9375 C 26.359375 33.9375 26.53125 33.761719 26.53125 33.546875 L 26.53125 32.492188 C 26.535156 32.273438 26.355469 32.097656 26.136719 32.101562 Z M 26.136719 32.101562 " fill-opacity="1" fill-rule="nonzero"/></g></svg>