<svg xmlns="http://www.w3.org/2000/svg" xmlns:xlink="http://www.w3.org/1999/xlink" width="50" zoomAndPan="magnify" viewBox="0 0 37.5 37.499999" height="50" preserveAspectRatio="xMidYMid meet" version="1.0"><defs><clipPath id="d43f5be094"><path d="M 1.035156 1.035156 L 37.007812 1.035156 L 37.007812 37.007812 L 1.035156 37.007812 Z M 1.035156 1.035156 " clip-rule="nonzero"/></clipPath></defs><g clip-path="url(#d43f5be094)"><path fill="#0676ce" d="M 19.539062 0.933594 C 9.277344 0.933594 0.933594 9.277344 0.933594 19.539062 C 0.933594 29.800781 9.277344 38.144531 19.539062 38.144531 C 29.800781 38.144531 38.144531 29.800781 38.144531 19.539062 C 38.144531 9.277344 29.800781 0.933594 19.539062 0.933594 Z M 35.597656 18.328125 L 30.597656 18.328125 C 30.480469 15.183594 29.929688 12.277344 29.015625 9.773438 C 29.75 9.335938 30.433594 8.808594 31.105469 8.269531 C 33.679688 10.910156 35.304688 14.429688 35.597656 18.328125 Z M 20.757812 3.597656 C 22.746094 4.148438 24.535156 5.96875 25.871094 8.640625 C 24.25 9.328125 22.527344 9.722656 20.757812 9.855469 Z M 26.457031 4.976562 C 27.445312 5.441406 28.363281 6.007812 29.222656 6.660156 C 28.832031 6.957031 28.453125 7.292969 28.039062 7.550781 C 27.570312 6.605469 27.042969 5.746094 26.457031 4.976562 Z M 18.324219 3.597656 L 18.324219 9.851562 C 16.550781 9.722656 14.828125 9.324219 13.214844 8.640625 C 14.542969 5.96875 16.335938 4.148438 18.324219 3.597656 Z M 11.035156 7.546875 C 10.617188 7.289062 10.25 6.957031 9.855469 6.660156 C 10.714844 6.007812 11.632812 5.449219 12.613281 4.976562 C 12.039062 5.746094 11.511719 6.605469 11.035156 7.546875 Z M 18.324219 12.285156 L 18.324219 18.328125 L 10.910156 18.328125 C 11.027344 15.621094 11.492188 13.070312 12.265625 10.867188 C 14.179688 11.683594 16.21875 12.148438 18.324219 12.285156 Z M 18.324219 20.757812 L 18.324219 26.800781 C 16.21875 26.941406 14.179688 27.402344 12.265625 28.21875 C 11.492188 26.019531 11.027344 23.464844 10.910156 20.757812 Z M 18.324219 29.234375 L 18.324219 35.484375 C 16.335938 34.9375 14.542969 33.113281 13.214844 30.445312 C 14.828125 29.753906 16.550781 29.363281 18.324219 29.234375 Z M 12.625 34.105469 C 11.640625 33.636719 10.71875 33.070312 9.855469 32.417969 C 10.253906 32.121094 10.625 31.789062 11.039062 31.53125 C 11.511719 32.480469 12.039062 33.339844 12.625 34.105469 Z M 20.757812 35.484375 L 20.757812 29.234375 C 22.527344 29.363281 24.253906 29.761719 25.871094 30.449219 C 24.539062 33.113281 22.746094 34.9375 20.757812 35.484375 Z M 28.046875 31.53125 C 28.460938 31.789062 28.835938 32.121094 29.226562 32.425781 C 28.363281 33.074219 27.445312 33.640625 26.464844 34.105469 C 27.042969 33.339844 27.570312 32.480469 28.046875 31.53125 Z M 20.757812 26.800781 L 20.757812 20.757812 L 28.167969 20.757812 C 28.050781 23.464844 27.589844 26.015625 26.816406 28.21875 C 24.90625 27.402344 22.863281 26.941406 20.757812 26.800781 Z M 20.757812 18.328125 L 20.757812 12.285156 C 22.863281 12.148438 24.90625 11.683594 26.816406 10.867188 C 27.589844 13.070312 28.054688 15.621094 28.167969 18.328125 Z M 7.976562 8.269531 C 8.652344 8.808594 9.328125 9.335938 10.070312 9.773438 C 9.15625 12.277344 8.605469 15.183594 8.488281 18.328125 L 3.488281 18.328125 C 3.777344 14.429688 5.402344 10.910156 7.976562 8.269531 Z M 3.488281 20.757812 L 8.492188 20.757812 C 8.609375 23.90625 9.160156 26.804688 10.070312 29.308594 C 9.328125 29.746094 8.652344 30.269531 7.976562 30.816406 C 5.402344 28.175781 3.777344 24.648438 3.488281 20.757812 Z M 31.105469 30.816406 C 30.433594 30.269531 29.75 29.746094 29.015625 29.308594 C 29.921875 26.804688 30.472656 23.902344 30.589844 20.757812 L 35.597656 20.757812 C 35.304688 24.648438 33.679688 28.175781 31.105469 30.816406 Z M 31.105469 30.816406 " fill-opacity="1" fill-rule="nonzero"/></g></svg>