<svg xmlns="http://www.w3.org/2000/svg" xmlns:xlink="http://www.w3.org/1999/xlink" width="50" zoomAndPan="magnify" viewBox="0 0 37.5 37.499999" height="50" preserveAspectRatio="xMidYMid meet" version="1.0"><defs><clipPath id="774daedf9c"><path d="M 0 3.699219 L 30 3.699219 L 30 13 L 0 13 Z M 0 3.699219 " clip-rule="nonzero"/></clipPath><clipPath id="85975ff0f7"><path d="M 0.0351562 30.179688 L 21.390625 30.179688 L 21.390625 31.03125 L 0.0351562 31.03125 Z M 0.0351562 30.179688 " clip-rule="nonzero"/></clipPath><clipPath id="a3e9d5cf77"><path d="M 30.480469 19.746094 L 37.007812 19.746094 L 37.007812 28.714844 L 30.480469 28.714844 Z M 30.480469 19.746094 " clip-rule="nonzero"/></clipPath><clipPath id="b4007a129b"><path d="M 25.152344 15.695312 L 31.300781 15.695312 L 31.300781 31.03125 L 25.152344 31.03125 Z M 25.152344 15.695312 " clip-rule="nonzero"/></clipPath></defs><g clip-path="url(#774daedf9c)"><path fill="#0676ce" d="M 14.667969 4.605469 L 14.667969 4.601562 L 14.671875 4.605469 L 27.207031 11.347656 L 2.128906 11.347656 Z M 0.457031 12.191406 L 28.882812 12.191406 C 29.074219 12.191406 29.242188 12.058594 29.292969 11.871094 C 29.339844 11.683594 29.253906 11.488281 29.082031 11.398438 L 14.871094 3.757812 C 14.808594 3.722656 14.738281 3.707031 14.667969 3.707031 C 14.601562 3.707031 14.53125 3.722656 14.46875 3.757812 L 0.257812 11.398438 C 0.0859375 11.488281 0 11.683594 0.046875 11.871094 C 0.09375 12.058594 0.261719 12.191406 0.457031 12.191406 " fill-opacity="1" fill-rule="nonzero"/></g><path fill="#0676ce" d="M 27.511719 13.804688 C 27.511719 13.574219 27.324219 13.382812 27.089844 13.382812 L 2.246094 13.382812 C 2.011719 13.382812 1.824219 13.574219 1.824219 13.804688 C 1.824219 14.039062 2.011719 14.226562 2.246094 14.226562 L 27.089844 14.226562 C 27.324219 14.226562 27.511719 14.039062 27.511719 13.804688 " fill-opacity="1" fill-rule="nonzero"/><path fill="#0676ce" d="M 1.441406 28.652344 C 1.441406 28.886719 1.628906 29.074219 1.863281 29.074219 L 17.414062 29.074219 C 17.644531 29.074219 17.832031 28.886719 17.832031 28.652344 C 17.832031 28.421875 17.644531 28.230469 17.414062 28.230469 L 1.863281 28.230469 C 1.628906 28.230469 1.441406 28.421875 1.441406 28.652344 " fill-opacity="1" fill-rule="nonzero"/><g clip-path="url(#85975ff0f7)"><path fill="#0676ce" d="M 20.96875 30.1875 L 0.457031 30.1875 C 0.222656 30.1875 0.0351562 30.378906 0.0351562 30.609375 C 0.0351562 30.84375 0.222656 31.03125 0.457031 31.03125 L 20.96875 31.03125 C 21.199219 31.03125 21.390625 30.84375 21.390625 30.609375 C 21.390625 30.378906 21.199219 30.1875 20.96875 30.1875 " fill-opacity="1" fill-rule="nonzero"/></g><path fill="#0676ce" d="M 4.011719 26.273438 C 3.777344 26.273438 3.589844 26.464844 3.589844 26.695312 C 3.589844 26.929688 3.777344 27.117188 4.011719 27.117188 L 6.210938 27.117188 C 6.445312 27.117188 6.632812 26.929688 6.632812 26.695312 C 6.632812 26.464844 6.445312 26.273438 6.210938 26.273438 L 5.53125 26.273438 L 5.53125 16.261719 L 6.210938 16.261719 C 6.445312 16.261719 6.632812 16.074219 6.632812 15.84375 C 6.632812 15.609375 6.445312 15.421875 6.210938 15.421875 L 4.011719 15.421875 C 3.777344 15.421875 3.589844 15.609375 3.589844 15.84375 C 3.589844 16.074219 3.777344 16.261719 4.011719 16.261719 L 4.691406 16.261719 L 4.691406 26.273438 L 4.011719 26.273438 " fill-opacity="1" fill-rule="nonzero"/><path fill="#0676ce" d="M 8.789062 26.273438 C 8.554688 26.273438 8.367188 26.464844 8.367188 26.695312 C 8.367188 26.929688 8.554688 27.117188 8.789062 27.117188 L 10.988281 27.117188 C 11.222656 27.117188 11.410156 26.929688 11.410156 26.695312 C 11.410156 26.464844 11.222656 26.273438 10.988281 26.273438 L 10.3125 26.273438 L 10.3125 16.261719 L 10.988281 16.261719 C 11.222656 16.261719 11.410156 16.074219 11.410156 15.84375 C 11.410156 15.609375 11.222656 15.421875 10.988281 15.421875 L 8.789062 15.421875 C 8.554688 15.421875 8.367188 15.609375 8.367188 15.84375 C 8.367188 16.074219 8.554688 16.261719 8.789062 16.261719 L 9.46875 16.261719 L 9.46875 26.273438 L 8.789062 26.273438 " fill-opacity="1" fill-rule="nonzero"/><path fill="#0676ce" d="M 20.96875 15.84375 C 20.96875 15.609375 20.777344 15.421875 20.546875 15.421875 L 18.34375 15.421875 C 18.113281 15.421875 17.925781 15.609375 17.925781 15.84375 C 17.925781 16.074219 18.113281 16.261719 18.34375 16.261719 L 19.023438 16.261719 L 19.023438 19.136719 C 19.023438 19.371094 19.214844 19.558594 19.445312 19.558594 C 19.679688 19.558594 19.867188 19.371094 19.867188 19.136719 L 19.867188 16.261719 L 20.546875 16.261719 C 20.777344 16.261719 20.96875 16.074219 20.96875 15.84375 " fill-opacity="1" fill-rule="nonzero"/><path fill="#0676ce" d="M 13.566406 26.273438 C 13.335938 26.273438 13.144531 26.464844 13.144531 26.695312 C 13.144531 26.929688 13.335938 27.117188 13.566406 27.117188 L 15.769531 27.117188 C 16 27.117188 16.191406 26.929688 16.191406 26.695312 C 16.191406 26.464844 16 26.273438 15.769531 26.273438 L 15.089844 26.273438 L 15.089844 16.261719 L 15.769531 16.261719 C 16 16.261719 16.191406 16.074219 16.191406 15.84375 C 16.191406 15.609375 16 15.421875 15.769531 15.421875 L 13.566406 15.421875 C 13.335938 15.421875 13.144531 15.609375 13.144531 15.84375 C 13.144531 16.074219 13.335938 16.261719 13.566406 16.261719 L 14.246094 16.261719 L 14.246094 26.273438 L 13.566406 26.273438 " fill-opacity="1" fill-rule="nonzero"/><g clip-path="url(#a3e9d5cf77)"><path fill="#0676ce" d="M 33.863281 27.886719 C 33.101562 27.886719 32.402344 27.484375 32.019531 26.824219 L 35.703125 26.824219 C 35.324219 27.484375 34.625 27.886719 33.863281 27.886719 Z M 33.863281 22.628906 L 35.636719 26.003906 L 32.089844 26.003906 Z M 36.59375 26.003906 L 36.566406 26.003906 L 34.496094 22.066406 C 34.6875 22.015625 34.875 21.941406 35.054688 21.851562 C 35.152344 21.800781 35.226562 21.714844 35.261719 21.609375 C 35.292969 21.503906 35.285156 21.394531 35.234375 21.296875 C 35.164062 21.160156 35.023438 21.074219 34.867188 21.074219 C 34.800781 21.074219 34.738281 21.089844 34.679688 21.117188 C 34.421875 21.253906 34.148438 21.324219 33.875 21.335938 L 33.859375 21.332031 L 33.839844 21.335938 C 33.839844 21.335938 33.835938 21.335938 33.835938 21.335938 L 33.832031 21.335938 C 33.824219 21.335938 33.816406 21.335938 33.808594 21.335938 C 33.308594 21.335938 32.808594 21.128906 32.3125 20.71875 C 31.859375 20.34375 31.46875 20.046875 31.125 19.820312 C 31.058594 19.773438 30.980469 19.75 30.898438 19.75 C 30.761719 19.75 30.632812 19.816406 30.554688 19.933594 C 30.496094 20.023438 30.472656 20.132812 30.496094 20.242188 C 30.515625 20.347656 30.578125 20.441406 30.671875 20.503906 C 30.988281 20.714844 31.355469 20.996094 31.789062 21.355469 C 32.246094 21.730469 32.726562 21.980469 33.21875 22.089844 L 31.160156 26.003906 L 31.128906 26.003906 C 30.902344 26.003906 30.71875 26.1875 30.71875 26.414062 C 30.71875 26.636719 30.894531 26.816406 31.109375 26.824219 C 31.546875 27.953125 32.648438 28.710938 33.863281 28.710938 C 35.074219 28.710938 36.175781 27.953125 36.613281 26.824219 C 36.832031 26.816406 37.007812 26.636719 37.007812 26.414062 C 37.007812 26.1875 36.820312 26.003906 36.59375 26.003906 " fill-opacity="1" fill-rule="nonzero"/></g><path fill="#0676ce" d="M 22.589844 27.886719 C 21.828125 27.886719 21.128906 27.484375 20.746094 26.824219 L 24.429688 26.824219 C 24.050781 27.484375 23.351562 27.886719 22.589844 27.886719 Z M 22.589844 22.628906 L 24.363281 26.003906 L 20.816406 26.003906 Z M 25.734375 26.414062 C 25.734375 26.1875 25.546875 26.003906 25.320312 26.003906 L 25.292969 26.003906 L 23.234375 22.089844 C 23.726562 21.980469 24.207031 21.730469 24.664062 21.355469 C 25.097656 20.996094 25.460938 20.714844 25.78125 20.503906 C 25.875 20.441406 25.9375 20.347656 25.957031 20.242188 C 25.980469 20.132812 25.957031 20.023438 25.894531 19.933594 C 25.820312 19.816406 25.691406 19.75 25.554688 19.75 C 25.472656 19.75 25.394531 19.773438 25.324219 19.820312 C 24.980469 20.046875 24.59375 20.34375 24.136719 20.71875 C 23.644531 21.128906 23.140625 21.335938 22.644531 21.335938 C 22.636719 21.335938 22.628906 21.335938 22.621094 21.335938 L 22.578125 21.335938 C 22.300781 21.324219 22.03125 21.253906 21.773438 21.117188 C 21.714844 21.089844 21.648438 21.074219 21.585938 21.074219 C 21.429688 21.074219 21.289062 21.160156 21.21875 21.296875 C 21.167969 21.394531 21.160156 21.503906 21.191406 21.609375 C 21.226562 21.714844 21.296875 21.800781 21.394531 21.851562 C 21.574219 21.941406 21.765625 22.015625 21.957031 22.066406 L 19.886719 26.003906 L 19.855469 26.003906 C 19.628906 26.003906 19.445312 26.1875 19.445312 26.414062 C 19.445312 26.636719 19.621094 26.816406 19.835938 26.824219 C 20.273438 27.953125 21.375 28.710938 22.589844 28.710938 C 23.800781 28.710938 24.902344 27.953125 25.339844 26.824219 C 25.558594 26.816406 25.734375 26.636719 25.734375 26.414062 " fill-opacity="1" fill-rule="nonzero"/><g clip-path="url(#b4007a129b)"><path fill="#0676ce" d="M 27.0625 30.210938 L 28.226562 29.515625 L 29.390625 30.210938 Z M 27.300781 19.347656 C 27.300781 18.835938 27.714844 18.417969 28.226562 18.417969 C 28.738281 18.417969 29.152344 18.835938 29.152344 19.347656 C 29.152344 19.855469 28.738281 20.273438 28.226562 20.273438 C 27.714844 20.273438 27.300781 19.855469 27.300781 19.347656 Z M 31.078125 30.257812 L 31.074219 30.257812 L 28.636719 28.804688 L 28.636719 21.046875 C 29.414062 20.859375 29.976562 20.148438 29.976562 19.347656 C 29.976562 18.542969 29.414062 17.835938 28.636719 17.644531 L 28.636719 16.109375 C 28.636719 15.882812 28.453125 15.699219 28.226562 15.699219 C 28 15.699219 27.816406 15.882812 27.816406 16.109375 L 27.816406 17.644531 C 27.039062 17.835938 26.476562 18.542969 26.476562 19.347656 C 26.476562 20.148438 27.039062 20.859375 27.816406 21.046875 L 27.816406 28.804688 L 25.359375 30.269531 C 25.203125 30.363281 25.125 30.550781 25.175781 30.730469 C 25.222656 30.90625 25.386719 31.03125 25.570312 31.03125 L 30.882812 31.03125 C 31.109375 31.03125 31.292969 30.847656 31.292969 30.621094 C 31.292969 30.46875 31.210938 30.332031 31.078125 30.257812 " fill-opacity="1" fill-rule="nonzero"/></g><path fill="#0676ce" d="M 24.222656 17.570312 C 24.457031 17.570312 24.644531 17.382812 24.644531 17.148438 L 24.644531 16.261719 L 25.324219 16.261719 C 25.558594 16.261719 25.746094 16.074219 25.746094 15.84375 C 25.746094 15.609375 25.558594 15.421875 25.324219 15.421875 L 23.125 15.421875 C 22.890625 15.421875 22.703125 15.609375 22.703125 15.84375 C 22.703125 16.074219 22.890625 16.261719 23.125 16.261719 L 23.800781 16.261719 L 23.800781 17.148438 C 23.800781 17.382812 23.992188 17.570312 24.222656 17.570312 " fill-opacity="1" fill-rule="nonzero"/></svg>