<svg xmlns="http://www.w3.org/2000/svg" xmlns:xlink="http://www.w3.org/1999/xlink" width="50" zoomAndPan="magnify" viewBox="0 0 37.5 37.499999" height="50" preserveAspectRatio="xMidYMid meet" version="1.0"><defs><clipPath id="6d3aaa8700"><path d="M 32 32 L 37.007812 32 L 37.007812 37.007812 L 32 37.007812 Z M 32 32 " clip-rule="nonzero"/></clipPath><clipPath id="dd436f7e6a"><path d="M 18 32 L 23 32 L 23 37.007812 L 18 37.007812 Z M 18 32 " clip-rule="nonzero"/></clipPath></defs><path fill="#0676ce" d="M 5.691406 34.160156 L 2.847656 34.160156 C 1.992188 34.160156 1.421875 33.589844 1.421875 32.738281 L 1.421875 29.890625 L 7.117188 29.890625 L 7.117188 32.738281 C 7.117188 33.589844 6.546875 34.160156 5.691406 34.160156 Z M 5.691406 34.160156 " fill-opacity="1" fill-rule="nonzero"/><g clip-path="url(#6d3aaa8700)"><path fill="#0676ce" d="M 35.582031 37.007812 L 34.160156 37.007812 C 33.304688 37.007812 32.738281 36.4375 32.738281 35.582031 L 32.738281 32.738281 L 37.007812 32.738281 L 37.007812 35.582031 C 37.007812 36.4375 36.4375 37.007812 35.582031 37.007812 Z M 35.582031 37.007812 " fill-opacity="1" fill-rule="nonzero"/></g><g clip-path="url(#dd436f7e6a)"><path fill="#0676ce" d="M 21.351562 37.007812 L 19.925781 37.007812 C 19.074219 37.007812 18.503906 36.4375 18.503906 35.582031 L 18.503906 32.738281 L 22.773438 32.738281 L 22.773438 35.582031 C 22.773438 36.4375 22.203125 37.007812 21.351562 37.007812 Z M 21.351562 37.007812 " fill-opacity="1" fill-rule="nonzero"/></g><path fill="#0676ce" d="M 17.078125 28.183594 C 17.078125 27.328125 17.222656 26.332031 17.648438 25.476562 L 19.355469 21.207031 C 20.070312 19.640625 21.632812 18.503906 23.34375 18.503906 L 27.042969 18.503906 L 27.042969 14.800781 C 27.042969 14.375 27.042969 14.089844 26.902344 13.664062 L 25.050781 4.554688 C 24.480469 1.851562 22.203125 0 19.5 0 L 7.542969 0 C 4.839844 0 2.417969 1.851562 1.992188 4.554688 L 0.140625 13.664062 C 0 14.089844 0 14.375 0 14.800781 L 0 28.464844 C 0 30.03125 1.28125 31.3125 2.847656 31.3125 L 17.078125 31.3125 Z M 9.964844 1.421875 L 17.078125 1.421875 C 17.933594 1.421875 18.503906 1.992188 18.503906 2.847656 C 18.503906 3.699219 17.933594 4.269531 17.078125 4.269531 L 9.964844 4.269531 C 9.109375 4.269531 8.539062 3.699219 8.539062 2.847656 C 8.539062 1.992188 9.109375 1.421875 9.964844 1.421875 Z M 4.414062 6.832031 C 4.554688 6.121094 5.125 5.691406 5.835938 5.691406 L 21.351562 5.691406 C 22.0625 5.691406 22.632812 6.121094 22.773438 6.832031 L 23.910156 12.523438 C 24.054688 13.378906 23.484375 14.234375 22.488281 14.234375 L 4.695312 14.234375 C 3.84375 14.234375 3.132812 13.378906 3.273438 12.523438 Z M 4.980469 28.464844 C 3.84375 28.464844 2.847656 27.46875 2.847656 26.332031 C 2.847656 25.191406 3.84375 24.195312 4.980469 24.195312 C 6.121094 24.195312 7.117188 25.191406 7.117188 26.332031 C 7.117188 27.46875 6.121094 28.464844 4.980469 28.464844 Z M 4.980469 28.464844 " fill-opacity="1" fill-rule="nonzero"/><path fill="#0676ce" d="M 36.578125 26.046875 L 34.871094 21.777344 C 34.445312 20.636719 33.449219 19.925781 32.167969 19.925781 L 23.199219 19.925781 C 22.0625 19.925781 20.921875 20.636719 20.496094 21.777344 L 18.789062 26.046875 C 18.503906 26.757812 18.359375 27.46875 18.359375 28.183594 L 18.359375 34.160156 L 36.863281 34.160156 L 36.863281 28.183594 C 37.007812 27.46875 36.863281 26.757812 36.578125 26.046875 Z M 23.199219 22.0625 L 32.308594 22.0625 C 32.59375 22.0625 33.019531 22.347656 33.164062 22.632812 L 34.585938 26.332031 C 34.730469 26.617188 34.445312 27.042969 34.160156 27.042969 L 21.351562 27.042969 C 21.066406 27.042969 20.78125 26.617188 20.921875 26.332031 L 22.347656 22.632812 C 22.488281 22.347656 22.773438 22.0625 23.199219 22.0625 Z M 21.351562 32.738281 C 20.496094 32.738281 19.925781 32.167969 19.925781 31.3125 C 19.925781 30.460938 20.496094 29.890625 21.351562 29.890625 C 22.203125 29.890625 22.773438 30.460938 22.773438 31.3125 C 22.773438 32.167969 22.203125 32.738281 21.351562 32.738281 Z M 34.160156 32.738281 C 33.304688 32.738281 32.738281 32.167969 32.738281 31.3125 C 32.738281 30.460938 33.304688 29.890625 34.160156 29.890625 C 35.015625 29.890625 35.582031 30.460938 35.582031 31.3125 C 35.582031 32.167969 35.015625 32.738281 34.160156 32.738281 Z M 34.160156 32.738281 " fill-opacity="1" fill-rule="nonzero"/></svg>