<svg xmlns="http://www.w3.org/2000/svg" xmlns:xlink="http://www.w3.org/1999/xlink" width="50" zoomAndPan="magnify" viewBox="0 0 37.5 37.499999" height="50" preserveAspectRatio="xMidYMid meet" version="1.0"><defs><clipPath id="f1db011572"><path d="M 13 4.710938 L 26 4.710938 L 26 18 L 13 18 Z M 13 4.710938 " clip-rule="nonzero"/></clipPath><clipPath id="606db22d59"><path d="M 7 4.710938 L 17 4.710938 L 17 14 L 7 14 Z M 7 4.710938 " clip-rule="nonzero"/></clipPath><clipPath id="cbc080734a"><path d="M 0.851562 16 L 18 16 L 18 32.097656 L 0.851562 32.097656 Z M 0.851562 16 " clip-rule="nonzero"/></clipPath><clipPath id="70b3e53131"><path d="M 19 20 L 36.378906 20 L 36.378906 32.097656 L 19 32.097656 Z M 19 20 " clip-rule="nonzero"/></clipPath></defs><g clip-path="url(#f1db011572)"><path fill="#0676ce" d="M 16.289062 17.308594 L 25.132812 4.890625 L 21.578125 4.890625 L 13.496094 16.242188 C 15.042969 16.492188 15.867188 16.867188 16.289062 17.308594 Z M 16.289062 17.308594 " fill-opacity="1" fill-rule="nonzero"/></g><g clip-path="url(#606db22d59)"><path fill="#0676ce" d="M 11.980469 13.871094 C 14.535156 13.871094 16.152344 12.125 16.152344 9.339844 C 16.152344 6.570312 14.535156 4.828125 11.980469 4.828125 C 9.425781 4.828125 7.808594 6.570312 7.808594 9.339844 C 7.808594 12.125 9.425781 13.871094 11.980469 13.871094 Z M 11.980469 6.890625 C 13.085938 6.890625 13.746094 7.804688 13.746094 9.339844 C 13.746094 10.871094 13.085938 11.804688 11.980469 11.804688 C 10.871094 11.804688 10.210938 10.871094 10.210938 9.339844 C 10.210938 7.804688 10.871094 6.890625 11.980469 6.890625 Z M 11.980469 6.890625 " fill-opacity="1" fill-rule="nonzero"/></g><path fill="#0676ce" d="M 22.359375 19.527344 C 23.410156 19.367188 24.777344 19.269531 26.554688 19.246094 C 27.699219 18.5 28.367188 17.144531 28.367188 15.359375 C 28.367188 12.59375 26.75 10.847656 24.195312 10.847656 C 21.644531 10.847656 20.023438 12.59375 20.023438 15.359375 C 20.023438 17.402344 20.894531 18.878906 22.359375 19.527344 Z M 24.195312 12.914062 C 25.300781 12.914062 25.960938 13.828125 25.960938 15.359375 C 25.960938 16.894531 25.300781 17.828125 24.195312 17.828125 C 23.089844 17.828125 22.425781 16.890625 22.425781 15.359375 C 22.429688 13.828125 23.089844 12.914062 24.195312 12.914062 Z M 24.195312 12.914062 " fill-opacity="1" fill-rule="nonzero"/><g clip-path="url(#cbc080734a)"><path fill="#0676ce" d="M 15.730469 20.527344 C 15.734375 20.503906 15.746094 20.480469 15.746094 20.457031 L 15.746094 18.398438 C 15.746094 17.085938 11.082031 16.890625 8.300781 16.890625 C 5.515625 16.890625 0.851562 17.085938 0.851562 18.398438 L 0.851562 20.457031 C 0.851562 21.050781 1.804688 21.410156 3.101562 21.632812 C 3.097656 21.65625 3.085938 21.679688 3.085938 21.703125 L 3.085938 23.761719 C 3.085938 23.992188 3.234375 24.1875 3.488281 24.351562 C 2.800781 24.570312 2.363281 24.867188 2.363281 25.265625 L 2.363281 27.324219 C 2.363281 27.648438 2.648438 27.902344 3.121094 28.105469 C 2.949219 28.25 2.84375 28.414062 2.84375 28.601562 L 2.84375 30.65625 C 2.84375 31.96875 7.507812 32.164062 10.289062 32.164062 C 13.070312 32.164062 17.738281 31.96875 17.738281 30.65625 L 17.738281 28.601562 C 17.738281 28.277344 17.453125 28.023438 16.980469 27.820312 C 17.152344 27.675781 17.257812 27.511719 17.257812 27.324219 L 17.257812 25.265625 C 17.257812 25.035156 17.109375 24.84375 16.859375 24.675781 C 17.542969 24.457031 17.980469 24.160156 17.980469 23.761719 L 17.980469 21.703125 C 17.980469 21.113281 17.03125 20.75 15.730469 20.527344 Z M 8.300781 17.847656 C 11.492188 17.847656 13.546875 18.148438 14.414062 18.398438 C 13.546875 18.652344 11.496094 18.949219 8.300781 18.949219 C 5.105469 18.949219 3.050781 18.652344 2.1875 18.398438 C 3.050781 18.148438 5.105469 17.847656 8.300781 17.847656 Z M 8.300781 21.964844 C 10.25 21.964844 13.117188 21.867188 14.664062 21.359375 C 15.574219 21.460938 16.246094 21.585938 16.648438 21.703125 C 15.78125 21.957031 13.730469 22.253906 10.53125 22.253906 C 8.003906 22.253906 6.203125 22.066406 5.125 21.863281 C 6.230469 21.941406 7.371094 21.964844 8.300781 21.964844 Z M 16.40625 28.601562 C 15.539062 28.855469 13.488281 29.152344 10.292969 29.152344 C 7.097656 29.152344 5.046875 28.855469 4.175781 28.601562 C 4.292969 28.570312 4.433594 28.535156 4.59375 28.5 C 6.175781 28.773438 8.28125 28.832031 9.8125 28.832031 C 11.503906 28.832031 13.894531 28.761719 15.507812 28.40625 C 15.882812 28.472656 16.183594 28.539062 16.40625 28.601562 Z M 15.925781 25.269531 C 15.058594 25.519531 13.007812 25.816406 9.8125 25.816406 C 6.617188 25.816406 4.566406 25.519531 3.699219 25.269531 C 4.0625 25.160156 4.644531 25.050781 5.421875 24.953125 C 6.992188 25.210938 9.03125 25.269531 10.53125 25.269531 C 11.808594 25.269531 13.480469 25.226562 14.921875 25.054688 C 15.34375 25.125 15.683594 25.199219 15.925781 25.269531 Z M 15.925781 25.269531 " fill-opacity="1" fill-rule="nonzero"/></g><g clip-path="url(#70b3e53131)"><path fill="#0676ce" d="M 34.617188 24.238281 C 34.773438 24.101562 34.867188 23.941406 34.867188 23.761719 L 34.867188 21.703125 C 34.867188 20.394531 30.203125 20.195312 27.421875 20.195312 C 24.640625 20.195312 19.972656 20.394531 19.972656 21.703125 L 19.972656 23.761719 C 19.972656 24.238281 20.589844 24.566406 21.503906 24.789062 C 21.34375 24.929688 21.25 25.089844 21.25 25.269531 L 21.25 27.324219 C 21.25 27.367188 21.269531 27.402344 21.277344 27.441406 C 20.027344 27.664062 19.121094 28.023438 19.121094 28.601562 L 19.121094 30.660156 C 19.121094 31.972656 23.789062 32.167969 26.570312 32.167969 C 29.351562 32.167969 34.015625 31.972656 34.015625 30.660156 L 34.015625 28.601562 C 34.015625 28.5625 34 28.527344 33.992188 28.488281 C 35.242188 28.261719 36.144531 27.902344 36.144531 27.324219 L 36.144531 25.269531 C 36.144531 24.792969 35.53125 24.464844 34.617188 24.238281 Z M 27.421875 21.152344 C 30.617188 21.152344 32.667969 21.453125 33.535156 21.703125 C 32.667969 21.957031 30.617188 22.253906 27.421875 22.253906 C 24.226562 22.253906 22.175781 21.957031 21.308594 21.703125 C 22.175781 21.449219 24.226562 21.152344 27.421875 21.152344 Z M 26.570312 29.152344 C 23.375 29.152344 21.324219 28.855469 20.457031 28.601562 C 20.855469 28.488281 21.523438 28.359375 22.421875 28.257812 C 23.988281 28.742188 26.789062 28.832031 28.699219 28.832031 C 29.746094 28.832031 31.058594 28.804688 32.292969 28.699219 C 31.269531 28.925781 29.355469 29.152344 26.570312 29.152344 Z M 28.699219 25.816406 C 25.503906 25.816406 23.449219 25.519531 22.585938 25.269531 C 22.78125 25.210938 23.046875 25.152344 23.371094 25.09375 C 24.726562 25.234375 26.242188 25.269531 27.421875 25.269531 C 28.996094 25.269531 31.171875 25.207031 32.765625 24.914062 C 33.710938 25.019531 34.398438 25.148438 34.8125 25.269531 C 33.945312 25.519531 31.894531 25.816406 28.699219 25.816406 Z M 28.699219 25.816406 " fill-opacity="1" fill-rule="nonzero"/></g></svg>