<svg xmlns="http://www.w3.org/2000/svg" xmlns:xlink="http://www.w3.org/1999/xlink" width="50" zoomAndPan="magnify" viewBox="0 0 37.5 37.499999" height="50" preserveAspectRatio="xMidYMid meet" version="1.0"><path fill="#0676ce" d="M 36.40625 17.285156 L 33.109375 13.988281 C 34.226562 12.699219 34.828125 11.066406 34.828125 9.34375 C 34.828125 7.425781 34.082031 5.617188 32.734375 4.269531 C 31.386719 2.925781 29.609375 2.179688 27.691406 2.179688 C 27.691406 2.179688 27.660156 2.179688 27.660156 2.179688 C 25.941406 2.179688 24.308594 2.78125 23.019531 3.898438 C 23.019531 3.898438 19.722656 0.601562 19.722656 0.601562 C 19.121094 0 18.03125 0 17.429688 0.601562 C 17.429688 0.601562 0.628906 17.398438 0.628906 17.398438 C 0 18.03125 0 19.089844 0.628906 19.691406 C 0.628906 19.691406 17.285156 36.347656 17.3125 36.375 C 17.945312 37.007812 19.003906 36.976562 19.605469 36.375 L 23.332031 32.648438 C 23.449219 32.535156 23.503906 32.390625 23.503906 32.25 C 23.503906 32.105469 23.449219 31.960938 23.332031 31.847656 C 20.984375 29.496094 21.011719 25.683594 23.363281 23.332031 C 25.710938 20.984375 29.554688 20.953125 31.875 23.304688 C 32.105469 23.535156 32.476562 23.535156 32.679688 23.304688 C 32.679688 23.304688 36.40625 19.578125 36.40625 19.578125 C 37.007812 18.949219 37.007812 17.886719 36.40625 17.285156 Z M 36.40625 17.285156 " fill-opacity="1" fill-rule="nonzero"/></svg>