<svg xmlns="http://www.w3.org/2000/svg" xmlns:xlink="http://www.w3.org/1999/xlink" width="50" zoomAndPan="magnify" viewBox="0 0 37.5 37.499999" height="50" preserveAspectRatio="xMidYMid meet" version="1.0"><path fill="#0676ce" d="M 10.101562 20.570312 L 21.1875 20.570312 C 23.425781 20.570312 25.5625 21.574219 26.898438 23.273438 C 27.027344 23.453125 27.261719 23.503906 27.464844 23.453125 L 34.59375 21.214844 C 34.875 21.136719 35.003906 20.828125 34.925781 20.570312 C 34.847656 20.289062 34.539062 20.160156 34.285156 20.238281 L 27.492188 22.371094 C 26.4375 21.136719 25.046875 20.289062 23.503906 19.851562 C 22.679688 12.957031 24.558594 2.769531 24.585938 2.667969 C 24.609375 2.511719 24.558594 2.332031 24.457031 2.203125 C 24.300781 2.074219 24.148438 2.023438 23.96875 2.050781 L 9.742188 4.390625 C 9.585938 4.417969 9.433594 4.519531 9.355469 4.671875 C 9.277344 4.828125 9.277344 5.007812 9.355469 5.136719 C 9.382812 5.214844 12.878906 11.902344 12.183594 19.542969 L 11.15625 19.542969 C 11.234375 18.847656 11.257812 18.152344 11.257812 17.460938 C 9.5625 13.496094 7.066406 10.667969 6.011719 9.5625 L 9.382812 7.761719 C 9.253906 7.402344 9.125 7.066406 8.996094 6.808594 L 4.929688 8.996094 C 4.777344 9.074219 4.671875 9.226562 4.671875 9.382812 C 4.648438 9.535156 4.726562 9.714844 4.828125 9.820312 C 4.878906 9.871094 8.996094 13.753906 10.976562 19.542969 L 10.128906 19.542969 C 9.457031 19.542969 8.816406 19.824219 8.351562 20.289062 C 7.914062 20.726562 7.683594 21.316406 7.710938 21.933594 C 7.734375 22.734375 8.199219 23.425781 8.894531 23.839844 C 8.457031 24.25 8.171875 24.84375 8.171875 25.484375 C 8.171875 26.4375 8.789062 27.261719 9.640625 27.621094 C 9.355469 28.007812 9.203125 28.519531 9.203125 29.085938 C 9.203125 30.140625 10.050781 30.9375 11.003906 31.246094 C 10.640625 31.683594 10.460938 32.199219 10.488281 32.738281 C 10.539062 33.972656 11.671875 34.976562 13.007812 34.976562 L 20.984375 34.976562 C 23.480469 34.976562 25.792969 33.949219 27.363281 32.148438 L 34.257812 34.285156 C 34.539062 34.359375 34.824219 34.207031 34.902344 33.949219 C 34.976562 33.664062 34.824219 33.382812 34.566406 33.304688 L 27.335938 31.066406 C 27.132812 31.015625 26.925781 31.066406 26.773438 31.246094 C 25.433594 32.945312 23.273438 33.949219 20.984375 33.949219 L 13.007812 33.949219 C 12.210938 33.949219 11.542969 33.382812 11.515625 32.714844 C 11.515625 32.378906 11.621094 32.070312 11.875 31.8125 C 12.132812 31.53125 12.519531 31.375 12.929688 31.375 L 13.472656 31.375 C 13.753906 31.375 13.984375 31.144531 13.984375 30.863281 C 13.984375 30.578125 13.753906 30.347656 13.472656 30.347656 L 12.929688 30.347656 C 12.855469 30.347656 12.75 30.347656 12.675781 30.375 C 12.648438 30.375 12.597656 30.347656 12.546875 30.347656 L 11.902344 30.347656 C 11.054688 30.347656 10.230469 29.703125 10.230469 29.0625 C 10.230469 28.445312 10.539062 27.773438 11.386719 27.773438 L 12.804688 27.773438 C 13.085938 27.773438 13.316406 27.542969 13.316406 27.261719 C 13.316406 26.976562 13.085938 26.746094 12.804688 26.746094 L 11.386719 26.746094 C 11.363281 26.746094 11.335938 26.746094 11.3125 26.746094 C 11.3125 26.746094 11.285156 26.746094 11.285156 26.746094 L 10.640625 26.746094 C 9.871094 26.746094 9.226562 26.179688 9.226562 25.460938 C 9.226562 24.738281 9.84375 24.171875 10.640625 24.171875 L 12.570312 24.171875 C 12.855469 24.171875 13.085938 23.941406 13.085938 23.660156 C 13.085938 23.375 12.855469 23.144531 12.570312 23.144531 L 10.230469 23.144531 C 9.433594 23.144531 8.789062 22.578125 8.765625 21.910156 C 8.765625 21.574219 8.867188 21.265625 9.125 21.007812 C 9.328125 20.726562 9.714844 20.570312 10.101562 20.570312 Z M 10.589844 5.292969 L 23.425781 3.183594 C 23.015625 5.625 21.78125 13.601562 22.425781 19.621094 C 22.011719 19.570312 21.601562 19.542969 21.1875 19.542969 L 13.238281 19.542969 C 13.832031 12.957031 11.464844 7.195312 10.589844 5.292969 Z M 10.589844 5.292969 " fill-opacity="1" fill-rule="nonzero"/><path fill="#0676ce" d="M 15.246094 15.554688 L 15.660156 15.503906 C 15.863281 16.40625 16.457031 16.738281 17.097656 16.660156 C 18.824219 16.457031 18.023438 13.910156 19.054688 13.78125 C 19.492188 13.730469 19.75 14.011719 19.824219 14.65625 C 19.878906 15.144531 19.695312 15.554688 19.414062 15.890625 C 19.363281 15.96875 19.285156 16.070312 19.285156 16.222656 C 19.3125 16.429688 19.492188 16.585938 19.722656 16.558594 C 19.800781 16.558594 19.851562 16.507812 19.902344 16.480469 C 20.261719 16.199219 20.570312 15.605469 20.570312 14.914062 L 20.984375 14.859375 C 21.164062 14.835938 21.292969 14.679688 21.265625 14.5 C 21.242188 14.320312 21.085938 14.191406 20.878906 14.21875 L 20.46875 14.269531 C 20.261719 13.316406 19.695312 12.878906 18.898438 12.984375 C 17.125 13.1875 17.871094 15.734375 16.945312 15.863281 C 16.660156 15.890625 16.351562 15.710938 16.277344 15.117188 C 16.222656 14.707031 16.351562 14.320312 16.53125 14.0625 C 16.609375 13.933594 16.660156 13.832031 16.660156 13.730469 C 16.636719 13.523438 16.457031 13.367188 16.25 13.394531 C 16.171875 13.394531 16.09375 13.445312 16.019531 13.496094 C 15.710938 13.78125 15.53125 14.269531 15.53125 14.859375 L 15.167969 14.914062 C 14.988281 14.9375 14.859375 15.09375 14.886719 15.296875 C 14.886719 15.453125 15.066406 15.582031 15.246094 15.554688 Z M 15.246094 15.554688 " fill-opacity="1" fill-rule="nonzero"/><path fill="#0676ce" d="M 8.53125 16.53125 C 6.347656 14.964844 4.363281 14.039062 3.363281 13.625 L 5.007812 11.492188 C 4.699219 11.128906 4.441406 10.875 4.289062 10.71875 L 2.128906 13.550781 C 2.023438 13.675781 2 13.859375 2.050781 14.011719 C 2.101562 14.167969 2.230469 14.296875 2.382812 14.347656 C 2.4375 14.371094 6.039062 15.660156 9.535156 18.640625 C 9.226562 17.894531 8.894531 17.203125 8.53125 16.53125 Z M 8.53125 16.53125 " fill-opacity="1" fill-rule="nonzero"/></svg>