<svg xmlns="http://www.w3.org/2000/svg" xmlns:xlink="http://www.w3.org/1999/xlink" width="50" zoomAndPan="magnify" viewBox="0 0 37.5 37.499999" height="50" preserveAspectRatio="xMidYMid meet" version="1.0"><defs><clipPath id="b4d35de52e"><path d="M 4.015625 23 L 25 23 L 25 31 L 4.015625 31 Z M 4.015625 23 " clip-rule="nonzero"/></clipPath><clipPath id="9a87862709"><path d="M 9 19 L 32.882812 19 L 32.882812 35.835938 L 9 35.835938 Z M 9 19 " clip-rule="nonzero"/></clipPath><clipPath id="b8825c3d45"><path d="M 9 1.046875 L 31 1.046875 L 31 23 L 9 23 Z M 9 1.046875 " clip-rule="nonzero"/></clipPath></defs><g clip-path="url(#b4d35de52e)"><path fill="#0676ce" d="M 4.625 30.492188 C 4.363281 30.492188 4.183594 30.375 4.082031 30.132812 C 3.980469 29.890625 4.023438 29.675781 4.210938 29.492188 L 8.992188 24.707031 C 9.796875 23.898438 10.765625 23.5 11.902344 23.5 L 22.074219 23.5 C 22.375 23.5 22.660156 23.558594 22.9375 23.671875 C 23.210938 23.785156 23.457031 23.949219 23.667969 24.160156 C 23.878906 24.371094 24.039062 24.613281 24.152344 24.890625 C 24.269531 25.164062 24.324219 25.453125 24.324219 25.75 C 24.324219 26.050781 24.269531 26.335938 24.152344 26.613281 C 24.039062 26.886719 23.878906 27.128906 23.667969 27.339844 C 23.457031 27.550781 23.210938 27.714844 22.9375 27.828125 C 22.660156 27.945312 22.375 28 22.074219 28 L 15.429688 28 C 15.265625 28 15.128906 27.941406 15.011719 27.828125 C 14.898438 27.714844 14.839844 27.574219 14.839844 27.414062 C 14.839844 27.25 14.898438 27.113281 15.011719 26.996094 C 15.128906 26.882812 15.265625 26.824219 15.429688 26.824219 L 22.074219 26.824219 C 22.21875 26.824219 22.355469 26.796875 22.488281 26.742188 C 22.621094 26.691406 22.734375 26.613281 22.835938 26.511719 C 22.9375 26.410156 23.015625 26.292969 23.070312 26.164062 C 23.125 26.03125 23.152344 25.894531 23.152344 25.75 C 23.152344 25.609375 23.125 25.472656 23.070312 25.339844 C 23.015625 25.207031 22.9375 25.089844 22.835938 24.992188 C 22.734375 24.890625 22.621094 24.8125 22.488281 24.757812 C 22.355469 24.703125 22.21875 24.675781 22.074219 24.675781 L 11.902344 24.675781 C 11.09375 24.679688 10.398438 24.964844 9.824219 25.539062 L 5.039062 30.320312 C 4.925781 30.4375 4.789062 30.492188 4.625 30.492188 Z M 4.625 30.492188 " fill-opacity="1" fill-rule="nonzero"/></g><g clip-path="url(#9a87862709)"><path fill="#0676ce" d="M 10.027344 35.894531 C 9.765625 35.894531 9.582031 35.773438 9.484375 35.53125 C 9.382812 35.289062 9.425781 35.078125 9.609375 34.890625 L 11.070312 33.433594 C 11.871094 32.625 12.84375 32.222656 13.980469 32.226562 L 20.199219 32.226562 C 21.011719 32.230469 21.707031 31.941406 22.277344 31.367188 L 31.242188 22.402344 C 31.351562 22.292969 31.4375 22.164062 31.496094 22.019531 C 31.558594 21.875 31.585938 21.726562 31.585938 21.570312 C 31.585938 21.414062 31.554688 21.265625 31.496094 21.121094 C 31.4375 20.976562 31.351562 20.851562 31.242188 20.738281 C 31.132812 20.628906 31.003906 20.546875 30.859375 20.484375 C 30.71875 20.425781 30.566406 20.394531 30.410156 20.394531 C 30.253906 20.394531 30.105469 20.425781 29.960938 20.484375 C 29.816406 20.542969 29.691406 20.628906 29.582031 20.738281 L 24.152344 26.167969 C 24.039062 26.277344 23.902344 26.335938 23.742188 26.332031 C 23.582031 26.332031 23.445312 26.273438 23.328125 26.160156 C 23.214844 26.046875 23.160156 25.910156 23.15625 25.75 C 23.15625 25.589844 23.210938 25.453125 23.324219 25.335938 L 28.75 19.910156 C 28.96875 19.6875 29.222656 19.519531 29.511719 19.398438 C 29.800781 19.28125 30.101562 19.222656 30.410156 19.222656 C 30.722656 19.222656 31.023438 19.28125 31.3125 19.398438 C 31.597656 19.519531 31.851562 19.6875 32.074219 19.910156 C 32.292969 20.128906 32.464844 20.382812 32.582031 20.671875 C 32.703125 20.960938 32.761719 21.261719 32.761719 21.570312 C 32.761719 21.882812 32.703125 22.183594 32.582031 22.472656 C 32.464844 22.757812 32.292969 23.011719 32.074219 23.234375 L 23.109375 32.195312 C 22.308594 33.003906 21.335938 33.40625 20.199219 33.402344 L 13.980469 33.402344 C 13.167969 33.40625 12.476562 33.691406 11.902344 34.261719 L 10.441406 35.722656 C 10.328125 35.839844 10.1875 35.894531 10.027344 35.894531 Z M 10.027344 35.894531 " fill-opacity="1" fill-rule="nonzero"/></g><g clip-path="url(#b8825c3d45)"><path fill="#0676ce" d="M 19.941406 22.230469 C 19.246094 22.230469 18.558594 22.164062 17.875 22.027344 C 17.195312 21.890625 16.535156 21.691406 15.890625 21.425781 C 15.25 21.160156 14.640625 20.835938 14.0625 20.449219 C 13.484375 20.0625 12.953125 19.625 12.460938 19.132812 C 11.96875 18.640625 11.53125 18.109375 11.144531 17.53125 C 10.757812 16.953125 10.433594 16.34375 10.167969 15.703125 C 9.902344 15.058594 9.703125 14.398438 9.566406 13.71875 C 9.429688 13.035156 9.363281 12.347656 9.363281 11.652344 C 9.363281 10.960938 9.429688 10.269531 9.566406 9.589844 C 9.703125 8.910156 9.902344 8.246094 10.167969 7.605469 C 10.433594 6.964844 10.757812 6.355469 11.144531 5.777344 C 11.53125 5.199219 11.96875 4.664062 12.460938 4.175781 C 12.953125 3.683594 13.484375 3.246094 14.0625 2.859375 C 14.640625 2.472656 15.25 2.148438 15.890625 1.882812 C 16.535156 1.617188 17.195312 1.414062 17.875 1.28125 C 18.558594 1.144531 19.246094 1.078125 19.941406 1.078125 C 20.632812 1.078125 21.324219 1.144531 22.003906 1.28125 C 22.683594 1.414062 23.347656 1.617188 23.988281 1.882812 C 24.628906 2.148438 25.238281 2.472656 25.816406 2.859375 C 26.394531 3.246094 26.929688 3.683594 27.417969 4.175781 C 27.910156 4.664062 28.347656 5.199219 28.734375 5.777344 C 29.121094 6.355469 29.445312 6.964844 29.710938 7.605469 C 29.976562 8.246094 30.179688 8.910156 30.3125 9.589844 C 30.449219 10.269531 30.515625 10.960938 30.515625 11.652344 C 30.515625 12.347656 30.449219 13.035156 30.3125 13.714844 C 30.175781 14.398438 29.976562 15.058594 29.707031 15.699219 C 29.441406 16.339844 29.117188 16.949219 28.730469 17.527344 C 28.34375 18.105469 27.90625 18.636719 27.414062 19.128906 C 26.925781 19.621094 26.390625 20.058594 25.8125 20.445312 C 25.234375 20.832031 24.628906 21.15625 23.984375 21.421875 C 23.34375 21.6875 22.683594 21.890625 22.003906 22.027344 C 21.320312 22.160156 20.632812 22.230469 19.941406 22.230469 Z M 19.941406 2.25 C 19.324219 2.25 18.710938 2.3125 18.105469 2.433594 C 17.5 2.554688 16.914062 2.730469 16.34375 2.96875 C 15.773438 3.203125 15.230469 3.492188 14.714844 3.835938 C 14.203125 4.179688 13.726562 4.570312 13.292969 5.003906 C 12.855469 5.441406 12.464844 5.917969 12.121094 6.429688 C 11.78125 6.945312 11.488281 7.484375 11.253906 8.054688 C 11.019531 8.625 10.839844 9.214844 10.71875 9.820312 C 10.597656 10.425781 10.539062 11.035156 10.539062 11.652344 C 10.539062 12.269531 10.597656 12.882812 10.71875 13.488281 C 10.839844 14.09375 11.019531 14.679688 11.253906 15.25 C 11.488281 15.820312 11.78125 16.363281 12.121094 16.878906 C 12.464844 17.390625 12.855469 17.867188 13.292969 18.300781 C 13.726562 18.738281 14.203125 19.128906 14.714844 19.472656 C 15.230469 19.8125 15.773438 20.105469 16.34375 20.339844 C 16.914062 20.574219 17.5 20.753906 18.105469 20.875 C 18.710938 20.996094 19.324219 21.054688 19.941406 21.054688 C 20.558594 21.054688 21.167969 20.996094 21.773438 20.875 C 22.378906 20.753906 22.96875 20.574219 23.539062 20.339844 C 24.109375 20.105469 24.648438 19.8125 25.164062 19.472656 C 25.675781 19.128906 26.152344 18.738281 26.589844 18.300781 C 27.023438 17.867188 27.414062 17.390625 27.757812 16.878906 C 28.101562 16.363281 28.390625 15.820312 28.625 15.25 C 28.863281 14.679688 29.039062 14.09375 29.160156 13.488281 C 29.28125 12.882812 29.34375 12.269531 29.34375 11.652344 C 29.339844 11.035156 29.28125 10.425781 29.160156 9.820312 C 29.039062 9.214844 28.859375 8.628906 28.625 8.058594 C 28.386719 7.488281 28.097656 6.945312 27.753906 6.433594 C 27.410156 5.921875 27.019531 5.445312 26.585938 5.007812 C 26.148438 4.574219 25.671875 4.183594 25.160156 3.839844 C 24.648438 3.496094 24.105469 3.207031 23.535156 2.96875 C 22.964844 2.734375 22.378906 2.554688 21.773438 2.433594 C 21.167969 2.3125 20.558594 2.253906 19.941406 2.25 Z M 19.941406 2.25 " fill-opacity="1" fill-rule="nonzero"/></g><path fill="#0676ce" d="M 15.238281 14.589844 C 15.078125 14.589844 14.9375 14.535156 14.824219 14.417969 C 14.707031 14.304688 14.652344 14.167969 14.652344 14.003906 L 14.652344 9.304688 C 14.652344 9.140625 14.707031 9.003906 14.824219 8.886719 C 14.9375 8.773438 15.078125 8.714844 15.238281 8.714844 C 15.402344 8.714844 15.539062 8.773438 15.65625 8.886719 C 15.769531 9.003906 15.828125 9.140625 15.828125 9.304688 L 15.828125 14.003906 C 15.828125 14.167969 15.769531 14.304688 15.65625 14.417969 C 15.539062 14.535156 15.402344 14.589844 15.238281 14.589844 Z M 15.238281 14.589844 " fill-opacity="1" fill-rule="nonzero"/><path fill="#0676ce" d="M 17.003906 9.890625 L 13.476562 9.890625 C 13.3125 9.890625 13.175781 9.832031 13.0625 9.71875 C 12.945312 9.605469 12.890625 9.464844 12.890625 9.304688 C 12.890625 9.140625 12.945312 9.003906 13.0625 8.886719 C 13.175781 8.773438 13.3125 8.714844 13.476562 8.714844 L 17.003906 8.714844 C 17.164062 8.714844 17.304688 8.773438 17.417969 8.886719 C 17.53125 9.003906 17.589844 9.140625 17.589844 9.304688 C 17.589844 9.464844 17.53125 9.605469 17.417969 9.71875 C 17.304688 9.832031 17.164062 9.890625 17.003906 9.890625 Z M 17.003906 9.890625 " fill-opacity="1" fill-rule="nonzero"/><path fill="#0676ce" d="M 17.589844 14.589844 C 17.519531 14.589844 17.449219 14.578125 17.382812 14.554688 C 17.230469 14.496094 17.121094 14.394531 17.054688 14.246094 C 16.988281 14.101562 16.980469 13.949219 17.039062 13.796875 L 18.800781 9.097656 C 18.859375 8.945312 18.960938 8.835938 19.109375 8.765625 C 19.257812 8.699219 19.40625 8.695312 19.558594 8.75 C 19.710938 8.808594 19.820312 8.910156 19.886719 9.058594 C 19.953125 9.207031 19.960938 9.355469 19.902344 9.507812 L 18.140625 14.210938 C 18.046875 14.464844 17.863281 14.589844 17.589844 14.589844 Z M 17.589844 14.589844 " fill-opacity="1" fill-rule="nonzero"/><path fill="#0676ce" d="M 21.117188 14.589844 C 20.84375 14.59375 20.660156 14.464844 20.566406 14.210938 L 18.800781 9.507812 C 18.746094 9.355469 18.75 9.207031 18.816406 9.058594 C 18.882812 8.910156 18.996094 8.808594 19.144531 8.753906 C 19.296875 8.695312 19.449219 8.699219 19.597656 8.769531 C 19.746094 8.835938 19.847656 8.945312 19.902344 9.097656 L 21.664062 13.800781 C 21.722656 13.949219 21.71875 14.101562 21.652344 14.25 C 21.582031 14.398438 21.472656 14.5 21.320312 14.554688 C 21.253906 14.578125 21.1875 14.59375 21.117188 14.589844 Z M 21.117188 14.589844 " fill-opacity="1" fill-rule="nonzero"/><path fill="#0676ce" d="M 26.402344 14.589844 C 26.207031 14.589844 26.050781 14.511719 25.933594 14.355469 L 22.40625 9.65625 C 22.3125 9.527344 22.273438 9.382812 22.296875 9.21875 C 22.320312 9.058594 22.394531 8.929688 22.527344 8.832031 C 22.65625 8.738281 22.800781 8.699219 22.960938 8.722656 C 23.121094 8.746094 23.25 8.820312 23.347656 8.949219 L 26.875 13.652344 C 27.019531 13.84375 27.039062 14.050781 26.929688 14.265625 C 26.820312 14.484375 26.644531 14.589844 26.402344 14.589844 Z M 26.402344 14.589844 " fill-opacity="1" fill-rule="nonzero"/><path fill="#0676ce" d="M 22.878906 14.589844 C 22.636719 14.589844 22.460938 14.484375 22.351562 14.265625 C 22.246094 14.050781 22.261719 13.84375 22.40625 13.652344 L 25.933594 8.949219 C 26.03125 8.820312 26.160156 8.746094 26.320312 8.722656 C 26.480469 8.699219 26.625 8.734375 26.757812 8.832031 C 26.886719 8.929688 26.964844 9.058594 26.984375 9.21875 C 27.007812 9.378906 26.972656 9.527344 26.875 9.65625 L 23.347656 14.355469 C 23.230469 14.511719 23.074219 14.589844 22.878906 14.589844 Z M 22.878906 14.589844 " fill-opacity="1" fill-rule="nonzero"/><path fill="#0676ce" d="M 20.527344 13.417969 L 18.175781 13.417969 C 18.015625 13.417969 17.875 13.359375 17.761719 13.246094 C 17.648438 13.128906 17.589844 12.992188 17.589844 12.828125 C 17.589844 12.667969 17.648438 12.527344 17.761719 12.414062 C 17.875 12.296875 18.015625 12.242188 18.175781 12.242188 L 20.527344 12.242188 C 20.691406 12.242188 20.828125 12.296875 20.941406 12.414062 C 21.058594 12.527344 21.117188 12.667969 21.117188 12.828125 C 21.117188 12.992188 21.058594 13.128906 20.941406 13.246094 C 20.828125 13.359375 20.691406 13.417969 20.527344 13.417969 Z M 20.527344 13.417969 " fill-opacity="1" fill-rule="nonzero"/></svg>